<?xml version="1.0" standalone="no"?>
<!DOCTYPE svg PUBLIC "-//W3C//DTD SVG 20010904//EN"
 "http://www.w3.org/TR/2001/REC-SVG-20010904/DTD/svg10.dtd">
<svg version="1.0" xmlns="http://www.w3.org/2000/svg"
 width="945.000000pt" height="549.000000pt" viewBox="0 0 945.000000 549.000000"
 preserveAspectRatio="xMidYMid meet">

<g transform="translate(0.000000,549.000000) scale(0.100000,-0.100000)"
fill="#000000" stroke="none">
<path d="M1316 4359 c-2 -8 -12 -248 -21 -534 -9 -286 -24 -742 -34 -1014 -9
-272 -14 -518 -10 -547 23 -169 172 -317 345 -344 38 -6 530 -27 1094 -46 935
-31 1733 -59 3730 -129 1429 -50 1411 -49 1419 -37 4 7 13 182 20 390 7 207
23 667 35 1022 25 709 25 719 -31 822 -58 106 -173 187 -293 207 -36 6 -335
20 -665 31 -330 11 -919 32 -1310 45 -1559 55 -3872 136 -4067 142 -174 5
-208 4 -212 -8z m292 -166 c2 -7 -3 -13 -11 -13 -10 0 -17 -15 -22 -46 -7 -51
-8 -49 23 -59 19 -5 25 -2 29 14 9 35 35 26 31 -11 l-3 -33 -70 3 c-78 4 -88
8 -62 26 23 17 25 106 2 106 -16 0 -20 12 -8 24 12 11 86 2 91 -11z m152 2 c0
-8 -9 -15 -20 -15 -11 0 -20 7 -20 15 0 8 9 15 20 15 11 0 20 -7 20 -15z m194
5 c37 -14 33 -33 -4 -28 -38 6 -49 -8 -14 -16 33 -9 25 -32 -10 -28 -23 2 -26
-1 -26 -28 0 -26 5 -31 30 -36 32 -7 39 -18 17 -27 -25 -10 -107 5 -107 19 0
8 7 14 15 14 21 0 20 56 -1 64 -13 5 -10 13 20 41 41 39 43 39 80 25z m436
-25 c0 -8 -9 -15 -20 -15 -13 0 -18 5 -14 15 4 8 12 15 20 15 8 0 14 -7 14
-15z m-630 -59 c0 -39 3 -45 23 -48 46 -6 20 -23 -40 -26 -52 -2 -63 0 -63 13
0 9 9 15 25 15 21 0 25 5 25 30 0 23 -4 30 -20 30 -11 0 -20 7 -20 15 0 10 11
15 35 15 35 0 35 0 35 -44z m337 26 c6 -4 16 -20 22 -35 13 -34 -1 -42 -59
-34 -23 3 -38 1 -34 -4 3 -5 25 -9 50 -9 32 0 44 -4 44 -15 0 -11 -12 -15 -48
-15 -61 0 -85 17 -85 60 0 20 7 38 18 46 20 15 73 18 92 6z m1063 -11 c0 -15
8 -21 32 -23 46 -4 49 -28 4 -28 -33 0 -36 -2 -36 -30 0 -31 5 -33 54 -30 37
2 30 -21 -9 -32 -43 -11 -75 13 -75 57 0 19 -4 35 -10 35 -5 0 -10 7 -10 15 0
8 4 15 9 15 5 0 13 9 16 20 8 26 25 26 25 1z m-770 -35 c0 -38 3 -45 22 -48
12 -2 23 -9 26 -15 3 -10 -14 -13 -62 -13 -52 0 -66 3 -66 15 0 9 9 15 25 15
21 0 25 5 25 29 0 21 -6 30 -21 34 -29 8 -14 27 22 27 28 0 29 -2 29 -44z
m178 38 c13 -4 22 -14 22 -25 0 -20 -24 -26 -35 -9 -3 6 -15 10 -26 10 -10 0
-19 -4 -19 -10 0 -5 11 -10 25 -10 14 0 34 -9 46 -21 20 -20 20 -22 3 -40 -28
-31 -114 -22 -114 12 0 20 24 26 35 9 3 -5 17 -10 31 -10 13 0 24 5 24 10 0 6
-9 10 -21 10 -51 0 -80 47 -41 69 20 12 38 13 70 5z m327 -21 c8 -8 15 -26 15
-41 0 -15 3 -37 6 -49 5 -20 2 -23 -19 -23 -27 0 -49 21 -29 28 14 4 16 58 3
66 -5 4 -17 3 -26 0 -14 -6 -16 -15 -12 -45 6 -44 -1 -52 -37 -43 -24 6 -25 8
-11 27 18 26 20 64 3 69 -6 2 -8 9 -5 15 11 17 95 14 112 -4z m160 -18 c37
-36 32 -70 -13 -94 -69 -36 -136 45 -82 99 27 27 66 25 95 -5z m1605 -47 c0
-35 3 -73 6 -85 6 -22 4 -23 -54 -23 -66 0 -92 15 -92 53 0 41 27 67 71 67 21
0 39 5 39 10 0 6 -4 10 -10 10 -5 0 -10 7 -10 15 0 9 9 15 25 15 24 0 25 -3
25 -62z m-1110 31 c7 -11 9 -31 6 -44 -3 -13 -2 -27 4 -30 18 -11 10 -25 -15
-25 -23 0 -25 4 -25 45 0 27 -5 45 -11 45 -8 0 -10 -14 -6 -45 6 -40 5 -45
-13 -45 -17 0 -20 7 -20 45 0 25 -4 45 -10 45 -15 0 -24 -50 -11 -63 18 -18
13 -27 -17 -27 -27 0 -28 1 -27 60 l0 60 67 0 c58 0 69 -3 78 -21z m134 0 c14
-11 26 -29 26 -40 0 -16 -7 -19 -57 -19 -47 -1 -54 -3 -39 -11 10 -6 33 -9 52
-6 36 6 56 -9 33 -24 -8 -5 -31 -9 -51 -9 -78 0 -108 81 -43 118 29 17 49 15
79 -9z m1196 -4 c0 -22 4 -25 34 -25 59 0 88 -67 46 -105 -15 -13 -34 -18 -72
-16 -59 2 -83 16 -55 32 12 7 17 23 17 59 0 28 -4 50 -10 50 -5 0 -10 7 -10
15 0 9 9 15 25 15 20 0 25 -5 25 -25z m-1046 9 c11 -4 16 -19 16 -44 0 -22 5
-42 10 -45 21 -13 8 -23 -36 -28 -58 -6 -82 0 -90 25 -8 26 14 48 57 58 l34 8
-37 1 c-36 1 -46 9 -31 24 8 9 56 9 77 1z m180 -14 c17 -17 -8 -34 -32 -21
-26 14 -42 14 -42 1 0 -5 10 -10 22 -10 25 0 58 -27 58 -47 0 -32 -107 -42
-126 -12 -10 17 14 35 28 21 14 -14 58 -16 58 -3 0 5 -15 12 -34 15 -31 6 -46
21 -46 47 0 26 90 33 114 9z m81 -37 c0 -50 13 -63 39 -38 21 21 21 55 0 55
-9 0 -14 6 -11 13 2 6 15 12 28 12 21 0 24 -5 25 -35 1 -19 4 -45 8 -58 6 -19
4 -22 -21 -22 -15 0 -37 -3 -49 -6 -29 -8 -54 20 -54 61 0 18 -5 35 -12 37
-18 6 1 28 25 28 20 0 22 -5 22 -47z m243 34 c19 -13 14 -30 -7 -24 -25 6 -61
-19 -61 -43 0 -12 8 -20 25 -22 14 -2 27 -7 28 -13 3 -14 -84 -18 -103 -5 -13
9 -13 12 3 24 18 14 24 66 7 66 -5 0 -10 6 -10 14 0 10 14 13 53 12 28 -1 58
-5 65 -9z m1042 -17 c0 -14 8 -20 33 -22 17 -2 32 -7 32 -13 0 -5 -15 -11 -32
-13 -29 -3 -33 -7 -33 -34 0 -30 1 -30 40 -24 31 5 40 3 40 -8 0 -16 -21 -26
-59 -26 -37 0 -51 17 -51 62 0 27 -4 38 -15 38 -8 0 -15 5 -15 10 0 6 5 10 10
10 6 0 15 12 20 26 11 28 30 24 30 -6z m140 5 c0 -21 5 -25 28 -25 37 0 52
-17 52 -56 0 -18 5 -36 10 -39 21 -13 9 -25 -25 -25 -34 0 -46 12 -25 25 6 3
10 20 10 36 0 26 -3 30 -22 27 -20 -3 -23 -8 -21 -45 2 -41 1 -43 -28 -43 -19
0 -29 5 -29 15 0 8 5 15 10 15 6 0 10 25 10 55 0 30 -4 55 -10 55 -5 0 -10 7
-10 15 0 9 9 15 25 15 20 0 25 -5 25 -25z m-1040 -5 c11 -11 20 -29 20 -40 0
-17 -7 -20 -51 -20 -33 0 -48 -4 -44 -11 4 -5 25 -9 47 -7 25 2 43 -2 45 -9 5
-15 -49 -26 -87 -18 -76 17 -59 125 20 125 17 0 39 -9 50 -20z m576 -11 c3 -6
2 -14 -4 -18 -7 -4 -6 -14 3 -30 12 -24 13 -24 24 -3 6 11 8 27 5 35 -7 20 7
28 38 19 l26 -7 -38 -63 c-24 -39 -36 -70 -33 -82 5 -18 0 -20 -41 -20 -34 0
-46 4 -46 15 0 9 9 15 24 15 37 0 39 27 7 86 -16 29 -26 56 -23 59 10 9 51 5
58 -6z m1405 -1 c1 -7 1 -21 0 -30 -2 -15 3 -17 28 -12 23 5 35 1 55 -19 14
-15 26 -33 26 -42 0 -9 -12 -27 -26 -42 -20 -20 -32 -24 -56 -19 -17 3 -50 6
-74 6 l-44 0 0 45 c0 27 -5 45 -11 45 -8 0 -10 -14 -6 -45 6 -40 5 -45 -13
-45 -17 0 -20 7 -20 45 0 49 -16 61 -26 19 -4 -17 -2 -29 6 -34 27 -17 -3 -29
-73 -28 -94 1 -107 8 -107 58 0 22 -4 40 -10 40 -5 0 -10 7 -10 15 0 9 9 15
25 15 23 0 25 -4 25 -44 0 -48 8 -60 34 -50 19 7 22 60 4 67 -23 8 6 27 30 20
21 -5 22 -10 16 -49 -5 -38 -4 -44 11 -44 15 0 17 6 12 45 l-7 45 70 0 c76 0
84 -6 82 -57 -1 -23 3 -33 13 -33 19 0 22 106 3 112 -17 6 0 28 23 28 10 0 20
-6 20 -12z m-716 -33 c42 -41 33 -55 -32 -55 -47 -1 -54 -3 -39 -11 10 -6 33
-9 52 -6 19 3 36 1 40 -5 18 -28 -76 -39 -114 -12 -36 25 -25 92 18 107 31 11
52 6 75 -18z m1613 1 c12 -12 -13 -25 -38 -19 -18 3 -30 1 -30 -5 0 -6 10 -12
22 -14 33 -5 35 -28 1 -28 -24 0 -28 -4 -30 -29 -2 -25 2 -30 24 -33 15 -2 28
-9 31 -15 3 -10 -13 -13 -57 -13 -48 0 -61 3 -61 15 0 8 7 15 15 15 10 0 15
10 15 30 0 17 -4 30 -10 30 -5 0 -10 7 -10 15 0 8 7 15 15 15 8 0 15 7 15 15
0 21 31 36 64 30 16 -3 31 -7 34 -9z m-1290 -13 c5 -10 12 -37 15 -60 5 -42 5
-43 -25 -43 -27 0 -30 3 -24 23 20 72 21 69 -10 65 -23 -2 -30 -9 -32 -30 -2
-16 1 -28 7 -28 6 0 11 -7 11 -15 0 -10 -10 -15 -29 -15 -33 0 -51 18 -31 30
9 6 11 21 6 49 l-6 41 55 0 c42 0 56 -4 63 -17z m632 -23 c11 -11 20 -29 20
-40 0 -17 -7 -20 -52 -20 -38 0 -49 -3 -38 -10 8 -5 32 -7 54 -3 30 5 38 3 34
-7 -6 -19 -54 -33 -83 -26 -34 9 -55 33 -55 66 0 54 79 81 120 40z m173 11 c4
-1 7 -8 7 -17 0 -11 -6 -15 -19 -11 -26 6 -61 -19 -61 -44 0 -15 7 -19 31 -19
20 0 29 -4 27 -12 -6 -16 -88 -22 -108 -8 -13 9 -13 12 3 24 19 15 23 62 5 68
-6 2 -9 9 -5 15 5 8 63 10 120 4z m298 -19 c28 -24 30 -76 3 -97 -43 -33 -114
-6 -114 44 0 61 63 91 111 53z m-5629 -57 c-4 -23 -1 -25 32 -25 64 0 96 -54
59 -99 -19 -22 -32 -25 -100 -23 -31 2 -43 6 -43 17 0 8 5 15 10 15 6 0 10 24
10 54 0 30 -4 58 -10 61 -19 12 -10 25 19 25 25 0 28 -3 23 -25z m800 -28 c-3
-25 -1 -28 17 -22 36 11 61 -11 61 -55 0 -22 5 -40 10 -40 6 0 10 -7 10 -15 0
-10 -10 -15 -29 -15 -30 0 -54 21 -33 28 14 4 16 72 3 72 -5 0 -16 -3 -25 -6
-19 -7 -22 -60 -3 -67 24 -9 -10 -30 -37 -23 -25 6 -37 26 -16 26 14 0 13 117
-2 122 -20 7 2 29 25 26 18 -2 21 -9 19 -31z m-135 4 c3 -12 15 -21 31 -23 42
-5 39 -28 -3 -28 -35 0 -36 -1 -33 -32 3 -31 5 -33 41 -30 49 4 52 -24 3 -33
-52 -10 -76 8 -76 55 0 22 -4 40 -10 40 -5 0 -10 7 -10 15 0 8 4 15 9 15 5 0
13 9 16 20 8 25 25 26 32 1z m-409 -14 c20 -13 14 -30 -9 -24 -12 3 -30 0 -40
-6 -27 -17 -24 -45 6 -53 28 -7 29 -30 2 -28 -9 0 -35 1 -57 2 -42 2 -54 20
-20 29 25 7 28 58 4 67 -8 3 -13 10 -9 15 7 12 104 9 123 -2z m142 -19 c11
-12 20 -30 20 -40 0 -15 -9 -18 -52 -18 -38 0 -49 -3 -38 -10 8 -5 32 -7 54
-3 30 5 38 3 34 -7 -6 -19 -54 -33 -83 -26 -34 9 -55 33 -55 66 0 55 80 81
120 38z m141 12 c14 -8 19 -21 19 -50 0 -22 5 -40 10 -40 6 0 10 -7 10 -15 0
-22 -119 -16 -134 8 -17 26 5 51 50 58 41 6 28 19 -15 16 -28 -2 -40 19 -14
26 32 8 54 7 74 -3z m1229 -19 c0 -15 8 -21 32 -23 46 -4 49 -28 4 -28 -33 0
-36 -2 -36 -29 0 -33 14 -42 47 -30 23 8 39 -3 29 -20 -9 -14 -58 -20 -83 -10
-19 7 -23 16 -23 49 0 22 -4 40 -10 40 -5 0 -10 7 -10 15 0 8 4 15 9 15 5 0
11 9 14 20 7 26 27 26 27 1z m308 -26 c-3 -24 -2 -42 3 -39 5 3 9 12 9 20 0
11 9 14 32 12 43 -4 45 -21 6 -36 l-33 -13 33 -28 c39 -34 40 -41 3 -41 -20 0
-30 6 -34 20 -3 11 -10 20 -16 20 -6 0 -11 -9 -11 -20 0 -15 -7 -20 -25 -20
-16 0 -25 6 -25 15 0 8 5 15 10 15 13 0 13 107 0 115 -17 10 -1 25 27 25 24 0
25 -2 21 -45z m-1040 8 c2 -14 -2 -23 -9 -23 -10 0 -10 -3 -1 -12 20 -20 14
-48 -12 -58 -36 -13 -96 -1 -96 20 0 26 10 30 36 13 14 -9 31 -12 41 -8 14 6
9 10 -22 20 -70 21 -55 78 19 73 34 -2 42 -7 44 -25z m237 -15 c-5 -26 -4 -29
5 -15 13 20 37 23 43 5 2 -7 2 -3 0 10 -3 19 1 22 27 22 16 0 30 -1 30 -2 0
-2 -9 -28 -19 -57 -19 -59 -39 -76 -48 -42 -6 24 -23 28 -23 6 0 -8 -9 -15
-19 -15 -16 0 -21 9 -27 45 -3 25 -10 45 -15 45 -5 0 -9 7 -9 15 0 10 10 15
31 15 29 0 30 -2 24 -32z m1425 4 c0 -26 3 -28 29 -24 59 8 93 -66 50 -109
-18 -18 -28 -19 -77 -13 -65 8 -68 9 -55 26 16 19 27 118 14 118 -6 0 -11 7
-11 15 0 9 9 15 25 15 21 0 25 -5 25 -28z m-1191 -8 c36 -46 29 -57 -34 -52
-30 3 -52 1 -49 -4 3 -4 25 -8 50 -8 32 0 44 -4 44 -15 0 -11 -12 -15 -48 -15
-61 0 -85 17 -85 60 0 62 82 85 122 34z m462 -5 c15 -15 20 -29 15 -49 -3 -20
-1 -30 10 -34 29 -11 2 -26 -47 -26 -55 0 -89 13 -89 35 0 23 30 45 61 45 16
0 29 5 29 11 0 7 -12 9 -35 5 -27 -5 -35 -4 -35 8 0 31 62 34 91 5z m1069 -3
c0 -8 14 -16 31 -20 38 -7 34 -32 -5 -28 -24 3 -26 0 -26 -34 l0 -37 40 7 c31
5 40 3 40 -8 0 -19 -67 -33 -89 -19 -9 6 -17 27 -19 52 -2 28 -8 41 -18 41
-18 0 -18 16 -1 27 8 4 17 16 20 26 7 20 27 14 27 -7z m290 -3 c0 -25 4 -28
36 -29 42 -1 64 -23 64 -64 0 -46 -30 -63 -96 -56 -32 3 -60 8 -62 11 -3 3 2
13 11 23 20 22 24 108 5 114 -17 6 0 28 23 28 14 0 19 -7 19 -27z m-1035 -8
c41 -41 33 -55 -31 -55 -38 0 -53 -3 -48 -11 4 -7 24 -9 50 -6 45 5 68 -8 43
-24 -22 -14 -83 -10 -107 7 -36 25 -25 92 18 107 31 11 52 6 75 -18z m1675
-14 c0 -24 4 -28 19 -24 36 9 61 -14 61 -57 0 -21 5 -40 12 -42 19 -7 -1 -28
-27 -28 -26 0 -46 21 -27 28 14 4 16 58 3 66 -5 4 -17 3 -26 0 -12 -5 -16 -17
-13 -48 3 -43 -12 -56 -42 -36 -12 7 -12 12 -2 22 16 16 16 115 0 120 -17 6 0
28 23 28 14 0 19 -7 19 -29z m-140 0 c0 -15 8 -21 32 -23 46 -4 49 -28 4 -28
-35 0 -36 -1 -36 -36 l0 -36 41 7 c32 6 40 4 37 -6 -7 -21 -57 -33 -84 -20
-19 8 -24 18 -24 47 0 23 -6 41 -17 50 -17 12 -17 13 0 19 9 4 17 16 17 26 0
10 7 19 15 19 8 0 15 -9 15 -19z m-970 -36 c0 -41 2 -45 25 -45 21 0 25 5 25
29 0 17 -6 31 -16 35 -22 8 -7 26 22 26 21 0 24 -4 24 -37 0 -21 3 -48 6 -61
6 -22 5 -23 -52 -20 l-59 3 -3 43 c-2 23 -7 42 -13 42 -5 0 -9 7 -9 15 0 9 9
15 25 15 23 0 25 -4 25 -45z m645 16 c3 -5 1 -12 -4 -16 -7 -4 -6 -15 1 -31
14 -30 32 -17 33 23 0 19 6 29 19 31 36 7 37 -14 2 -76 -22 -39 -32 -69 -29
-82 5 -20 2 -21 -37 -18 -43 3 -71 28 -31 28 38 0 42 31 11 88 -15 28 -25 53
-22 56 9 10 50 7 57 -3z m695 -33 c11 -12 20 -30 20 -40 0 -15 -8 -18 -51 -18
-33 0 -48 -4 -44 -11 4 -5 25 -9 47 -7 49 4 63 -17 19 -27 -42 -9 -89 3 -101
25 -38 71 55 137 110 78z m1055 1 c0 -8 13 -16 29 -19 45 -8 45 -30 1 -30 -35
0 -36 -1 -33 -32 3 -30 6 -33 38 -33 40 0 52 -17 18 -27 -59 -16 -88 3 -88 58
0 19 -4 34 -10 34 -5 0 -10 7 -10 15 0 8 4 15 9 15 5 0 13 9 16 21 7 22 30 21
30 -2z m-726 -3 c5 -6 11 -33 12 -61 3 -41 1 -50 -13 -53 -15 -3 -18 4 -18 47
0 28 -4 51 -10 51 -5 0 -10 -3 -11 -7 0 -5 -2 -19 -5 -32 -2 -14 1 -28 8 -32
18 -12 -4 -31 -25 -23 -12 4 -17 18 -17 51 0 30 -4 42 -11 37 -7 -4 -9 -21 -5
-45 6 -38 5 -39 -24 -39 -20 0 -30 5 -30 15 0 8 5 15 10 15 13 0 13 57 0 65
-6 4 -8 11 -5 16 8 13 133 9 144 -5z m-2099 -7 c0 -15 -33 -69 -42 -69 -11 0
-10 11 3 49 10 29 39 44 39 20z m2236 3 c13 -8 34 -46 34 -61 0 -42 -92 -68
-124 -35 -21 20 -20 63 1 86 16 18 68 24 89 10z m185 -14 c6 -11 8 -31 4 -45
-4 -16 -1 -29 6 -33 16 -11 2 -30 -22 -30 -16 0 -19 7 -19 51 0 34 -4 48 -11
43 -7 -4 -9 -22 -6 -45 5 -42 2 -50 -19 -42 -9 3 -14 21 -14 50 0 31 -4 43
-12 41 -17 -6 -23 -47 -9 -61 18 -18 13 -27 -17 -27 -27 0 -27 1 -27 60 l0 59
68 -1 c56 -1 70 -4 78 -20z m139 -8 c11 -11 20 -29 20 -40 0 -17 -7 -20 -52
-20 -39 0 -49 -3 -38 -10 8 -6 32 -8 53 -4 29 4 37 2 37 -9 0 -10 -14 -18 -41
-22 -52 -9 -92 17 -97 63 -6 55 76 84 118 42z m155 3 c8 -8 15 -26 15 -41 0
-15 3 -37 6 -49 5 -20 2 -23 -19 -23 -27 0 -49 21 -29 28 14 4 16 58 3 66 -5
4 -17 3 -26 0 -14 -6 -16 -15 -12 -46 4 -27 1 -41 -8 -44 -18 -7 -61 16 -47
25 17 11 26 62 12 71 -23 14 0 28 45 28 27 0 51 -6 60 -15z m329 -13 c17 -17
-8 -34 -32 -21 -26 14 -42 14 -42 1 0 -5 11 -10 24 -10 47 0 74 -50 37 -70
-46 -24 -132 2 -103 31 9 10 15 10 24 1 14 -14 58 -16 58 -3 0 5 -15 12 -34
15 -31 6 -46 21 -46 47 0 26 90 33 114 9z m-5454 -80 c0 -14 8 -20 33 -22 17
-2 32 -7 32 -13 0 -5 -15 -11 -32 -13 -29 -3 -33 -7 -33 -34 0 -30 1 -30 39
-24 27 4 41 2 44 -7 7 -18 27 39 27 79 0 19 -4 34 -10 34 -5 0 -10 7 -10 15 0
9 9 15 25 15 20 0 25 -5 25 -25 0 -21 5 -25 28 -25 38 0 52 -17 52 -62 0 -21
5 -38 11 -38 5 0 7 -4 4 -10 -10 -16 -65 -12 -65 5 0 8 5 15 11 15 6 0 9 12 7
28 -2 19 -9 27 -23 27 -17 0 -20 -6 -18 -42 l2 -41 -72 0 c-103 0 -107 1 -107
54 0 32 -4 44 -15 44 -8 0 -15 5 -15 10 0 6 5 10 10 10 6 0 15 12 20 26 11 28
30 24 30 -6z m475 -9 c3 -12 17 -21 32 -23 42 -5 41 -28 -2 -28 -35 0 -36 -1
-33 -32 3 -31 5 -33 41 -31 26 2 37 -2 37 -11 0 -29 -84 -30 -102 -2 -4 6 -8
26 -8 44 0 17 -4 32 -10 32 -5 0 -10 7 -10 15 0 8 4 15 9 15 5 0 13 9 16 20 8
25 22 26 30 1z m315 -11 c0 -14 7 -20 23 -20 30 0 51 -15 42 -29 -4 -8 -18
-10 -36 -6 -28 6 -29 5 -29 -30 l0 -38 40 7 c31 5 40 3 40 -8 0 -20 -62 -31
-89 -17 -16 9 -21 21 -21 51 0 22 -4 40 -10 40 -5 0 -10 7 -10 15 0 8 4 15 9
15 5 0 11 9 14 20 3 11 10 20 16 20 6 0 11 -9 11 -20z m302 -30 l-3 -45 19 23
c14 18 24 22 45 17 35 -9 34 -20 -3 -35 -27 -11 -41 -30 -22 -30 4 -1 18 -10
31 -21 17 -14 21 -23 13 -31 -12 -12 -66 -2 -58 11 3 5 -1 14 -9 21 -13 10
-15 9 -15 -9 0 -16 -6 -21 -25 -21 -16 0 -25 6 -25 15 0 8 5 15 10 15 14 0 13
107 -2 112 -20 7 2 29 25 26 19 -3 21 -9 19 -48z m-741 20 c14 -8 19 -21 19
-50 0 -22 5 -40 10 -40 6 0 10 -7 10 -15 0 -11 -12 -15 -51 -15 -58 0 -89 13
-89 38 0 27 20 42 57 42 18 0 33 5 33 11 0 7 -12 9 -35 5 -27 -5 -35 -4 -35 8
0 25 47 34 81 16z m1839 -39 c0 -24 3 -28 24 -24 73 14 111 -82 46 -117 -27
-15 -120 -2 -120 16 0 8 5 14 10 14 14 0 13 107 -2 112 -17 6 0 28 23 28 14 0
19 -7 19 -29z m-1189 -8 c6 -15 8 -35 6 -45 -3 -9 2 -19 11 -23 32 -12 -6 -26
-63 -23 -41 2 -61 8 -69 20 -14 23 16 56 58 61 29 4 29 4 -6 5 -26 2 -38 7
-38 17 0 11 12 15 45 15 40 0 47 -3 56 -27z m319 -5 c11 -12 20 -30 20 -40 0
-15 -9 -18 -52 -18 -38 0 -49 -3 -38 -10 8 -5 32 -7 54 -3 30 5 38 3 34 -7 -6
-19 -54 -33 -83 -26 -34 9 -55 33 -55 66 0 55 80 81 120 38z m306 4 c23 -15
34 -50 24 -77 -14 -37 -56 -50 -97 -31 -27 13 -33 21 -33 48 0 17 7 40 17 50
16 18 68 24 89 10z m94 -43 c0 -47 2 -50 23 -47 25 3 36 43 18 61 -19 19 -12
27 20 27 31 0 31 0 24 -41 -5 -29 -3 -44 5 -49 24 -15 -1 -30 -49 -30 -57 0
-71 12 -71 61 0 21 -5 39 -12 41 -17 6 0 28 23 28 16 0 19 -7 19 -51z m1130
21 c0 -14 8 -20 33 -22 17 -2 32 -7 32 -13 0 -5 -15 -11 -32 -13 -29 -3 -33
-7 -33 -34 0 -29 2 -30 34 -25 18 3 39 0 44 -5 8 -8 14 -4 21 13 12 32 12 99
0 99 -5 0 -9 7 -9 15 0 9 9 15 25 15 20 0 25 -5 25 -25 0 -21 5 -25 30 -25 34
0 50 -23 50 -69 0 -17 5 -31 10 -31 6 0 10 -4 10 -10 0 -5 -16 -10 -35 -10
-34 0 -46 12 -25 25 6 3 10 20 10 36 0 26 -3 30 -22 27 -20 -3 -23 -8 -21 -45
l2 -41 -72 0 c-103 0 -107 1 -107 54 0 32 -4 44 -15 44 -19 0 -20 16 -2 27 8
4 17 16 20 26 8 22 27 13 27 -13z m-880 5 c12 -15 -3 -30 -20 -20 -16 10 -50
-14 -50 -35 0 -11 8 -20 22 -22 12 -2 23 -9 26 -15 3 -9 -12 -13 -52 -13 -56
0 -85 17 -47 27 26 7 30 58 5 67 -30 12 -3 24 51 24 32 0 59 -6 65 -13z m478
-28 c3 -14 -1 -17 -21 -12 -16 4 -30 1 -41 -10 -24 -24 -20 -43 11 -47 14 -2
28 -9 31 -15 3 -10 -13 -13 -57 -13 -48 0 -61 3 -61 15 0 8 7 15 15 15 10 0
15 10 15 30 0 17 -4 30 -10 30 -5 0 -10 7 -10 15 0 12 13 14 62 12 51 -2 63
-5 66 -20z m130 7 c12 -8 22 -26 22 -40 0 -22 -4 -24 -52 -24 -43 -1 -49 -3
-35 -11 10 -6 34 -8 53 -5 26 5 34 3 34 -7 0 -18 -21 -27 -61 -27 -33 0 -79
38 -79 65 0 24 46 65 72 65 13 0 34 -7 46 -16z m160 -6 c7 -7 12 -27 12 -44 0
-18 5 -36 10 -39 27 -17 5 -26 -57 -23 -63 3 -68 5 -71 27 -5 30 8 42 55 51
l38 8 -42 1 c-40 1 -52 9 -36 24 11 12 78 8 91 -5z m630 -20 c7 -7 12 -27 12
-44 0 -18 5 -36 10 -39 22 -13 8 -23 -42 -28 -60 -5 -88 5 -88 32 0 24 22 42
63 51 32 8 31 8 -10 9 -40 1 -52 9 -36 24 11 12 78 8 91 -5z m91 3 c12 -8 12
-12 2 -25 -9 -11 -10 -16 -2 -16 6 0 11 5 11 10 0 16 21 12 37 -7 13 -16 14
-16 8 10 -5 25 -3 27 25 27 29 0 40 -13 21 -24 -5 -3 -14 -26 -20 -51 -12 -48
-35 -60 -46 -25 -6 20 -7 20 -25 -2 -10 -13 -21 -20 -24 -17 -10 10 -35 113
-30 121 7 11 26 10 43 -1z m225 -17 c9 -8 16 -31 16 -50 0 -19 5 -34 11 -34 6
0 9 -6 7 -12 -5 -16 -95 -20 -120 -7 -40 21 -15 65 45 80 l32 8 -37 -2 c-42
-2 -60 9 -38 23 23 15 67 12 84 -6z m103 -16 c-3 -12 -1 -30 5 -41 10 -20 11
-20 23 3 7 13 10 31 7 42 -3 14 1 18 21 18 28 0 46 -18 30 -29 -18 -11 -58
-95 -58 -121 0 -17 -5 -25 -17 -24 -72 3 -79 5 -76 17 3 6 15 13 27 15 34 5
36 27 7 78 -33 59 -33 64 5 64 27 0 31 -3 26 -22z m191 -85 c-2 -10 -10 -18
-18 -18 -8 0 -16 8 -18 18 -2 12 3 17 18 17 15 0 20 -5 18 -17z m634 -478 c14
-30 24 -32 33 -5 3 11 14 20 24 20 16 0 18 -6 13 -45 -3 -30 -1 -45 7 -45 6 0
11 4 11 10 0 5 15 14 33 19 31 9 31 9 5 10 -37 1 -36 21 1 21 33 0 46 -13 54
-57 l6 -32 -79 1 c-61 0 -80 4 -80 14 0 8 5 14 10 14 6 0 10 8 10 18 -1 15 -2
15 -16 -3 -15 -20 -15 -20 -30 -1 -10 15 -14 16 -14 5 0 -8 5 -20 12 -27 9 -9
5 -12 -20 -12 -30 0 -32 2 -25 28 4 15 7 42 6 60 -2 39 22 44 39 7z m643 -56
c19 -55 41 -61 39 -10 -2 30 0 31 36 31 44 0 49 -5 55 -55 4 -29 2 -35 -14
-35 -17 0 -19 5 -14 35 5 28 2 35 -11 35 -22 0 -32 -28 -17 -51 10 -18 7 -19
-44 -19 -51 0 -72 12 -42 23 6 3 0 6 -15 6 -20 1 -26 -3 -22 -14 5 -11 -1 -15
-20 -15 -32 0 -32 8 -4 56 15 26 18 39 10 42 -23 7 -12 22 17 22 26 0 31 -5
46 -51z m455 -3 c0 -47 3 -54 23 -60 35 -9 5 -22 -43 -18 -36 4 -59 22 -26 22
16 0 26 21 26 56 0 15 -6 24 -15 24 -16 0 -20 12 -8 23 3 4 15 7 25 7 15 0 18
-8 18 -54z m-855 17 c0 -30 19 -34 23 -5 2 14 10 22 23 22 24 0 24 1 -6 -53
-14 -25 -23 -52 -19 -61 5 -13 -1 -16 -30 -16 -25 0 -36 4 -36 15 0 8 6 15 14
15 25 0 27 18 7 58 -11 22 -17 42 -14 46 14 14 38 0 38 -21z m166 10 c1 -5 3
-17 4 -28 2 -11 6 -28 10 -37 6 -16 1 -18 -43 -18 -37 0 -51 4 -56 16 -8 22
10 42 42 47 24 4 23 4 -6 6 -19 0 -31 5 -27 11 7 12 74 14 76 3z m497 -18 c2
-2 -1 -12 -7 -23 -6 -12 -11 -35 -11 -52 0 -23 -6 -33 -24 -42 -27 -12 -61 -4
-51 12 3 5 18 10 33 11 25 0 25 1 -8 12 -27 9 -36 18 -38 40 -5 44 14 59 62
51 23 -3 42 -8 44 -9z m96 -11 c29 -28 19 -44 -26 -46 l-43 -1 43 -4 c44 -4
58 -22 20 -25 -56 -4 -88 14 -88 48 0 20 30 44 55 44 13 0 31 -7 39 -16z m246
-13 c16 -31 12 -51 -14 -62 -52 -24 -101 15 -76 61 15 27 75 28 90 1z m60 -16
c0 -25 4 -35 15 -35 20 0 31 28 16 43 -17 17 -13 27 9 27 16 0 20 -7 22 -35 0
-19 1 -40 2 -47 1 -16 -59 -19 -77 -4 -8 6 -17 28 -20 49 -5 32 -3 37 14 37
15 0 19 -7 19 -35z m-2676 -374 l79 -6 -2 -155 c-1 -85 -6 -171 -11 -190 -23
-82 -29 -84 -314 -76 -133 4 -263 9 -290 12 l-49 6 5 177 c3 105 10 186 17
199 26 48 50 52 276 46 116 -4 246 -9 289 -13z"/>
<path d="M2040 4110 c20 -13 53 -13 45 0 -3 6 -18 10 -33 10 -21 0 -24 -2 -12
-10z"/>
<path d="M2983 4083 c-16 -6 -17 -35 -1 -51 30 -30 78 0 58 37 -10 20 -31 25
-57 14z"/>
<path d="M4554 4016 c-11 -28 4 -46 36 -46 28 0 31 3 28 28 -2 21 -9 28 -31
30 -18 2 -29 -2 -33 -12z"/>
<path d="M3620 4060 c-11 -7 -6 -10 20 -10 26 0 31 3 20 10 -8 5 -17 10 -20
10 -3 0 -12 -5 -20 -10z"/>
<path d="M4884 4006 c-11 -28 4 -48 33 -44 22 2 28 8 28 28 0 20 -6 26 -28 28
-18 2 -29 -2 -33 -12z"/>
<path d="M3765 4011 c-3 -5 -2 -12 3 -15 12 -7 52 4 52 15 0 12 -47 12 -55 0z"/>
<path d="M4405 4030 c-4 -6 7 -10 25 -10 18 0 29 4 25 10 -3 6 -15 10 -25 10
-10 0 -22 -4 -25 -10z"/>
<path d="M6469 3954 c-9 -11 -10 -20 -2 -32 25 -41 86 -14 63 27 -13 25 -42
27 -61 5z"/>
<path d="M5675 3990 c-4 -6 7 -10 27 -10 25 0 29 3 18 10 -19 13 -37 13 -45 0z"/>
<path d="M6625 3950 c-4 -6 7 -10 25 -10 18 0 29 4 25 10 -3 6 -15 10 -25 10
-10 0 -22 -4 -25 -10z"/>
<path d="M7102 3938 c-21 -21 -14 -47 14 -54 17 -4 31 -1 42 9 14 15 14 18 -3
37 -21 23 -36 25 -53 8z"/>
<path d="M1545 3830 c-9 -28 2 -40 35 -40 31 0 42 16 28 43 -12 24 -55 22 -63
-3z"/>
<path d="M1860 3830 c0 -5 14 -10 31 -10 17 0 28 4 24 10 -3 6 -17 10 -31 10
-13 0 -24 -4 -24 -10z"/>
<path d="M2010 3780 c0 -13 30 -13 50 0 11 7 7 10 -17 10 -18 0 -33 -4 -33
-10z"/>
<path d="M2510 3810 c20 -13 40 -13 40 0 0 6 -12 10 -27 10 -22 0 -25 -2 -13
-10z"/>
<path d="M4244 3746 c-11 -28 1 -51 25 -51 32 0 49 28 32 49 -17 20 -50 21
-57 2z"/>
<path d="M2980 3790 c20 -13 53 -13 45 0 -3 6 -18 10 -33 10 -21 0 -24 -2 -12
-10z"/>
<path d="M3440 3730 c0 -5 9 -10 19 -10 11 0 23 5 26 10 4 6 -5 10 -19 10 -14
0 -26 -4 -26 -10z"/>
<path d="M4882 3731 c-8 -4 -12 -19 -10 -32 2 -19 9 -24 33 -24 33 0 45 25 25
50 -14 17 -29 19 -48 6z"/>
<path d="M3765 3770 c-4 -6 7 -10 27 -10 25 0 29 3 18 10 -19 13 -37 13 -45 0z"/>
<path d="M5665 3700 c-4 -6 7 -10 25 -10 18 0 29 4 25 10 -3 6 -15 10 -25 10
-10 0 -22 -4 -25 -10z"/>
<path d="M6134 3675 c-10 -24 4 -45 29 -45 32 0 49 18 36 42 -12 22 -57 24
-65 3z"/>
<path d="M6455 3670 c-4 -6 7 -10 25 -10 18 0 29 4 25 10 -3 6 -15 10 -25 10
-10 0 -22 -4 -25 -10z"/>
<path d="M1845 3490 c-3 -6 5 -10 19 -10 14 0 28 5 31 10 3 6 -5 10 -19 10
-14 0 -28 -4 -31 -10z"/>
<path d="M3759 3464 c-17 -21 0 -49 32 -49 18 0 25 6 27 24 6 38 -34 55 -59
25z"/>
<path d="M2475 3470 c-4 -6 7 -10 24 -10 17 0 31 5 31 10 0 6 -11 10 -24 10
-14 0 -28 -4 -31 -10z"/>
<path d="M2800 3500 c0 -5 14 -10 31 -10 17 0 28 4 24 10 -3 6 -17 10 -31 10
-13 0 -24 -4 -24 -10z"/>
<path d="M3113 3484 c-7 -20 8 -48 29 -52 26 -5 50 26 38 49 -13 23 -58 25
-67 3z"/>
<path d="M4065 3460 c-4 -6 9 -10 32 -10 28 0 34 3 23 10 -20 13 -47 13 -55 0z"/>
<path d="M4225 3410 c-3 -6 5 -10 19 -10 14 0 28 5 31 10 3 6 -5 10 -19 10
-14 0 -28 -4 -31 -10z"/>
<path d="M4855 3391 c-3 -5 -2 -12 3 -15 13 -8 53 5 46 15 -7 12 -41 12 -49 0z"/>
<path d="M5180 3380 c-22 -13 -5 -23 27 -16 21 6 24 9 12 17 -18 11 -20 11
-39 -1z"/>
<path d="M6285 2790 c-3 -5 3 -10 14 -10 12 0 21 5 21 10 0 6 -6 10 -14 10 -8
0 -18 -4 -21 -10z"/>
<path d="M6775 2810 c-3 -5 -1 -10 4 -10 6 0 11 5 11 10 0 6 -2 10 -4 10 -3 0
-8 -4 -11 -10z"/>
<path d="M6520 2780 c0 -5 6 -10 14 -10 8 0 18 5 21 10 3 6 -3 10 -14 10 -12
0 -21 -4 -21 -10z"/>
<path d="M6990 2781 c0 -16 6 -21 26 -21 33 0 30 33 -4 38 -17 3 -22 -2 -22
-17z"/>
<path d="M7128 2793 c7 -3 16 -2 19 1 4 3 -2 6 -13 5 -11 0 -14 -3 -6 -6z"/>
<path d="M7354 2775 c-4 -9 -2 -21 4 -27 15 -15 44 -1 40 19 -4 23 -36 29 -44
8z"/>
<path d="M7942 3625 c0 -16 2 -22 5 -12 2 9 2 23 0 30 -3 6 -5 -1 -5 -18z"/>
<path d="M7931 3344 c0 -11 3 -14 6 -6 3 7 2 16 -1 19 -3 4 -6 -2 -5 -13z"/>
<path d="M7911 2864 c0 -11 3 -14 6 -6 3 7 2 16 -1 19 -3 4 -6 -2 -5 -13z"/>
<path d="M7911 2784 c0 -11 3 -14 6 -6 3 7 2 16 -1 19 -3 4 -6 -2 -5 -13z"/>
<path d="M7902 2590 c0 -14 2 -19 5 -12 2 6 2 18 0 25 -3 6 -5 1 -5 -13z"/>
<path d="M7901 2514 c0 -11 3 -14 6 -6 3 7 2 16 -1 19 -3 4 -6 -2 -5 -13z"/>
<path d="M7893 2265 c0 -33 2 -45 4 -27 2 18 2 45 0 60 -2 15 -4 0 -4 -33z"/>
<path d="M1400 1958 c25 -23 44 -47 42 -51 -1 -5 2 -6 6 -3 5 3 17 -3 26 -13
9 -10 36 -26 59 -36 23 -9 50 -21 59 -26 10 -5 84 -11 165 -14 81 -2 168 -7
193 -10 25 -2 207 -9 405 -15 198 -6 455 -15 570 -20 116 -5 372 -14 570 -20
431 -12 608 -18 695 -25 36 -3 241 -10 455 -15 215 -6 469 -14 565 -19 96 -6
330 -13 520 -17 190 -3 348 -8 351 -10 4 -2 94 -6 200 -10 107 -3 196 -7 199
-9 3 -2 154 -7 335 -10 182 -4 332 -9 335 -10 8 -5 417 -19 557 -19 109 -1
124 1 142 19 11 11 17 25 13 31 -8 13 169 6 -4082 154 -2333 81 -2196 75
-2249 94 -24 9 -48 13 -54 9 -6 -4 -7 -1 -2 7 6 10 4 12 -8 7 -9 -3 -17 -3
-19 1 -2 4 -23 22 -48 40 l-45 34 45 -44z"/>
<path d="M7882 1910 c0 -14 2 -19 5 -12 2 6 2 18 0 25 -3 6 -5 1 -5 -13z"/>
<path d="M4842 956 c2 -15 10 -21 28 -21 18 0 26 6 28 21 2 17 -2 21 -28 21
-26 0 -30 -4 -28 -21z"/>
<path d="M4260 955 c0 -8 8 -15 18 -16 14 0 14 -2 -3 -9 -16 -7 -17 -9 -3 -9
23 -1 33 18 13 25 -13 6 -14 8 -3 15 10 7 9 9 -4 9 -10 0 -18 -7 -18 -15z"/>
<path d="M4405 960 c3 -5 11 -10 16 -10 6 0 7 5 4 10 -3 6 -11 10 -16 10 -6 0
-7 -4 -4 -10z"/>
<path d="M4606 955 c4 -8 8 -15 10 -15 2 0 4 7 4 15 0 8 -4 15 -10 15 -5 0 -7
-7 -4 -15z"/>
<path d="M4691 954 c0 -11 3 -14 6 -6 3 7 2 16 -1 19 -3 4 -6 -2 -5 -13z"/>
<path d="M4717 957 c-3 -8 -1 -20 4 -28 6 -10 9 -7 9 14 0 29 -5 35 -13 14z"/>
<path d="M4565 950 c6 -10 4 -12 -8 -7 -11 4 -14 2 -10 -9 3 -7 11 -14 19 -14
17 0 19 26 2 36 -7 5 -8 3 -3 -6z"/>
<path d="M4315 936 c3 -11 0 -23 -7 -28 -9 -5 -10 -8 -1 -8 19 0 25 18 13 37
-11 17 -11 16 -5 -1z"/>
<path d="M4400 932 c0 -4 9 -8 19 -8 11 0 17 4 15 8 -3 4 -12 8 -20 8 -8 0
-14 -4 -14 -8z"/>
<path d="M4458 923 c7 -3 16 -2 19 1 4 3 -2 6 -13 5 -11 0 -14 -3 -6 -6z"/>
<path d="M4508 923 c7 -3 16 -2 19 1 4 3 -2 6 -13 5 -11 0 -14 -3 -6 -6z"/>
<path d="M4608 923 c7 -3 16 -2 19 1 4 3 -2 6 -13 5 -11 0 -14 -3 -6 -6z"/>
</g>
</svg>
