<?xml version="1.0" standalone="no"?>
<!DOCTYPE svg PUBLIC "-//W3C//DTD SVG 20010904//EN"
 "http://www.w3.org/TR/2001/REC-SVG-20010904/DTD/svg10.dtd">
<svg version="1.0" xmlns="http://www.w3.org/2000/svg"
 width="1354.000000pt" height="512.000000pt" viewBox="0 0 1354.000000 512.000000"
 preserveAspectRatio="xMidYMid meet">

<g transform="translate(0.000000,512.000000) scale(0.100000,-0.100000)"
fill="#000000" stroke="none">
<path d="M4810 4900 c0 -11 5 -20 10 -20 6 0 10 -33 10 -80 0 -47 -4 -80 -10
-80 -5 0 -10 -9 -10 -20 0 -18 7 -20 69 -20 83 0 114 19 114 69 0 18 -5 36
-12 41 -9 5 -10 10 -2 14 6 4 11 22 11 41 0 52 -36 75 -116 75 -57 0 -64 -2
-64 -20z m125 -56 c0 -13 -8 -20 -27 -22 -24 -3 -28 0 -28 21 0 13 3 26 6 30
12 11 49 -11 49 -29z m-3 -74 c5 0 8 -10 6 -22 -2 -17 -11 -24 -30 -26 -24 -3
-28 0 -28 21 0 29 9 39 28 32 7 -3 18 -5 24 -5z"/>
<path d="M5692 4910 c-30 -12 -47 -57 -33 -87 6 -13 32 -33 58 -46 52 -24 64
-52 23 -52 -16 0 -28 8 -35 23 -12 28 -55 31 -55 3 0 -25 55 -71 85 -71 41 0
75 19 86 47 16 42 -3 71 -61 95 -49 20 -63 41 -36 51 7 3 22 0 32 -7 11 -7 31
-15 47 -18 22 -4 27 -2 27 16 0 15 -11 26 -40 39 -44 19 -64 20 -98 7z"/>
<path d="M5843 4901 c-1 -11 5 -22 13 -25 21 -8 20 -156 -1 -156 -8 0 -15 -9
-15 -20 0 -17 7 -20 50 -20 43 0 50 3 50 20 0 11 -4 20 -10 20 -5 0 -10 16
-10 35 0 31 3 35 25 35 24 0 25 -3 25 -55 l0 -55 41 0 c37 0 40 2 33 23 -3 12
-11 24 -15 25 -5 2 -9 21 -9 43 0 46 -33 75 -75 65 -22 -6 -25 -3 -25 23 0 48
-9 61 -44 61 -24 0 -32 -5 -33 -19z"/>
<path d="M6360 4900 c0 -11 4 -20 9 -20 5 0 11 -9 14 -20 4 -17 0 -20 -33 -20
-52 0 -82 -26 -83 -73 -1 -26 6 -44 23 -62 21 -22 31 -25 97 -25 65 0 73 2 73
19 0 10 -7 21 -15 25 -12 4 -15 25 -15 101 l0 95 -35 0 c-28 0 -35 -4 -35 -20z
m15 -140 c0 -29 -4 -36 -22 -38 -30 -4 -53 39 -33 63 7 9 23 15 34 13 17 -2
21 -10 21 -38z"/>
<path d="M7098 4904 c-36 -19 -58 -63 -58 -115 0 -77 86 -133 151 -99 13 7 19
7 19 0 0 -5 11 -10 25 -10 24 0 25 2 25 65 l0 65 -55 0 c-48 0 -55 -2 -55 -20
0 -13 7 -20 20 -20 22 0 26 -20 8 -38 -31 -31 -88 9 -88 63 0 58 50 98 87 69
23 -17 73 -18 73 -1 0 20 -13 31 -51 45 -45 15 -67 15 -101 -4z"/>
<path d="M8298 4889 c-10 -6 -18 -19 -18 -29 0 -11 -7 -20 -15 -20 -8 0 -15
-9 -15 -19 0 -10 7 -21 15 -25 10 -4 15 -19 15 -49 0 -50 16 -70 52 -65 25 3
39 38 15 38 -8 0 -17 8 -19 18 -6 24 5 64 17 60 5 -2 11 5 13 15 2 12 -4 20
-17 24 -13 3 -21 15 -23 33 -3 24 -6 27 -20 19z"/>
<path d="M5042 4817 c-49 -52 -10 -137 61 -137 45 0 87 38 87 78 0 71 -99 111
-148 59z m86 -29 c28 -28 1 -75 -37 -63 -25 8 -34 31 -21 56 12 21 40 25 58 7z"/>
<path d="M5210 4825 c0 -9 12 -27 28 -40 l27 -25 -27 -25 c-41 -36 -37 -57 10
-53 31 2 37 7 37 26 0 30 19 29 23 -3 3 -21 8 -25 38 -25 42 0 45 21 7 54 -24
20 -25 26 -14 40 7 9 20 16 27 16 8 0 14 10 14 25 0 22 -4 25 -34 25 -30 0
-35 -3 -38 -27 -3 -27 -22 -35 -24 -10 0 6 -2 18 -2 25 -3 19 -72 16 -72 -3z"/>
<path d="M6087 4829 c-25 -15 -11 -29 28 -29 19 0 37 -4 40 -10 4 -6 -6 -10
-22 -10 -54 0 -86 -47 -54 -79 15 -15 34 -19 85 -20 58 0 66 2 66 19 0 10 -4
22 -10 25 -5 3 -10 23 -10 44 0 24 -7 44 -18 54 -21 19 -77 22 -105 6z m73
-94 c0 -9 -9 -15 -25 -15 -16 0 -25 6 -25 15 0 9 9 15 25 15 16 0 25 -6 25
-15z"/>
<path d="M6511 4823 c-56 -47 -18 -143 55 -143 76 0 114 95 58 139 -33 26 -84
27 -113 4z m89 -38 c15 -19 4 -52 -21 -60 -26 -8 -49 11 -49 40 0 34 47 48 70
20z"/>
<path d="M6670 4820 c0 -11 4 -20 9 -20 6 0 20 -27 32 -60 18 -50 26 -60 45
-60 20 0 26 8 35 45 11 42 13 44 25 27 7 -10 16 -31 20 -46 5 -22 11 -26 31
-24 20 2 30 14 45 53 10 28 26 55 34 61 26 20 6 44 -37 44 -32 0 -39 -4 -39
-19 0 -11 5 -21 11 -23 9 -3 8 -11 -1 -28 l-13 -25 -10 25 c-23 60 -31 71 -51
68 -13 -2 -24 -17 -34 -48 -14 -42 -16 -43 -25 -22 -8 17 -7 26 1 31 26 16 1
41 -39 41 -32 0 -39 -3 -39 -20z"/>
<path d="M7310 4813 c-17 -21 -20 -36 -16 -63 8 -50 40 -73 94 -67 50 5 55 8
46 31 -5 13 -14 15 -39 10 -27 -5 -35 -2 -44 15 -11 19 -8 20 46 23 52 3 58 5
55 23 -5 31 -40 55 -82 55 -30 0 -43 -6 -60 -27z m78 -20 c-10 -2 -26 -2 -35
0 -10 3 -2 5 17 5 19 0 27 -2 18 -5z"/>
<path d="M7480 4821 c0 -11 4 -21 8 -23 5 -1 12 -18 15 -36 5 -24 3 -34 -8
-38 -8 -4 -15 -15 -15 -25 0 -16 8 -19 50 -19 42 0 50 3 50 19 0 10 -7 21 -15
25 -21 8 -19 53 3 64 31 17 42 3 42 -54 l0 -54 40 0 c44 0 46 3 25 40 -8 14
-14 39 -15 56 0 45 -22 58 -106 61 -67 3 -74 1 -74 -16z"/>
<path d="M7737 4828 c-24 -19 -38 -64 -27 -92 18 -48 84 -71 131 -45 30 16 6
40 -32 32 -28 -5 -59 9 -59 28 0 5 27 9 60 9 53 0 60 2 60 19 0 45 -92 79
-133 49z m66 -35 c-7 -2 -21 -2 -30 0 -10 3 -4 5 12 5 17 0 24 -2 18 -5z"/>
<path d="M7890 4824 c0 -9 7 -22 15 -30 8 -9 15 -26 15 -40 0 -14 -7 -27 -15
-30 -8 -4 -15 -15 -15 -25 0 -16 8 -19 55 -19 58 0 67 10 35 37 -24 21 -26 56
-5 73 10 9 15 9 15 1 0 -6 11 -11 25 -11 21 0 25 5 25 29 l0 29 -75 0 c-60 1
-75 -2 -75 -14z"/>
<path d="M8087 4829 c-25 -15 -11 -29 28 -29 19 0 37 -4 40 -10 4 -6 -6 -10
-22 -10 -54 0 -86 -47 -54 -79 15 -15 34 -19 85 -20 58 0 66 2 66 19 0 10 -4
22 -10 25 -5 3 -10 23 -10 44 0 24 -7 44 -18 54 -21 19 -77 22 -105 6z m73
-94 c0 -9 -9 -15 -25 -15 -16 0 -25 6 -25 15 0 9 9 15 25 15 16 0 25 -6 25
-15z"/>
<path d="M8415 4815 c-52 -51 -15 -135 58 -135 46 0 76 26 83 72 5 30 2 41
-19 62 -35 35 -89 35 -122 1z m83 -27 c7 -7 12 -22 12 -34 0 -27 -34 -41 -55
-24 -15 13 -20 51 -8 63 10 11 38 8 51 -5z"/>
<path d="M8585 4822 c-3 -9 1 -19 10 -24 19 -11 21 -78 2 -78 -7 0 -13 -9 -14
-20 -2 -18 4 -20 53 -20 46 0 54 3 54 19 0 10 -7 21 -15 25 -9 3 -15 18 -15
35 0 28 2 29 35 24 34 -5 35 -4 35 25 l0 30 -69 0 c-55 0 -71 -3 -76 -16z"/>
<path d="M5470 4770 c0 -17 7 -20 51 -20 43 0 50 3 45 16 -3 9 -6 18 -6 20 0
2 -20 4 -45 4 -38 0 -45 -3 -45 -20z"/>
<path d="M208 4683 c6 -2 18 -2 25 0 6 3 1 5 -13 5 -14 0 -19 -2 -12 -5z"/>
<path d="M13298 4683 c7 -3 16 -2 19 1 4 3 -2 6 -13 5 -11 0 -14 -3 -6 -6z"/>
<path d="M335 4664 c511 -77 1824 -150 3315 -184 1243 -28 1633 -32 3120 -32
1487 0 1840 4 3105 32 1520 35 2883 111 3325 185 80 14 81 14 20 10 -36 -3
-130 -12 -210 -20 -501 -50 -1570 -96 -2875 -125 -1886 -41 -4872 -41 -6745 0
-1424 32 -2610 86 -3021 140 -111 14 -137 9 -34 -6z"/>
<path d="M20 2335 l0 -2005 1661 2 1661 3 29 33 29 32 0 1935 0 1935 -29 32
-29 33 -1661 3 -1661 2 0 -2005z m154 655 c-6 -29 -5 -30 30 -30 28 0 36 4 36
18 0 10 -5 23 -12 30 -9 9 -7 12 12 12 24 0 25 -2 25 -70 0 -66 -1 -70 -22
-70 -13 0 -23 5 -23 10 0 6 5 10 10 10 6 0 10 9 10 20 0 16 -7 20 -36 20 -35
0 -36 -1 -30 -30 5 -26 3 -30 -17 -30 -21 0 -22 4 -22 70 0 66 1 70 22 70 20
0 22 -4 17 -30z m346 20 c0 -5 -7 -10 -15 -10 -8 0 -15 5 -15 10 0 6 7 10 15
10 8 0 15 -4 15 -10z m530 -44 c0 -30 3 -61 6 -70 5 -12 0 -16 -17 -16 -23 0
-24 3 -24 70 0 60 3 70 18 70 14 0 17 -9 17 -54z m172 37 c23 -20 24 -80 1
-105 -39 -44 -113 -10 -113 52 0 61 68 93 112 53z m98 7 c0 -5 -7 -10 -15 -10
-8 0 -15 -4 -15 -10 0 -19 38 -10 43 10 3 14 14 20 31 20 14 0 26 -4 26 -10 0
-5 -9 -10 -20 -10 -22 0 -27 -15 -7 -24 10 -5 10 -7 0 -12 -15 -7 -18 -64 -3
-64 6 0 10 -4 10 -10 0 -5 -14 -10 -32 -10 -25 0 -29 3 -20 12 7 7 12 25 12
40 0 22 -5 28 -21 28 -19 0 -21 -4 -16 -40 5 -36 3 -40 -16 -40 -20 0 -22 5
-21 48 1 69 11 92 40 92 13 0 24 -4 24 -10z m-440 -14 c0 -8 6 -17 13 -20 10
-5 10 -7 0 -12 -18 -8 -16 -61 1 -67 9 -4 16 3 20 19 5 17 13 24 31 24 14 0
25 5 25 10 0 6 -11 10 -25 10 -14 0 -25 5 -25 10 0 15 60 12 64 -2 3 -7 7 -30
9 -50 l6 -37 -70 0 c-73 1 -72 0 -71 54 0 11 -5 24 -12 28 -8 6 -8 10 2 14 6
2 12 11 12 19 0 8 5 14 10 14 6 0 10 -6 10 -14z m720 -1 c0 -8 7 -15 15 -15 8
0 15 -4 15 -10 0 -5 -7 -10 -15 -10 -10 0 -15 -10 -15 -30 0 -20 5 -30 15 -30
8 0 15 -5 15 -11 0 -6 -10 -9 -22 -7 -19 2 -24 11 -29 48 -6 49 -2 80 12 80 5
0 9 -7 9 -15z m-1220 -40 c11 -20 10 -28 -4 -50 -18 -27 -54 -33 -74 -13 -15
15 -15 61 0 76 21 21 63 14 78 -13z m90 16 c0 -5 -9 -11 -20 -14 -14 -3 -20
-14 -20 -31 0 -14 5 -26 10 -26 6 0 10 -4 10 -10 0 -5 -11 -10 -24 -10 -23 0
-24 3 -19 35 3 21 1 41 -7 50 -11 13 -7 15 29 15 22 0 41 -4 41 -9z m50 -25
c0 -19 3 -41 6 -50 5 -12 0 -16 -17 -16 -22 0 -24 4 -24 50 0 41 3 50 18 50
13 0 17 -8 17 -34z m90 28 c0 -4 -10 -22 -22 -41 l-21 -35 21 7 c16 5 22 2 22
-9 0 -12 -10 -16 -35 -16 -41 0 -42 4 -15 48 l21 34 -21 -7 c-14 -5 -20 -2
-20 9 0 12 10 16 35 16 19 0 35 -3 35 -6z m99 -20 c22 -50 -40 -99 -77 -62
-15 15 -15 61 0 76 22 22 64 14 77 -14z m109 -16 c2 -21 7 -38 13 -38 5 0 9
-4 9 -10 0 -5 -11 -10 -24 -10 -22 0 -24 3 -19 40 5 36 3 40 -16 40 -17 0 -21
-6 -21 -30 0 -16 5 -30 10 -30 6 0 10 -4 10 -10 0 -5 -14 -10 -31 -10 -27 0
-30 2 -19 15 8 9 10 29 7 51 l-6 35 42 -3 c41 -3 42 -4 45 -40z m640 23 c3
-10 -2 -12 -22 -7 -15 4 -26 2 -26 -4 0 -5 6 -10 14 -10 20 0 37 -25 30 -44
-6 -16 -30 -21 -58 -10 -26 10 -18 27 9 20 14 -4 25 -2 25 4 0 5 -4 10 -8 10
-21 0 -43 27 -36 43 8 22 65 20 72 -2z m92 0 c15 -29 13 -31 -26 -31 -42 0
-43 -23 -1 -28 36 -4 35 -22 -1 -22 -35 0 -52 16 -52 50 0 14 5 31 12 38 18
18 56 14 68 -7z m1734 -293 c8 -13 8 -23 0 -35 -10 -17 -56 -18 -698 -21
l-686 -2 0 40 0 40 686 -2 c642 -3 688 -4 698 -20z m-3120 -315 c-3 -10 2 -36
9 -58 l14 -40 13 45 c8 25 13 51 11 58 -1 7 9 12 25 12 21 0 24 -3 15 -14 -6
-7 -20 -38 -30 -67 -23 -70 -43 -74 -66 -12 -9 26 -24 58 -31 71 -14 21 -13
22 15 22 23 0 28 -4 25 -17z m386 7 c0 -5 -7 -10 -15 -10 -8 0 -15 5 -15 10 0
6 7 10 15 10 8 0 15 -4 15 -10z m250 -48 c0 -32 5 -63 12 -70 9 -9 7 -12 -12
-12 -24 0 -25 2 -25 70 0 49 4 70 13 70 8 0 12 -18 12 -58z m174 42 c9 -8 16
-19 16 -24 0 -17 28 1 33 21 5 20 57 28 57 9 0 -5 -9 -10 -20 -10 -22 0 -27
-15 -7 -24 10 -5 10 -7 0 -12 -15 -7 -18 -64 -3 -64 6 0 10 -4 10 -10 0 -5
-13 -10 -30 -10 -16 0 -30 5 -30 10 0 6 5 10 10 10 6 0 10 14 10 30 0 40 -13
38 -29 -5 -21 -58 -98 -62 -121 -6 -21 51 9 101 60 101 16 0 36 -7 44 -16z
m166 6 c0 -5 -7 -10 -15 -10 -18 0 -20 -16 -2 -23 9 -4 9 -8 -2 -15 -10 -7
-12 -21 -8 -46 5 -32 3 -36 -16 -36 -20 0 -22 5 -21 48 1 69 11 92 40 92 13 0
24 -4 24 -10z m-660 -14 c0 -8 6 -17 13 -20 10 -5 10 -7 0 -12 -18 -8 -16 -61
2 -68 20 -7 29 16 21 54 -5 25 -2 30 14 30 16 0 20 -7 20 -34 0 -19 3 -41 6
-50 5 -13 -2 -16 -45 -16 -55 0 -50 -5 -66 74 -4 19 14 56 27 56 5 0 8 -6 8
-14z m880 0 c0 -8 6 -17 13 -20 10 -5 10 -7 0 -12 -19 -8 -16 -55 5 -70 15
-12 14 -13 -10 -14 -26 0 -28 3 -28 39 0 22 -6 42 -12 45 -10 5 -10 7 0 12 6
3 12 12 12 20 0 8 5 14 10 14 6 0 10 -6 10 -14z m-1022 -43 c3 -20 -1 -23 -28
-23 -40 0 -36 -23 6 -31 23 -5 25 -7 12 -13 -51 -23 -93 28 -61 74 20 29 67
24 71 -7z m92 17 c0 -5 -7 -10 -16 -10 -14 0 -16 -7 -11 -40 5 -36 3 -40 -16
-40 -20 0 -22 5 -22 50 0 50 0 50 33 50 17 0 32 -4 32 -10z m214 4 c28 -11 17
-24 -16 -22 -29 3 -33 0 -33 -22 0 -21 4 -25 29 -23 16 1 36 9 46 18 9 8 24
15 33 15 9 0 17 5 17 10 0 6 -12 10 -26 10 -14 0 -23 4 -19 10 9 14 55 12 59
-2 3 -7 7 -30 10 -50 l5 -38 -39 0 c-22 0 -40 5 -43 13 -4 10 -7 10 -18 0 -17
-16 -51 -17 -67 -1 -7 7 -12 24 -12 38 0 42 31 61 74 44z m564 -12 c3 -9 -4
-11 -25 -7 -27 6 -27 6 -9 -9 11 -9 24 -16 29 -16 4 0 7 -10 5 -22 -4 -29 -48
-37 -69 -12 -12 15 -11 16 21 10 33 -7 34 -6 16 9 -11 8 -23 15 -28 15 -10 0
-11 34 -1 44 11 11 56 2 61 -12z m90 6 c23 -23 13 -38 -23 -38 -27 0 -33 -3
-28 -16 3 -9 15 -14 29 -12 13 2 23 -1 24 -7 1 -15 -49 -18 -66 -4 -17 14 -19
60 -2 77 7 7 21 12 33 12 12 0 26 -5 33 -12z m1986 -300 c8 -13 8 -23 0 -35
-10 -17 -58 -18 -725 -21 l-714 -2 0 40 0 40 714 -2 c667 -3 715 -4 725 -20z
m-3053 -319 c7 -15 8 -24 0 -32 -7 -7 -7 -16 0 -29 18 -33 -6 -58 -54 -58
l-42 0 0 70 0 70 42 0 c33 0 45 -5 54 -21z m49 -39 c0 -33 4 -60 10 -60 6 0
10 -4 10 -10 0 -5 -14 -10 -31 -10 -27 0 -30 2 -19 15 8 10 11 35 8 70 -4 41
-1 55 9 55 9 0 13 -17 13 -60z m366 5 c0 -27 4 -58 8 -67 6 -13 4 -18 -7 -18
-8 0 -20 14 -26 30 -5 17 -15 30 -22 30 -7 0 -9 -10 -5 -30 5 -26 3 -30 -17
-30 -21 0 -22 4 -22 70 l0 71 45 -3 45 -3 1 -50z m214 -4 c0 -41 4 -60 14 -64
8 -3 17 -3 20 0 11 11 6 59 -6 71 -9 9 -7 12 10 12 18 0 22 -6 22 -34 0 -19 3
-41 6 -50 5 -14 -4 -16 -59 -16 -63 0 -97 14 -97 40 0 32 22 60 45 60 22 0 25
4 20 20 -5 14 -2 20 9 20 13 0 16 -12 16 -59z m60 49 c0 -5 -7 -10 -15 -10 -8
0 -15 5 -15 10 0 6 7 10 15 10 8 0 15 -4 15 -10z m-580 -70 c0 -30 4 -40 16
-40 14 0 16 7 11 40 -4 35 -2 40 14 40 15 0 19 -7 19 -34 0 -19 3 -41 6 -50 5
-13 -2 -16 -40 -16 -41 0 -46 3 -51 25 -3 14 -7 36 -10 50 -4 20 -1 25 15 25
17 0 20 -7 20 -40z m150 30 c0 -5 -7 -10 -16 -10 -14 0 -16 -7 -11 -40 5 -36
3 -40 -16 -40 -20 0 -22 5 -22 50 0 50 0 50 33 50 17 0 32 -4 32 -10z m254 -2
c3 -7 7 -30 10 -50 l5 -38 -40 0 c-26 0 -42 5 -45 15 -8 20 13 45 37 45 11 0
19 5 19 10 0 6 -11 10 -25 10 -14 0 -25 5 -25 10 0 15 60 12 64 -2z m228 -25
c2 -28 8 -39 22 -41 17 -4 18 1 13 37 -4 31 -2 41 9 41 9 0 14 -11 14 -34 0
-19 3 -41 6 -50 5 -13 -2 -16 -35 -16 -44 0 -46 2 -55 63 -3 27 -1 37 9 37 9
0 15 -14 17 -37z m166 19 c3 -9 -3 -11 -22 -6 -16 4 -26 2 -26 -5 0 -6 6 -11
14 -11 20 0 37 -25 30 -44 -6 -16 -30 -21 -58 -10 -26 10 -18 27 9 20 14 -4
25 -2 25 4 0 5 -4 10 -8 10 -21 0 -43 27 -36 43 8 21 65 20 72 -1z m2146 -284
c8 -13 8 -23 0 -35 -11 -17 -86 -18 -1325 -21 l-1314 -2 0 40 0 40 1314 -2
c1239 -3 1314 -4 1325 -20z m-3062 -318 c10 -15 24 -20 54 -20 44 0 54 -10 54
-54 0 -27 -18 -46 -43 -46 -14 0 -17 -5 -12 -20 5 -16 2 -20 -18 -20 -23 0
-24 3 -20 44 3 25 3 55 0 68 -8 28 -63 56 -80 39 -8 -8 -1 -15 25 -25 20 -9
38 -22 42 -31 10 -26 -12 -55 -41 -55 -26 0 -63 25 -63 42 0 14 28 9 34 -7 7
-18 46 -20 46 -2 0 7 -15 20 -32 28 -36 15 -47 41 -28 64 18 22 68 19 82 -5z
m498 -34 c0 -30 3 -61 6 -70 5 -13 -1 -16 -33 -16 -46 0 -63 14 -63 50 0 33
17 50 49 50 19 0 22 3 13 12 -18 18 -15 28 8 28 18 0 20 -7 20 -54z m160 33
c8 -15 8 -24 0 -34 -12 -14 -3 -65 11 -65 5 0 9 -4 9 -10 0 -5 -8 -10 -19 -10
-13 0 -20 9 -24 30 -4 19 -13 30 -23 30 -13 0 -15 -6 -10 -30 5 -27 3 -30 -19
-30 -14 0 -25 5 -25 10 0 6 5 10 10 10 6 0 10 23 10 50 0 28 -4 50 -10 50 -5
0 -10 5 -10 10 0 6 20 10 45 10 35 0 47 -5 55 -21z m220 -33 c0 -30 3 -61 6
-70 5 -13 -2 -16 -39 -16 -49 0 -57 9 -57 61 0 25 5 30 30 36 24 4 29 10 25
24 -5 14 -1 19 14 19 19 0 21 -6 21 -54z m50 44 c0 -5 -4 -10 -10 -10 -5 0
-10 5 -10 10 0 6 5 10 10 10 6 0 10 -4 10 -10z m-740 -40 c0 -5 -7 -10 -16
-10 -14 0 -16 -7 -11 -40 5 -36 3 -40 -16 -40 -20 0 -22 5 -22 50 0 50 0 50
33 50 17 0 32 -4 32 -10z m98 -17 c3 -20 -1 -23 -28 -23 -39 0 -36 -24 3 -28
36 -4 24 -22 -14 -22 -36 0 -51 31 -36 73 8 24 14 28 41 25 23 -2 32 -8 34
-25z m97 2 c3 -14 7 -37 10 -51 5 -24 4 -25 -37 -22 -38 3 -43 6 -43 28 0 18
6 26 23 28 27 4 29 22 2 22 -11 0 -20 5 -20 10 0 6 13 10 30 10 24 0 31 -5 35
-25z m369 13 c3 -7 7 -30 10 -50 l5 -38 -39 0 c-26 0 -40 5 -44 16 -8 21 11
44 35 44 11 0 19 5 19 10 0 6 -12 10 -26 10 -14 0 -23 4 -19 10 9 14 55 12 59
-2z m176 -28 c0 -22 5 -40 10 -40 6 0 10 -4 10 -10 0 -5 -10 -10 -22 -10 -21
0 -23 5 -23 50 0 33 4 50 13 50 7 0 12 -15 12 -40z m60 0 c0 -30 4 -40 16 -40
14 0 16 7 11 40 -4 35 -2 40 14 40 15 0 19 -7 19 -34 0 -19 3 -41 6 -50 5 -13
-2 -16 -35 -16 -35 0 -43 4 -51 25 -5 14 -7 32 -4 40 4 8 1 15 -5 15 -6 0 -11
5 -11 10 0 6 9 10 20 10 17 0 20 -7 20 -40z m158 22 c3 -9 -3 -11 -22 -6 -15
3 -26 2 -26 -4 0 -5 11 -13 25 -16 16 -4 25 -13 25 -27 0 -24 -21 -33 -55 -25
-38 10 -31 29 8 21 30 -6 31 -5 13 10 -11 8 -23 15 -28 15 -10 0 -11 34 -1 44
11 11 56 2 61 -12z m1916 -294 c8 -13 8 -23 0 -35 -10 -17 -59 -18 -758 -21
l-746 -2 0 40 0 40 746 -2 c699 -3 748 -4 758 -20z"/>
<path d="M1139 2973 c-14 -38 3 -73 36 -73 34 0 53 39 37 75 -16 36 -59 34
-73 -2z"/>
<path d="M940 2910 c0 -5 7 -10 15 -10 8 0 15 5 15 10 0 6 -7 10 -15 10 -8 0
-15 -4 -15 -10z"/>
<path d="M315 2940 c-8 -26 7 -45 30 -36 21 8 16 50 -7 54 -10 2 -19 -5 -23
-18z"/>
<path d="M645 2950 c-11 -17 5 -51 23 -48 23 4 23 52 0 56 -9 2 -19 -2 -23 -8z"/>
<path d="M1508 2953 c7 -3 16 -2 19 1 4 3 -2 6 -13 5 -11 0 -14 -3 -6 -6z"/>
<path d="M901 2336 c-31 -37 9 -103 47 -80 36 23 23 94 -18 94 -10 0 -23 -6
-29 -14z"/>
<path d="M288 2303 c6 -2 18 -2 25 0 6 3 1 5 -13 5 -14 0 -19 -2 -12 -5z"/>
<path d="M690 2260 c0 -5 7 -10 15 -10 8 0 15 5 15 10 0 6 -7 10 -15 10 -8 0
-15 -4 -15 -10z"/>
<path d="M1258 2303 c7 -3 16 -2 19 1 4 3 -2 6 -13 5 -11 0 -14 -3 -6 -6z"/>
<path d="M170 1679 c0 -14 5 -19 17 -17 26 5 29 38 4 38 -15 0 -21 -6 -21 -21z"/>
<path d="M170 1620 c0 -13 7 -20 20 -20 13 0 20 7 20 20 0 13 -7 20 -20 20
-13 0 -20 -7 -20 -20z"/>
<path d="M590 1680 c0 -15 5 -20 18 -18 9 2 17 10 17 18 0 8 -8 16 -17 18 -13
2 -18 -3 -18 -18z"/>
<path d="M802 1633 c2 -17 10 -29 21 -31 13 -3 17 3 17 27 0 25 -4 31 -21 31
-16 0 -20 -5 -17 -27z"/>
<path d="M700 1610 c0 -5 7 -10 15 -10 8 0 15 5 15 10 0 6 -7 10 -15 10 -8 0
-15 -4 -15 -10z"/>
<path d="M270 990 c0 -25 4 -31 18 -28 11 2 17 12 17 28 0 16 -6 26 -17 28
-14 3 -18 -3 -18 -28z"/>
<path d="M655 1010 c-11 -18 5 -50 26 -50 16 0 20 6 17 27 -3 28 -31 43 -43
23z"/>
<path d="M820 1039 c0 -14 5 -19 17 -17 26 5 29 38 4 38 -15 0 -21 -6 -21 -21z"/>
<path d="M1034 1005 c-9 -21 3 -45 21 -45 10 0 15 10 15 30 0 32 -26 43 -36
15z"/>
<path d="M458 1013 c6 -2 18 -2 25 0 6 3 1 5 -13 5 -14 0 -19 -2 -12 -5z"/>
<path d="M550 970 c0 -5 7 -10 15 -10 8 0 15 5 15 10 0 6 -7 10 -15 10 -8 0
-15 -4 -15 -10z"/>
<path d="M930 970 c0 -5 7 -10 15 -10 8 0 15 5 15 10 0 6 -7 10 -15 10 -8 0
-15 -4 -15 -10z"/>
<path d="M10190 4329 c-14 -5 -34 -22 -43 -38 -16 -27 -17 -157 -17 -1961 l0
-1932 34 -34 34 -34 1656 0 1656 0 0 2005 0 2005 -1647 -1 c-996 0 -1658 -4
-1673 -10z m89 -921 c-4 -23 13 -90 21 -81 3 4 12 27 19 51 17 60 40 53 61
-18 l16 -55 11 44 c6 24 9 50 6 57 -4 10 3 14 21 14 26 0 33 -10 19 -24 -5 -4
-15 -31 -23 -59 -21 -71 -47 -71 -68 -2 l-15 50 -15 -52 c-21 -75 -45 -73 -68
7 -9 33 -21 60 -25 60 -5 0 -9 5 -9 10 0 6 11 10 25 10 15 0 25 -5 24 -12z
m221 2 c0 -5 -4 -10 -10 -10 -5 0 -10 5 -10 10 0 6 5 10 10 10 6 0 10 -4 10
-10z m110 -44 c0 -30 3 -61 6 -70 5 -13 -1 -16 -33 -16 -46 0 -63 14 -63 50 0
32 17 50 47 50 13 0 23 5 23 10 0 6 -4 10 -10 10 -5 0 -10 5 -10 10 0 6 9 10
20 10 18 0 20 -7 20 -54z m130 34 c0 -15 7 -20 25 -20 19 0 26 -6 30 -27 16
-76 17 -73 -9 -73 -22 0 -24 3 -19 40 5 34 3 40 -12 40 -15 0 -17 -6 -12 -40
5 -36 3 -40 -16 -40 -20 0 -22 5 -22 70 0 60 3 70 18 70 10 0 17 -8 17 -20z
m-70 -4 c0 -8 6 -17 13 -20 10 -5 10 -7 0 -12 -15 -7 -18 -64 -3 -64 6 0 10
-4 10 -10 0 -5 -9 -10 -20 -10 -13 0 -21 8 -25 25 -3 14 -7 36 -10 50 -3 14
-1 25 5 25 5 0 10 7 10 15 0 8 5 15 10 15 6 0 10 -6 10 -14z m-170 -50 c0 -19
3 -41 6 -50 5 -12 0 -16 -20 -16 -14 0 -26 5 -26 10 0 6 5 10 10 10 14 0 12
54 -2 68 -9 9 -7 12 10 12 18 0 22 -6 22 -34z m2894 -278 c8 -13 8 -23 0 -35
-10 -17 -59 -18 -758 -21 l-746 -2 0 40 0 40 746 -2 c699 -3 748 -4 758 -20z
m-3110 -328 c-6 -29 -5 -30 31 -30 36 0 37 1 32 30 -6 27 -4 30 18 30 14 0 25
-4 25 -10 0 -5 -4 -10 -10 -10 -5 0 -10 -22 -10 -50 0 -27 5 -50 10 -50 6 0
10 -4 10 -10 0 -5 -11 -10 -25 -10 -22 0 -24 3 -18 30 5 29 4 30 -32 30 -36 0
-37 -1 -31 -30 5 -27 3 -30 -19 -30 -24 0 -34 14 -16 24 10 6 9 82 -2 92 -14
14 -7 24 18 24 22 0 24 -3 19 -30z m256 20 c0 -5 -4 -10 -9 -10 -6 0 -13 5
-16 10 -3 6 1 10 9 10 9 0 16 -4 16 -10z m170 -10 c0 -15 7 -20 25 -20 19 0
26 -6 30 -27 16 -76 17 -73 -9 -73 -22 0 -24 3 -19 40 5 34 3 40 -12 40 -15 0
-17 -6 -12 -40 5 -36 3 -40 -16 -40 -20 0 -22 5 -22 70 0 60 3 70 18 70 10 0
17 -8 17 -20z m110 -4 c0 -8 6 -17 13 -20 10 -5 10 -7 0 -12 -19 -8 -16 -55 5
-70 15 -12 14 -13 -10 -14 -28 0 -35 14 -28 59 1 8 -4 18 -12 23 -10 8 -10 11
0 15 6 2 12 11 12 19 0 8 5 14 10 14 6 0 10 -6 10 -14z m-342 -28 c23 -23 13
-38 -23 -38 -27 0 -33 -3 -28 -16 3 -9 15 -14 29 -12 13 2 23 -1 24 -7 1 -15
-49 -18 -66 -4 -17 14 -19 60 -2 77 7 7 21 12 33 12 12 0 26 -5 33 -12z m62
-22 c0 -19 3 -41 6 -50 5 -12 0 -16 -20 -16 -14 0 -26 5 -26 10 0 6 5 10 10
10 6 0 10 14 10 30 0 17 -4 30 -10 30 -5 0 -10 5 -10 10 0 6 9 10 20 10 16 0
20 -7 20 -34z m110 -25 c0 -39 -5 -63 -14 -70 -17 -14 -72 -11 -68 4 2 6 14 9
27 7 12 -2 26 2 30 7 4 7 -3 11 -17 11 -31 0 -48 18 -48 50 0 35 17 50 57 50
l33 0 0 -59z m2744 -243 c8 -13 8 -23 0 -35 -10 -17 -45 -18 -463 -21 l-451
-2 0 40 0 40 451 -2 c418 -3 453 -4 463 -20z m-3053 -314 c9 -11 10 -20 2 -32
-7 -12 -7 -22 1 -34 19 -30 -4 -53 -58 -56 -41 -3 -60 8 -38 22 12 7 14 83 2
91 -22 14 -8 25 34 25 28 0 48 -6 57 -16z m299 -38 c0 -30 3 -61 6 -70 5 -13
-1 -16 -33 -16 -46 0 -63 14 -63 50 0 32 17 50 47 50 13 0 23 5 23 10 0 6 -4
10 -10 10 -5 0 -10 5 -10 10 0 6 9 10 20 10 18 0 20 -7 20 -54z m350 33 c8
-15 8 -24 0 -34 -12 -14 -3 -65 11 -65 5 0 9 -4 9 -10 0 -5 -8 -10 -19 -10
-13 0 -20 9 -24 30 -4 19 -13 30 -23 30 -13 0 -15 -6 -10 -30 5 -27 3 -30 -19
-30 -14 0 -25 5 -25 10 0 6 4 10 9 10 5 0 9 23 8 50 0 28 -4 50 -9 50 -4 0 -8
5 -8 10 0 6 20 10 45 10 35 0 47 -5 55 -21z m210 -39 c0 -33 4 -60 10 -60 6 0
10 -4 10 -10 0 -5 -20 -10 -45 -10 -34 0 -47 5 -55 20 -17 32 -2 70 31 77 23
4 28 10 24 24 -4 13 -1 19 9 19 13 0 16 -12 16 -60z m60 50 c0 -5 -4 -10 -10
-10 -5 0 -10 5 -10 10 0 6 5 10 10 10 6 0 10 -4 10 -10z m-812 -55 c17 -36 -3
-75 -38 -75 -33 0 -50 17 -50 50 0 33 17 50 50 50 19 0 30 -8 38 -25z m92 16
c0 -5 -9 -11 -20 -14 -14 -3 -20 -14 -20 -31 0 -14 5 -26 10 -26 6 0 10 -4 10
-10 0 -5 -14 -10 -32 -10 -25 0 -29 3 -20 12 7 7 12 24 12 38 0 14 -5 31 -12
38 -9 9 -3 12 30 12 23 0 42 -4 42 -9z m198 -3 c23 -23 13 -38 -23 -38 -27 0
-33 -3 -28 -16 3 -9 15 -14 29 -12 13 2 23 -1 24 -7 1 -15 -49 -18 -66 -4 -17
14 -19 60 -2 77 7 7 21 12 33 12 12 0 26 -5 33 -12z m102 3 c0 -5 -9 -11 -20
-14 -14 -3 -20 -14 -20 -31 0 -14 5 -26 10 -26 6 0 10 -4 10 -10 0 -5 -13 -10
-30 -10 -16 0 -30 5 -30 10 0 6 5 10 10 10 6 0 10 14 10 30 0 17 -4 30 -10 30
-5 0 -10 5 -10 10 0 6 18 10 40 10 22 0 40 -4 40 -9z m244 -3 c3 -7 7 -30 10
-50 l5 -38 -39 0 c-26 0 -40 5 -44 16 -8 21 11 44 35 44 11 0 19 5 19 10 0 6
-12 10 -26 10 -14 0 -23 4 -19 10 9 14 55 12 59 -2z m176 -28 c0 -22 5 -40 10
-40 6 0 10 -4 10 -10 0 -5 -10 -10 -22 -10 -21 0 -23 5 -23 50 0 33 4 50 13
50 7 0 12 -15 12 -40z m60 0 c0 -30 4 -40 16 -40 14 0 16 7 11 40 -4 34 -2 40
13 40 15 0 19 -10 22 -50 l3 -50 -42 0 c-37 0 -43 3 -48 25 -3 14 -7 36 -10
50 -4 20 -1 25 15 25 17 0 20 -7 20 -40z m158 22 c3 -9 -4 -11 -25 -7 -27 6
-27 6 -9 -9 11 -9 23 -16 28 -16 14 0 8 -40 -7 -46 -20 -8 -65 4 -65 17 0 7
12 8 33 4 30 -6 31 -5 13 10 -11 8 -23 15 -28 15 -10 0 -11 34 -1 44 11 11 56
2 61 -12z m1916 -294 c8 -13 8 -23 0 -35 -11 -17 -81 -18 -1208 -21 l-1196 -2
0 40 0 40 1196 -2 c1127 -3 1197 -4 1208 -20z m6 -413 l0 -125 -1175 0 -1175
0 0 125 0 125 1175 0 1175 0 0 -125z m-3072 103 c16 -16 15 -28 -3 -28 -8 0
-15 5 -15 10 0 6 -9 10 -20 10 -31 0 -24 -25 12 -41 36 -15 47 -41 28 -64 -18
-22 -67 -19 -80 4 -13 26 -13 31 5 31 8 0 15 -7 15 -15 0 -8 9 -15 20 -15 31
0 24 30 -9 41 -34 12 -45 33 -31 60 12 22 59 26 78 7z m52 -7 c0 -14 8 -21 28
-23 23 -3 27 -8 30 -40 2 -21 7 -38 13 -38 5 0 9 -4 9 -10 0 -5 -11 -10 -24
-10 -22 0 -24 3 -19 41 5 36 4 41 -13 37 -20 -3 -34 -58 -15 -58 6 0 11 -4 11
-10 0 -5 -14 -10 -31 -10 -27 0 -30 2 -19 15 8 10 11 35 8 70 -4 41 -1 55 9
55 7 0 13 -9 13 -19z m270 -41 c0 -33 4 -60 10 -60 6 0 10 -4 10 -10 0 -5 -20
-10 -45 -10 -49 0 -65 17 -58 60 4 27 19 40 46 40 14 0 17 5 12 20 -5 14 -2
20 9 20 13 0 16 -12 16 -60z m-116 8 c3 -7 7 -30 10 -50 l5 -38 -39 0 c-26 0
-40 5 -44 16 -8 21 11 44 35 44 11 0 19 5 19 10 0 6 -11 10 -25 10 -14 0 -25
5 -25 10 0 15 60 12 64 -2z m224 0 c7 -7 12 -24 12 -38 0 -34 -17 -50 -52 -50
-36 0 -54 33 -39 73 8 21 17 27 39 27 15 0 33 -5 40 -12z m52 -14 c0 -14 4
-23 10 -19 6 3 10 15 10 26 0 31 26 22 38 -13 l10 -33 1 33 c1 25 5 32 21 32
20 0 27 -14 11 -24 -5 -3 -12 -22 -15 -41 -9 -44 -32 -46 -42 -2 l-7 32 -9
-32 c-12 -47 -31 -40 -49 17 -15 48 -15 50 3 50 13 0 18 -7 18 -26z m-466
-150 c31 -12 15 -24 -24 -18 -36 6 -40 4 -51 -20 -17 -36 2 -76 35 -76 14 0
29 8 35 17 5 10 13 14 17 10 15 -15 -13 -42 -45 -45 -44 -5 -71 21 -71 66 0
58 47 88 104 66z m176 -48 c0 -30 3 -61 6 -70 5 -12 0 -16 -17 -16 -23 0 -24
3 -24 70 0 60 3 70 18 70 14 0 17 -9 17 -54z m-58 -11 c17 -37 -3 -75 -40 -75
-35 0 -52 16 -52 50 0 34 17 50 52 50 21 0 32 -7 40 -25z m166 5 c28 -45 -23
-101 -67 -73 -20 13 -26 60 -10 79 17 21 62 17 77 -6z m92 11 c0 -5 -9 -11
-20 -14 -14 -3 -20 -14 -20 -31 0 -14 5 -26 10 -26 6 0 10 -4 10 -10 0 -5 -14
-10 -31 -10 -27 0 -30 2 -19 15 8 9 10 29 7 50 -6 34 -5 35 29 35 19 0 34 -4
34 -9z m2680 -426 l0 -125 -1175 0 -1175 0 0 125 0 125 1175 0 1175 0 0 -125z
m-3063 103 c12 -19 12 -101 1 -115 -12 -15 -98 -17 -98 -3 0 6 4 10 9 10 6 0
9 22 8 50 -1 27 -5 50 -9 50 -5 0 -8 5 -8 10 0 15 87 12 97 -2z m113 -52 c13
-35 1 -65 -28 -73 -33 -8 -56 8 -60 41 -4 36 14 56 49 56 22 0 32 -6 39 -24z
m50 9 c0 -8 5 -15 10 -15 6 0 10 7 10 15 0 8 9 15 20 15 23 0 27 -15 5 -24 -8
-3 -15 -15 -15 -26 0 -11 7 -23 15 -26 22 -9 18 -24 -5 -24 -11 0 -20 7 -20
15 0 8 -4 15 -10 15 -5 0 -10 -7 -10 -15 0 -8 -9 -15 -20 -15 -24 0 -25 6 -5
26 8 9 15 22 15 30 0 8 -7 17 -15 20 -22 9 -18 24 5 24 11 0 20 -7 20 -15z
m-156 -161 c31 -12 15 -24 -24 -18 -36 6 -40 4 -51 -20 -17 -36 2 -76 35 -76
13 0 26 7 30 15 7 19 26 20 26 0 0 -18 -31 -35 -64 -35 -49 0 -75 82 -39 122
16 18 57 24 87 12z m176 -48 c0 -30 3 -61 6 -70 5 -12 0 -16 -17 -16 -23 0
-24 3 -24 70 0 60 3 70 18 70 14 0 17 -9 17 -54z m-58 -11 c17 -38 -3 -75 -41
-75 -32 0 -51 22 -51 57 0 47 72 61 92 18z m167 -1 c10 -22 9 -31 -4 -50 -28
-43 -85 -26 -85 26 0 33 17 50 50 50 19 0 30 -8 39 -26z m91 17 c0 -5 -9 -11
-20 -14 -14 -3 -20 -14 -20 -31 0 -14 5 -26 10 -26 6 0 10 -4 10 -10 0 -5 -11
-10 -24 -10 -23 0 -24 3 -19 35 3 21 1 41 -7 50 -11 13 -7 15 29 15 22 0 41
-4 41 -9z"/>
<path d="M10546 3345 c-8 -23 4 -45 25 -45 14 0 19 7 19 30 0 23 -5 30 -19 30
-10 0 -21 -7 -25 -15z"/>
<path d="M10438 2703 c7 -3 16 -2 19 1 4 3 -2 6 -13 5 -11 0 -14 -3 -6 -6z"/>
<path d="M10586 2695 c-8 -23 4 -45 25 -45 14 0 19 7 19 30 0 23 -5 30 -19 30
-10 0 -21 -7 -25 -15z"/>
<path d="M10280 2089 c0 -25 33 -22 38 4 2 12 -3 17 -17 17 -15 0 -21 -6 -21
-21z"/>
<path d="M10280 2030 c0 -13 7 -20 20 -20 13 0 20 7 20 20 0 13 -7 20 -20 20
-13 0 -20 -7 -20 -20z"/>
<path d="M10575 2050 c-8 -25 1 -40 24 -40 13 0 17 8 17 30 0 35 -31 43 -41
10z"/>
<path d="M10930 2089 c0 -25 33 -22 38 4 2 12 -3 17 -17 17 -15 0 -21 -6 -21
-21z"/>
<path d="M11144 2055 c-9 -21 3 -45 21 -45 10 0 15 10 15 30 0 32 -26 43 -36
15z"/>
<path d="M10385 2050 c-8 -26 7 -45 30 -36 21 8 16 50 -7 54 -10 2 -19 -5 -23
-18z"/>
<path d="M10698 2063 c7 -3 16 -2 19 1 4 3 -2 6 -13 5 -11 0 -14 -3 -6 -6z"/>
<path d="M11040 2020 c0 -5 7 -10 15 -10 8 0 15 5 15 10 0 6 -7 10 -15 10 -8
0 -15 -4 -15 -10z"/>
<path d="M11170 1340 c0 -7 358 -10 1055 -10 697 0 1055 3 1055 10 0 7 -358
10 -1055 10 -697 0 -1055 -3 -1055 -10z"/>
<path d="M10594 1405 c-9 -21 3 -45 21 -45 10 0 15 10 15 30 0 32 -26 43 -36
15z"/>
<path d="M10490 1370 c0 -5 7 -10 15 -10 8 0 15 5 15 10 0 6 -7 10 -15 10 -8
0 -15 -4 -15 -10z"/>
<path d="M10702 1393 c3 -31 32 -43 41 -18 9 23 -3 45 -25 45 -15 0 -19 -6
-16 -27z"/>
<path d="M10396 1195 c-8 -23 4 -45 25 -45 14 0 19 7 19 30 0 23 -5 30 -19 30
-10 0 -21 -7 -25 -15z"/>
<path d="M10565 1200 c-11 -17 5 -51 23 -48 23 4 23 52 0 56 -9 2 -19 -2 -23
-8z"/>
<path d="M11170 770 c0 -7 358 -10 1055 -10 697 0 1055 3 1055 10 0 7 -358 10
-1055 10 -697 0 -1055 -3 -1055 -10z"/>
<path d="M10280 869 c0 -14 5 -19 17 -17 26 5 29 38 4 38 -15 0 -21 -6 -21
-21z"/>
<path d="M10280 810 c0 -13 7 -20 20 -20 13 0 20 7 20 20 0 13 -7 20 -20 20
-13 0 -20 -7 -20 -20z"/>
<path d="M10384 836 c-9 -24 4 -48 23 -44 12 2 18 12 18 28 0 29 -32 41 -41
16z"/>
<path d="M10396 625 c-8 -23 4 -45 25 -45 14 0 19 7 19 30 0 23 -5 30 -19 30
-10 0 -21 -7 -25 -15z"/>
<path d="M10565 630 c-11 -17 5 -51 23 -48 23 4 23 52 0 56 -9 2 -19 -2 -23
-8z"/>
<path d="M5885 3321 c-48 -22 -69 -44 -90 -94 -13 -31 -15 -114 -15 -589 0
-515 2 -556 19 -593 22 -48 44 -69 94 -90 32 -13 142 -15 874 -15 886 1 884 1
935 47 11 10 29 36 39 58 17 37 19 78 19 595 0 517 -2 558 -19 595 -10 22 -28
48 -39 58 -51 46 -49 46 -937 46 -794 1 -842 0 -880 -18z"/>
<path d="M7768 2667 c2 -378 -1 -584 -8 -608 -14 -51 -47 -88 -94 -110 -39
-18 -84 -19 -864 -19 -654 0 -823 -3 -820 -12 3 -7 24 -26 47 -43 l43 -30 846
-3 c571 -2 859 0 883 7 51 15 88 48 110 95 17 38 19 77 19 596 0 522 -2 557
-19 597 -18 39 -66 85 -95 89 -7 1 -22 5 -32 8 -18 6 -19 -11 -16 -567z"/>
<path d="M5018 708 c16 -16 16 -100 0 -116 -9 -9 -3 -12 29 -12 50 0 61 12 61
70 0 58 -11 70 -61 70 -32 0 -38 -3 -29 -12z m56 -4 c27 -10 20 -44 -9 -44
-18 0 -25 5 -25 18 0 29 9 36 34 26z m14 -78 c5 -24 -10 -38 -31 -30 -17 6
-23 35 -10 48 12 12 38 1 41 -18z"/>
<path d="M5392 708 c-23 -23 -13 -48 23 -64 39 -16 43 -25 19 -45 -14 -11 -19
-10 -34 9 -10 12 -21 18 -24 14 -11 -18 32 -45 59 -38 39 10 31 56 -13 75 -42
19 -35 37 13 34 36 -3 37 -2 19 12 -23 18 -46 19 -62 3z"/>
<path d="M5485 650 c0 -56 3 -70 15 -70 12 0 15 9 12 39 -3 28 0 40 12 44 21
8 30 -13 24 -53 -4 -24 -1 -30 13 -30 15 0 17 6 12 38 -7 46 -21 65 -45 59
-14 -4 -18 1 -18 19 0 13 -6 24 -12 24 -9 0 -13 -21 -13 -70z"/>
<path d="M5755 701 c4 -15 0 -20 -17 -23 -12 -2 -28 -14 -35 -28 -17 -35 3
-64 48 -67 l34 -2 -3 70 c-3 53 -7 69 -18 69 -11 0 -13 -6 -9 -19z m5 -70 c0
-35 -8 -43 -31 -30 -24 12 -25 45 -2 58 24 13 33 5 33 -28z"/>
<path d="M6156 705 c-19 -14 -19 -15 -2 -15 16 0 18 -7 14 -55 -4 -45 -2 -55
11 -55 13 0 15 11 13 70 -2 38 -7 70 -10 70 -4 0 -16 -7 -26 -15z"/>
<path d="M6220 710 c0 -5 13 -7 30 -3 17 3 30 3 30 0 0 -4 -11 -32 -25 -63
-29 -67 -29 -64 -10 -64 8 0 15 9 15 19 0 11 9 40 20 66 11 26 20 49 20 51 0
2 -18 4 -40 4 -22 0 -40 -4 -40 -10z"/>
<path d="M6575 706 c-18 -14 -18 -15 -2 -16 13 0 17 -9 17 -43 0 -24 -5 -48
-12 -55 -9 -9 -8 -12 8 -12 19 0 20 5 16 63 -5 81 -4 80 -27 63z"/>
<path d="M6649 704 c-16 -20 -15 -89 1 -109 16 -19 45 -19 64 1 18 18 21 76 6
105 -13 23 -53 25 -71 3z m66 -31 c12 -49 -14 -90 -47 -72 -24 13 -25 84 -1
97 23 14 40 5 48 -25z"/>
<path d="M7015 706 c-16 -12 -17 -15 -5 -16 12 0 16 -12 16 -45 1 -25 -3 -45
-8 -45 -4 0 -8 -4 -8 -10 0 -5 8 -10 18 -10 16 0 18 7 14 63 -5 81 -4 80 -27
63z"/>
<path d="M7091 707 c-21 -26 -24 -75 -7 -102 32 -49 86 -21 86 45 0 58 -49 93
-79 57z m63 -38 c10 -51 -13 -85 -46 -68 -24 13 -25 84 -1 97 25 14 40 5 47
-29z"/>
<path d="M7450 705 c-7 -9 -13 -33 -13 -55 0 -63 40 -91 77 -54 18 18 21 76 6
105 -13 23 -52 25 -70 4z m65 -32 c7 -28 -2 -64 -18 -75 -22 -13 -47 12 -47
47 0 61 51 83 65 28z"/>
<path d="M7830 705 c0 -8 -8 -15 -17 -16 -11 0 -13 -3 -5 -6 18 -7 15 -40 -5
-52 -10 -6 -12 -11 -5 -11 6 0 12 -10 13 -22 l0 -23 9 23 c12 28 45 31 37 2
-3 -11 -1 -20 4 -20 5 0 9 7 9 15 0 9 7 18 15 21 11 5 12 10 2 25 -9 15 -8 21
8 33 11 9 15 16 8 16 -6 0 -14 8 -16 18 -4 16 -5 16 -6 0 -1 -11 -9 -18 -22
-18 -15 0 -19 5 -15 15 3 8 1 15 -4 15 -6 0 -10 -7 -10 -15z m40 -50 c0 -19
-20 -29 -32 -17 -8 8 -7 16 2 26 14 17 30 12 30 -9z"/>
<path d="M7930 701 c-12 -24 -2 -28 14 -6 9 13 14 14 29 3 17 -13 16 -16 -11
-53 -47 -67 -47 -65 -1 -65 23 0 39 3 35 8 -4 4 -12 8 -17 8 -5 1 -14 2 -19 3
-6 0 2 19 17 42 21 31 24 45 16 57 -15 25 -50 27 -63 3z"/>
<path d="M8130 700 c-7 -14 -7 -20 0 -20 5 0 10 5 10 10 0 6 9 10 20 10 27 0
26 -26 -3 -64 -42 -56 -42 -56 5 -55 41 1 42 1 15 11 l-28 10 26 33 c28 37 31
55 13 73 -18 18 -46 14 -58 -8z"/>
<path d="M8240 705 c-7 -8 -9 -22 -6 -31 4 -9 1 -22 -5 -30 -15 -18 -2 -52 23
-60 30 -9 62 29 48 56 -6 10 -7 26 -4 34 7 18 -12 46 -31 46 -7 0 -18 -7 -25
-15z m39 -31 c-12 -15 -39 -8 -39 11 0 18 22 25 38 12 9 -7 9 -13 1 -23z m9
-52 c3 -18 -1 -22 -22 -22 -19 0 -26 5 -26 18 0 39 43 43 48 4z"/>
<path d="M8342 708 c-7 -7 -12 -17 -12 -22 0 -6 5 -5 12 2 16 16 48 15 48 -1
0 -8 -13 -33 -30 -55 -16 -23 -30 -44 -30 -47 0 -3 19 -4 43 -4 41 2 42 2 8 8
l-34 6 25 30 c32 38 38 56 26 78 -10 20 -39 22 -56 5z"/>
<path d="M8451 711 c-9 -6 -12 -18 -8 -32 3 -13 1 -29 -4 -35 -15 -18 -2 -52
23 -60 30 -9 62 29 48 56 -6 10 -7 26 -4 34 7 18 -12 46 -30 46 -6 0 -17 -4
-25 -9z m38 -37 c-12 -15 -39 -8 -39 11 0 18 22 25 38 12 9 -7 9 -13 1 -23z
m9 -48 c4 -21 -14 -37 -35 -29 -14 5 -18 35 -6 47 12 12 38 1 41 -18z"/>
<path d="M5146 664 c-30 -30 -14 -84 25 -84 23 0 49 27 49 50 0 22 -25 50 -45
50 -7 0 -21 -7 -29 -16z m54 -34 c0 -15 -7 -30 -15 -34 -14 -5 -45 18 -45 34
0 16 31 39 45 34 8 -4 15 -19 15 -34z"/>
<path d="M5250 655 c22 -23 22 -26 7 -43 -19 -21 -22 -32 -8 -32 5 0 11 9 14
21 6 23 27 17 27 -7 0 -8 7 -14 15 -14 14 0 13 3 -1 25 -15 23 -15 27 0 50 13
20 14 25 2 25 -7 0 -17 -10 -20 -22 l-7 -23 -11 23 c-6 12 -18 22 -26 22 -12
0 -10 -6 8 -25z"/>
<path d="M5605 670 c-4 -6 3 -9 16 -7 29 3 36 -21 7 -25 -17 -2 -23 -10 -23
-28 0 -22 5 -25 35 -27 36 -2 36 -2 32 35 -3 20 -9 43 -14 50 -12 14 -44 16
-53 2z m41 -51 c10 -17 -13 -36 -27 -22 -12 12 -4 33 11 33 5 0 12 -5 16 -11z"/>
<path d="M5822 668 c-17 -17 -15 -63 3 -78 21 -17 47 -9 64 22 14 24 14 28 -3
47 -21 24 -46 27 -64 9z m58 -37 c0 -27 -20 -42 -42 -30 -23 12 -23 45 -1 58
21 11 43 -3 43 -28z"/>
<path d="M5910 677 c0 -15 34 -97 40 -97 4 0 11 17 15 38 8 39 9 38 30 -23 7
-18 9 -17 20 10 21 50 27 75 17 75 -4 0 -13 -17 -19 -37 l-10 -38 -8 33 c-10
44 -24 50 -31 12 -9 -43 -21 -46 -28 -5 -4 19 -11 35 -16 35 -6 0 -10 -1 -10
-3z"/>
<path d="M6060 670 c0 -5 5 -10 10 -10 6 0 10 5 10 10 0 6 -4 10 -10 10 -5 0
-10 -4 -10 -10z"/>
<path d="M6316 669 c11 -18 13 -92 3 -111 -8 -15 -6 -18 11 -18 17 0 20 4 15
20 -5 16 -2 20 14 20 44 0 63 83 22 93 -36 9 -72 7 -65 -4z m72 -32 c5 -23
-15 -47 -34 -40 -8 3 -14 18 -14 35 0 25 4 29 22 26 13 -2 24 -11 26 -21z"/>
<path d="M6434 661 c18 -20 15 -61 -5 -61 -5 0 -9 -4 -9 -10 0 -19 28 -10 33
11 6 23 27 17 27 -7 0 -8 7 -14 16 -14 13 0 12 5 -5 27 l-21 26 22 24 c18 19
19 23 5 23 -9 0 -17 -6 -17 -14 0 -24 -21 -30 -27 -7 -3 12 -12 21 -21 21 -13
0 -13 -3 2 -19z"/>
<path d="M6755 609 c0 -57 3 -69 17 -69 11 0 15 6 11 20 -4 15 0 20 14 20 27
0 43 19 43 51 0 33 -16 46 -55 47 l-30 1 0 -70z m75 21 c0 -22 -25 -44 -40
-35 -14 9 -13 62 3 68 17 6 37 -12 37 -33z"/>
<path d="M6860 674 c0 -4 8 -13 18 -20 16 -12 16 -15 0 -44 -13 -23 -14 -30
-4 -30 8 0 17 10 20 23 l7 22 11 -22 c6 -13 15 -23 20 -23 13 0 10 12 -9 32
-15 17 -15 19 0 36 21 23 21 32 1 32 -8 0 -13 -4 -10 -8 2 -4 0 -14 -5 -22 -7
-12 -10 -11 -15 8 -6 19 -34 33 -34 16z"/>
<path d="M7195 609 c0 -62 2 -69 20 -69 15 0 16 3 7 12 -18 18 -14 28 11 28
30 0 47 18 47 51 0 33 -17 48 -55 47 l-30 -1 0 -68z m70 41 c12 -20 -6 -50
-30 -50 -20 0 -23 4 -21 28 2 15 4 28 5 30 3 7 41 1 46 -8z"/>
<path d="M7300 673 c0 -3 7 -15 17 -25 15 -17 15 -19 0 -36 -19 -20 -22 -32
-9 -32 5 0 14 10 20 23 l11 22 7 -22 c3 -13 13 -23 20 -23 18 0 18 9 -1 30
-15 17 -11 50 6 50 5 0 9 5 9 10 0 20 -28 10 -34 -12 l-7 -23 -11 23 c-10 20
-28 30 -28 15z"/>
<path d="M7555 609 c0 -57 3 -69 17 -69 11 0 15 6 11 20 -4 15 0 20 14 20 27
0 43 19 43 51 0 33 -16 46 -55 47 l-30 1 0 -70z m73 24 c2 -13 -4 -26 -16 -32
-24 -13 -32 -5 -32 31 0 25 4 29 23 26 14 -2 23 -11 25 -25z"/>
<path d="M7660 673 c0 -3 7 -15 17 -25 15 -17 15 -19 0 -36 -19 -20 -22 -32
-9 -32 5 0 14 10 20 23 l11 22 7 -22 c3 -13 13 -23 20 -23 18 0 18 9 -3 32
-15 17 -15 19 0 36 21 23 21 32 3 32 -7 0 -17 -10 -20 -22 l-7 -23 -11 23
c-10 20 -28 30 -28 15z"/>
<path d="M8032 668 c-7 -7 -12 -24 -12 -38 0 -14 5 -31 12 -38 15 -15 45 -16
54 -1 4 7 1 10 -7 7 -17 -6 -49 9 -49 22 0 6 16 10 35 10 38 0 40 2 25 31 -12
21 -40 25 -58 7z m48 -16 c0 -4 -9 -8 -20 -9 -22 -2 -27 13 -7 20 14 5 27 -1
27 -11z"/>
<path d="M6060 590 c0 -5 5 -10 10 -10 6 0 10 5 10 10 0 6 -4 10 -10 10 -5 0
-10 -4 -10 -10z"/>
<path d="M6523 264 c9 -3 17 -9 17 -14 0 -5 -8 -11 -17 -13 -15 -4 -15 -5 2
-7 l20 -1 -20 -10 c-20 -9 -20 -9 0 -6 28 3 28 51 0 54 -16 1 -16 1 -2 -3z"/>
<path d="M6845 260 c3 -5 8 -10 11 -10 2 0 4 5 4 10 0 6 -5 10 -11 10 -5 0 -7
-4 -4 -10z"/>
<path d="M6890 259 c0 -5 5 -7 10 -4 6 3 10 8 10 11 0 2 -4 4 -10 4 -5 0 -10
-5 -10 -11z"/>
<path d="M6960 250 c0 -28 27 -45 45 -30 26 22 18 47 -15 47 -22 0 -30 -5 -30
-17z"/>
<path d="M6755 240 c-3 -5 1 -10 10 -10 9 0 13 5 10 10 -3 6 -8 10 -10 10 -2
0 -7 -4 -10 -10z"/>
<path d="M6638 233 c6 -2 18 -2 25 0 6 3 1 5 -13 5 -14 0 -19 -2 -12 -5z"/>
</g>
</svg>
