<?xml version="1.0" standalone="no"?>
<!DOCTYPE svg PUBLIC "-//W3C//DTD SVG 20010904//EN"
 "http://www.w3.org/TR/2001/REC-SVG-20010904/DTD/svg10.dtd">
<svg version="1.0" xmlns="http://www.w3.org/2000/svg"
 width="1308.000000pt" height="878.000000pt" viewBox="0 0 1308.000000 878.000000"
 preserveAspectRatio="xMidYMid meet">

<g transform="translate(0.000000,878.000000) scale(0.100000,-0.100000)"
fill="#000000" stroke="none">
<path d="M1768 8583 c7 -3 16 -2 19 1 4 3 -2 6 -13 5 -11 0 -14 -3 -6 -6z"/>
<path d="M1158 8563 c7 -3 16 -2 19 1 4 3 -2 6 -13 5 -11 0 -14 -3 -6 -6z"/>
<path d="M936 8527 c3 -10 9 -15 12 -12 3 3 0 11 -7 18 -10 9 -11 8 -5 -6z"/>
<path d="M10910 8519 c6 -10 16 -19 23 -18 9 0 9 2 0 6 -20 7 -15 23 5 16 9
-3 14 -3 11 1 -4 4 -16 8 -28 11 -18 3 -20 1 -11 -16z"/>
<path d="M10752 8514 c-7 -8 -8 -14 -3 -14 10 0 25 19 20 25 -2 1 -10 -3 -17
-11z"/>
<path d="M11570 8520 c0 -5 5 -10 11 -10 5 0 7 5 4 10 -3 6 -8 10 -11 10 -2 0
-4 -4 -4 -10z"/>
<path d="M1225 8510 c-3 -5 -1 -10 4 -10 6 0 11 5 11 10 0 6 -2 10 -4 10 -3 0
-8 -4 -11 -10z"/>
<path d="M10210 8509 c0 -5 5 -7 10 -4 6 3 10 8 10 11 0 2 -4 4 -10 4 -5 0
-10 -5 -10 -11z"/>
<path d="M638 8503 c7 -3 16 -2 19 1 4 3 -2 6 -13 5 -11 0 -14 -3 -6 -6z"/>
<path d="M1893 8495 c0 -8 4 -12 9 -9 5 3 6 10 3 15 -9 13 -12 11 -12 -6z"/>
<path d="M10182 8485 c0 -16 2 -22 5 -12 2 9 2 23 0 30 -3 6 -5 -1 -5 -18z"/>
<path d="M1477 8477 c-3 -8 1 -14 8 -14 7 0 11 6 8 14 -3 7 -6 13 -8 13 -2 0
-5 -6 -8 -13z"/>
<path d="M1576 8481 c-4 -5 3 -7 14 -4 23 6 26 13 6 13 -8 0 -17 -4 -20 -9z"/>
<path d="M1975 8480 c-3 -6 1 -7 9 -4 18 7 21 14 7 14 -6 0 -13 -4 -16 -10z"/>
<path d="M1001 8464 c0 -11 3 -14 6 -6 3 7 2 16 -1 19 -3 4 -6 -2 -5 -13z"/>
<path d="M516 8444 c-23 -23 -20 -30 4 -9 11 10 20 20 20 22 0 7 -9 2 -24 -13z"/>
<path d="M10166 8425 c-9 -26 -7 -32 5 -12 6 10 9 21 6 23 -2 3 -7 -2 -11 -11z"/>
<path d="M10198 8420 c-26 -24 -22 -35 4 -10 12 11 20 22 17 24 -2 2 -12 -4
-21 -14z"/>
<path d="M520 8411 c0 -6 4 -13 10 -16 6 -3 7 1 4 9 -7 18 -14 21 -14 7z"/>
<path d="M1340 8411 c0 -10 19 -25 25 -20 1 2 -3 10 -11 17 -8 7 -14 8 -14 3z"/>
<path d="M1630 8405 c-11 -13 -10 -14 4 -9 9 3 16 10 16 15 0 13 -6 11 -20 -6z"/>
<path d="M1940 8400 c0 -6 4 -9 9 -6 5 4 12 1 14 -4 3 -6 4 -5 3 2 -3 15 -26
23 -26 8z"/>
<path d="M1720 8385 c0 -8 4 -15 10 -15 5 0 7 7 4 15 -4 8 -8 15 -10 15 -2 0
-4 -7 -4 -15z"/>
<path d="M1015 8369 c-11 -17 1 -21 15 -4 8 9 8 15 2 15 -6 0 -14 -5 -17 -11z"/>
<path d="M1526 8367 c3 -10 9 -15 12 -12 3 3 0 11 -7 18 -10 9 -11 8 -5 -6z"/>
<path d="M1935 8369 c-4 -6 -5 -12 -2 -15 2 -3 7 2 10 11 7 17 1 20 -8 4z"/>
<path d="M10740 8371 c0 -5 7 -12 16 -15 14 -5 15 -4 4 9 -14 17 -20 19 -20 6z"/>
<path d="M11460 8370 c-9 -6 -10 -10 -3 -10 6 0 15 5 18 10 8 12 4 12 -15 0z"/>
<path d="M10361 8344 c0 -11 3 -14 6 -6 3 7 2 16 -1 19 -3 4 -6 -2 -5 -13z"/>
<path d="M480 8346 c0 -2 7 -7 16 -10 8 -3 12 -2 9 4 -6 10 -25 14 -25 6z"/>
<path d="M10758 8333 c7 -3 16 -2 19 1 4 3 -2 6 -13 5 -11 0 -14 -3 -6 -6z"/>
<path d="M10908 8333 c7 -3 16 -2 19 1 4 3 -2 6 -13 5 -11 0 -14 -3 -6 -6z"/>
<path d="M11461 8314 c0 -11 3 -14 6 -6 3 7 2 16 -1 19 -3 4 -6 -2 -5 -13z"/>
<path d="M10750 8316 c0 -2 7 -6 15 -10 8 -3 15 -1 15 4 0 6 -7 10 -15 10 -8
0 -15 -2 -15 -4z"/>
<path d="M1950 8301 c0 -10 19 -25 25 -20 1 2 -3 10 -11 17 -8 7 -14 8 -14 3z"/>
<path d="M1237 8289 c7 -7 15 -10 18 -7 3 3 -2 9 -12 12 -14 6 -15 5 -6 -5z"/>
<path d="M1815 8290 c-3 -5 -1 -10 4 -10 6 0 11 5 11 10 0 6 -2 10 -4 10 -3 0
-8 -4 -11 -10z"/>
<path d="M1850 8290 c0 -5 5 -10 11 -10 5 0 7 5 4 10 -3 6 -8 10 -11 10 -2 0
-4 -4 -4 -10z"/>
<path d="M2125 8289 c-4 -6 -5 -12 -2 -15 2 -3 7 2 10 11 7 17 1 20 -8 4z"/>
<path d="M1130 8281 c0 -7 -4 -9 -10 -6 -5 3 -10 1 -10 -4 0 -6 4 -11 9 -11
13 0 25 20 17 27 -3 4 -6 1 -6 -6z"/>
<path d="M325 8260 c3 -5 8 -10 11 -10 2 0 4 5 4 10 0 6 -5 10 -11 10 -5 0 -7
-4 -4 -10z"/>
<path d="M480 8251 c0 -10 19 -25 25 -20 1 2 -3 10 -11 17 -8 7 -14 8 -14 3z"/>
<path d="M542 8244 c-7 -8 -8 -14 -3 -14 10 0 25 19 20 25 -2 1 -10 -3 -17
-11z"/>
<path d="M610 8256 c0 -2 7 -7 16 -10 8 -3 12 -2 9 4 -6 10 -25 14 -25 6z"/>
<path d="M1278 8253 c7 -3 16 -2 19 1 4 3 -2 6 -13 5 -11 0 -14 -3 -6 -6z"/>
<path d="M1980 8256 c0 -2 7 -7 16 -10 8 -3 12 -2 9 4 -6 10 -25 14 -25 6z"/>
<path d="M588 8238 c5 -5 16 -8 23 -6 8 3 3 7 -10 11 -17 4 -21 3 -13 -5z"/>
<path d="M688 8243 c6 -2 18 -2 25 0 6 3 1 5 -13 5 -14 0 -19 -2 -12 -5z"/>
<path d="M1958 8233 c7 -3 16 -2 19 1 4 3 -2 6 -13 5 -11 0 -14 -3 -6 -6z"/>
<path d="M6450 7013 c-83 -42 -117 -200 -66 -308 27 -59 67 -89 117 -89 63 -1
112 40 134 112 6 19 3 22 -24 22 -23 0 -31 -5 -31 -18 0 -34 -38 -63 -77 -60
-59 5 -78 41 -78 148 0 74 3 93 21 117 17 22 29 28 60 28 35 0 41 -4 57 -37
12 -24 26 -38 37 -38 28 0 32 15 17 52 -32 73 -103 103 -167 71z"/>
<path d="M7240 7023 c-68 -22 -107 -79 -116 -169 -15 -147 74 -266 178 -235
41 13 82 58 93 104 6 24 4 27 -18 27 -19 0 -30 -9 -44 -37 -15 -31 -24 -39
-51 -41 -18 -2 -44 3 -57 12 -48 32 -57 184 -15 254 26 43 78 45 109 6 12 -15
21 -33 21 -40 0 -8 11 -14 25 -14 33 0 33 28 1 79 -30 47 -81 69 -126 54z"/>
<path d="M3900 6996 c0 -23 4 -25 53 -28 l52 -3 3 -172 2 -173 30 0 30 0 2
173 3 172 53 3 c48 3 52 5 52 28 l0 24 -140 0 -140 0 0 -24z"/>
<path d="M4210 6820 l0 -200 30 0 30 0 0 200 0 200 -30 0 -30 0 0 -200z"/>
<path d="M4330 6820 l0 -200 121 0 120 0 -3 28 c-3 27 -3 27 -90 30 l-88 3 0
59 0 60 55 0 c54 0 55 0 55 30 0 30 0 30 -56 30 l-55 0 3 53 3 52 83 3 c80 3
82 3 82 27 l0 25 -115 0 -115 0 0 -200z"/>
<path d="M4610 6821 l0 -201 30 0 30 0 0 140 c0 79 4 140 9 140 5 0 42 -63 83
-140 61 -117 77 -140 96 -140 l22 0 0 200 0 200 -30 0 -29 0 -3 -117 -3 -117
-61 115 -61 114 -41 3 -42 3 0 -200z"/>
<path d="M4950 6820 l0 -203 84 5 c73 4 89 8 121 32 48 37 65 80 65 165 0 144
-45 192 -187 199 l-83 5 0 -203z m145 136 c45 -19 65 -61 65 -137 0 -96 -45
-149 -126 -149 l-24 0 0 150 0 150 25 0 c14 0 41 -6 60 -14z"/>
<path d="M5307 6888 c-20 -73 -46 -163 -56 -200 l-20 -68 33 0 c31 0 33 2 50
61 l16 60 52 -3 52 -3 16 -55 c14 -48 19 -55 43 -58 36 -4 36 -2 -26 213 l-53
180 -35 3 -35 3 -37 -133z m91 -27 c19 -61 16 -71 -18 -71 -16 0 -30 4 -30 10
0 20 24 100 30 100 4 0 12 -17 18 -39z"/>
<path d="M5680 6820 l0 -200 115 0 115 0 0 30 0 30 -79 0 c-63 0 -80 3 -85 16
-3 9 -6 85 -6 170 l0 154 -30 0 -30 0 0 -200z"/>
<path d="M5980 6833 c-29 -103 -55 -194 -58 -201 -3 -10 4 -13 29 -10 31 3 34
7 49 58 l16 55 54 0 54 0 15 -57 c14 -53 17 -58 43 -58 16 0 28 5 28 13 0 6
-25 95 -54 197 l-53 185 -35 3 -35 3 -53 -188z m109 23 c16 -63 15 -66 -19
-66 -16 0 -30 5 -30 11 0 23 23 99 30 99 4 0 13 -20 19 -44z"/>
<path d="M6680 6820 l0 -200 30 0 29 0 3 88 3 87 73 3 72 3 0 -91 0 -90 30 0
30 0 0 200 0 200 -30 0 -30 0 0 -80 0 -81 -72 3 -73 3 -3 78 -3 77 -29 0 -30
0 0 -200z"/>
<path d="M7020 6820 l0 -200 30 0 30 0 0 200 0 200 -30 0 -30 0 0 -200z"/>
<path d="M7450 6820 l0 -200 30 0 30 0 0 90 0 90 75 0 75 0 0 -90 0 -90 30 0
30 0 0 200 0 200 -30 0 -30 0 0 -80 0 -80 -75 0 -75 0 0 80 0 80 -30 0 -30 0
0 -200z"/>
<path d="M7827 6888 c-20 -73 -45 -163 -56 -200 l-20 -68 33 0 c31 0 33 2 50
61 l16 60 52 -3 52 -3 16 -55 c14 -48 19 -55 43 -58 36 -4 36 -2 -26 213 l-53
180 -35 3 -35 3 -37 -133z m97 -50 l14 -48 -35 0 c-33 0 -35 2 -30 28 8 40 29
89 33 77 2 -5 10 -31 18 -57z"/>
<path d="M6533 5390 c0 -36 2 -50 4 -32 2 17 2 47 0 65 -2 17 -4 3 -4 -33z"/>
<path d="M6072 5363 c1 -43 3 -62 5 -42 4 31 8 37 29 37 14 0 30 4 35 9 5 5
-5 7 -27 5 l-36 -4 4 36 c2 20 0 36 -4 36 -4 0 -7 -35 -6 -77z"/>
<path d="M6119 5431 c13 -3 28 -15 32 -26 5 -14 8 -15 8 -4 1 21 -19 39 -43
38 -18 -1 -18 -2 3 -8z"/>
<path d="M6871 5418 c0 -9 -6 -18 -13 -20 -23 -8 17 -15 42 -7 23 6 23 7 3 8
-12 1 -24 9 -26 19 -4 15 -5 15 -6 0z"/>
<path d="M6370 5408 c0 -2 9 -11 20 -21 11 -9 20 -13 20 -7 0 5 -9 14 -20 20
-11 6 -20 9 -20 8z"/>
<path d="M6730 5390 c-11 -11 -20 -31 -20 -43 0 -26 28 -57 51 -57 8 0 3 6
-11 13 -34 17 -38 59 -9 86 13 12 20 21 16 21 -4 0 -16 -9 -27 -20z"/>
<path d="M7410 5401 c0 -5 6 -11 14 -14 9 -4 16 -24 19 -54 l3 -48 2 50 c2 41
-2 53 -18 63 -11 7 -20 8 -20 3z"/>
<path d="M7514 5394 c-18 -15 -18 -15 2 -5 12 6 25 7 29 3 5 -4 5 -1 1 6 -9
15 -8 15 -32 -4z"/>
<path d="M6214 5378 c0 -15 3 -15 16 -4 8 8 24 16 35 19 11 3 4 4 -15 3 -26
-1 -36 -5 -36 -18z"/>
<path d="M6328 5374 c-15 -32 6 -77 39 -82 22 -3 53 31 53 58 -1 8 -7 0 -15
-17 -16 -38 -48 -44 -65 -14 -14 27 -13 47 6 65 8 9 11 16 4 16 -6 0 -16 -12
-22 -26z"/>
<path d="M6466 5384 c-9 -8 -16 -21 -16 -27 0 -7 8 -2 18 9 9 12 24 24 32 27
12 4 12 6 -2 6 -9 1 -24 -6 -32 -15z"/>
<path d="M6660 5356 c0 -36 -4 -46 -20 -51 -27 -9 -40 1 -40 31 0 13 -4 24
-10 24 -14 0 -12 -32 5 -53 10 -15 21 -17 44 -12 29 6 31 9 31 56 0 27 -2 49
-5 49 -3 0 -5 -20 -5 -44z"/>
<path d="M6770 5396 c0 -2 7 -9 15 -16 13 -11 14 -10 9 4 -5 14 -24 23 -24 12z"/>
<path d="M7113 5385 c-3 -9 -3 -19 1 -22 3 -4 6 1 6 10 0 8 6 18 13 20 9 4 9
6 -1 6 -7 1 -15 -6 -19 -14z"/>
<path d="M7150 5396 c0 -2 9 -6 20 -9 11 -3 18 -1 14 4 -5 9 -34 13 -34 5z"/>
<path d="M7610 5389 c0 -5 5 -7 10 -4 6 3 10 8 10 11 0 2 -4 4 -10 4 -5 0 -10
-5 -10 -11z"/>
<path d="M7654 5385 c6 -7 13 -9 16 -5 3 4 14 10 25 13 11 2 4 4 -16 4 -29 0
-34 -3 -25 -12z"/>
<path d="M7808 5390 c12 -5 22 -17 23 -27 0 -11 3 -13 6 -5 7 17 -15 42 -36
41 -11 0 -9 -3 7 -9z"/>
<path d="M7361 5338 c1 -55 5 -50 11 15 2 20 0 37 -4 37 -4 0 -7 -24 -7 -52z"/>
<path d="M7565 5378 c6 -15 1 -18 -21 -19 l-29 -1 30 -7 c33 -7 47 11 25 33
-8 8 -10 7 -5 -6z"/>
<path d="M6871 5345 c-1 -34 14 -55 39 -54 10 0 9 3 -5 8 -12 5 -22 21 -26 42
l-6 34 -2 -30z"/>
<path d="M7751 5349 c-1 -31 30 -63 56 -56 15 4 15 5 -3 6 -26 1 -40 17 -47
51 l-4 25 -2 -26z"/>
<path d="M7663 5325 c0 -22 2 -30 4 -17 2 12 2 30 0 40 -3 9 -5 -1 -4 -23z"/>
<path d="M797 5344 c-8 -8 1 -24 14 -24 5 0 9 7 9 15 0 15 -12 20 -23 9z"/>
<path d="M7494 5335 c-8 -19 13 -45 35 -44 10 0 8 4 -8 10 -17 7 -22 15 -18
29 6 23 -1 27 -9 5z"/>
<path d="M500 5265 c0 -43 4 -75 10 -75 6 0 10 14 10 30 0 26 4 30 28 30 33 0
52 16 52 45 0 31 -19 45 -62 45 l-38 0 0 -75z m73 43 c7 -23 -4 -38 -29 -38
-19 0 -24 5 -24 25 0 20 5 25 24 25 13 0 26 -6 29 -12z"/>
<path d="M7178 5322 c-7 -24 -36 -29 -58 -9 -12 10 -12 9 -1 -5 7 -10 21 -18
31 -18 21 0 43 25 38 42 -3 7 -7 2 -10 -10z"/>
<path d="M7567 5323 c-4 -3 -7 -11 -7 -17 0 -6 5 -5 12 2 6 6 9 14 7 17 -3 3
-9 2 -12 -2z"/>
<path d="M2320 5312 c0 -11 94 -102 106 -102 15 0 109 99 101 107 -4 4 -29
-14 -55 -40 l-48 -47 -44 45 c-42 43 -60 54 -60 37z"/>
<path d="M6525 5310 c-3 -5 -1 -10 4 -10 6 0 11 5 11 10 0 6 -2 10 -4 10 -3 0
-8 -4 -11 -10z"/>
<path d="M686 5301 c-3 -5 -15 -7 -26 -4 -18 5 -20 0 -20 -51 0 -42 4 -56 14
-56 10 0 16 14 18 42 2 35 7 43 26 48 13 3 23 10 23 15 0 13 -28 19 -35 6z"/>
<path d="M902 5294 c-26 -18 -30 -65 -6 -88 20 -20 58 -21 74 -1 17 20 5 32
-15 15 -23 -19 -45 -5 -45 29 0 33 16 43 42 27 25 -15 37 3 14 20 -25 18 -36
18 -64 -2z"/>
<path d="M1030 5290 c-48 -48 0 -119 64 -94 27 10 18 22 -15 20 -18 0 -34 5
-36 12 -3 8 8 12 37 12 38 0 41 2 35 23 -8 25 -32 47 -52 47 -7 0 -22 -9 -33
-20z m60 -21 c0 -5 -11 -9 -25 -9 -26 0 -34 15 -12 23 16 5 37 -3 37 -14z"/>
<path d="M760 5290 c0 -5 7 -10 15 -10 10 0 15 -11 15 -35 0 -24 -5 -35 -15
-35 -8 0 -15 -4 -15 -10 0 -5 20 -10 45 -10 25 0 45 5 45 10 0 6 -7 10 -15 10
-11 0 -15 12 -15 45 0 43 -1 45 -30 45 -16 0 -30 -4 -30 -10z"/>
<path d="M7512 4793 c59 -2 158 -2 220 0 62 1 14 3 -107 3 -121 0 -172 -2
-113 -3z"/>
<path d="M8025 4790 c-146 -6 -174 -15 -199 -66 -14 -31 -16 -125 -16 -985 0
-864 1 -953 17 -982 20 -39 38 -54 78 -62 17 -3 202 -6 413 -6 325 0 388 3
414 16 38 18 41 19 32 3 -4 -8 -3 -10 2 -5 5 5 10 13 10 18 1 5 2 14 3 20 0 5
5 8 9 5 4 -2 10 7 12 22 6 36 6 1908 0 1949 -3 17 -8 29 -11 27 -10 -6 -30 22
-21 31 4 5 1 5 -5 1 -7 -4 -21 -2 -32 4 -22 11 -494 18 -706 10z m712 -45 c12
-8 26 -30 31 -48 8 -24 9 -1029 2 -1200 -1 -10 -8 -21 -16 -24 -8 -3 -14 -14
-14 -24 0 -22 -11 -24 -28 -7 -8 8 -12 8 -12 1 0 -13 23 -23 53 -23 21 0 21
-1 -3 -13 -17 -9 -27 -10 -32 -3 -4 6 -6 -6 -4 -26 2 -23 0 -36 -7 -35 -6 1
-13 -6 -15 -15 -2 -12 3 -18 15 -18 15 0 16 -2 3 -10 -22 -14 -30 -12 -30 8 0
14 -2 15 -10 2 -7 -11 -10 -11 -10 -2 0 7 -5 10 -12 6 -7 -5 -5 -11 7 -21 16
-11 16 -13 3 -13 -14 0 -27 16 -25 30 2 8 -37 50 -41 45 -3 -3 1 -12 8 -21 12
-13 11 -17 -1 -25 -12 -7 -11 -9 2 -9 9 0 19 -7 23 -15 3 -8 14 -15 25 -15 15
0 18 -5 13 -22 -5 -20 -7 -20 -10 -5 -2 11 -9 16 -18 13 -8 -3 -14 1 -14 9 0
7 -5 17 -12 21 -8 5 -9 2 -5 -9 4 -11 -1 -20 -13 -27 -18 -9 -24 -50 -8 -50
10 0 29 36 22 43 -4 3 3 5 15 4 11 -1 21 -6 21 -11 0 -5 7 -18 17 -28 10 -12
12 -18 4 -18 -7 0 -9 -4 -6 -10 3 -5 2 -10 -4 -10 -5 0 -12 -8 -14 -17 -3 -10
-3 -1 -2 19 3 42 -6 55 -24 34 -9 -11 -9 -15 1 -19 9 -4 7 -11 -9 -25 -23 -20
-32 -39 -14 -27 5 3 9 -8 9 -25 -1 -16 -5 -30 -9 -30 -4 0 -6 9 -4 20 2 11 0
20 -5 20 -10 0 -24 -30 -21 -46 1 -7 -14 -15 -34 -18 -19 -4 -35 -11 -35 -16
0 -6 -9 -10 -20 -10 -11 0 -20 -5 -20 -11 0 -7 -9 -9 -21 -6 -12 3 -28 0 -36
-9 -8 -8 -23 -14 -34 -14 -10 0 -19 -4 -19 -10 0 -16 -27 -12 -34 5 -6 17 -26
20 -26 4 0 -5 5 -7 10 -4 6 3 10 1 10 -5 0 -8 -9 -10 -27 -5 -24 6 -25 5 -13
-10 8 -9 22 -14 32 -12 10 3 53 -4 95 -16 83 -21 282 -30 356 -14 l37 8 0 -59
c0 -32 -5 -74 -11 -92 -21 -58 -34 -60 -464 -60 -411 0 -429 2 -455 49 -15 29
-14 1911 1 1945 6 13 21 29 33 34 13 7 169 11 426 11 345 1 409 -1 427 -14z
m-137 -1509 c0 -3 -4 -8 -10 -11 -5 -3 -10 -1 -10 4 0 6 5 11 10 11 6 0 10 -2
10 -4z m65 -86 c3 -5 1 -10 -4 -10 -6 0 -11 5 -11 10 0 6 2 10 4 10 3 0 8 -4
11 -10z m-35 -40 c0 -5 -4 -10 -10 -10 -5 0 -10 5 -10 10 0 6 5 10 10 10 6 0
10 -4 10 -10z"/>
<path d="M8291 4726 c-9 -10 -8 -16 4 -26 19 -16 41 1 32 24 -8 20 -21 20 -36
2z"/>
<path d="M8674 3400 c2 -16 20 -14 24 2 3 10 2 10 -6 -1 -7 -9 -11 -10 -15 -2
-4 7 -5 8 -3 1z"/>
<path d="M8633 3375 c0 -8 4 -12 9 -9 5 3 6 10 3 15 -9 13 -12 11 -12 -6z"/>
<path d="M8660 3353 c0 -10 4 -14 8 -8 4 6 11 13 16 18 5 4 2 7 -7 7 -10 0
-17 -8 -17 -17z"/>
<path d="M8567 3273 c3 -7 9 -10 14 -7 14 8 11 21 -5 21 -8 0 -12 -6 -9 -14z"/>
<path d="M7145 4759 c-16 -10 -25 -19 -20 -19 6 0 3 -5 -5 -10 -12 -8 -11 -10
7 -10 12 0 25 -5 28 -10 4 -7 12 -7 25 0 36 19 35 10 -3 -25 -41 -38 -61 -47
-32 -15 22 24 14 38 -9 15 -9 -9 -16 -12 -16 -6 0 5 8 15 18 20 14 9 13 10
-10 11 l-28 0 -1 -217 c-3 -910 -3 -1751 0 -1747 3 2 17 -7 31 -21 15 -14 38
-27 51 -29 13 -1 33 -6 43 -11 12 -5 21 -5 23 1 2 5 70 8 160 7 87 -2 230 -4
319 -5 114 -2 154 0 140 7 -11 6 -31 26 -43 44 l-23 34 0 756 c0 729 -6 1065
-20 1027 -3 -9 -10 -17 -15 -17 -6 0 -25 -14 -43 -32 -27 -26 -35 -29 -42 -17
-12 19 -47 3 -104 -50 -31 -28 -49 -38 -61 -34 -11 5 -22 1 -29 -8 -6 -9 -20
-17 -31 -19 -16 -3 -21 -15 -26 -59 -5 -48 -6 -50 -8 -15 -3 73 -21 77 -22 5
l-2 -65 -7 80 c-4 44 -9 164 -10 268 l-2 187 -102 -1 c-82 0 -107 -4 -131 -20z
m118 -6 c-7 -2 -19 -2 -25 0 -7 3 -2 5 12 5 14 0 19 -2 13 -5z m-39 -12 c4 -5
-3 -7 -14 -4 -23 6 -26 13 -6 13 8 0 17 -4 20 -9z m74 -17 c12 -8 22 -23 21
-32 0 -12 -3 -11 -9 6 -5 12 -16 22 -24 22 -8 0 -18 5 -21 10 -9 15 8 12 33
-6z m46 -113 c8 -11 8 -13 -1 -8 -16 10 -45 -33 -33 -48 7 -8 5 -12 -5 -12 -8
0 -11 5 -8 10 4 7 -1 7 -13 2 -35 -15 -72 -17 -79 -5 -5 8 -1 11 11 9 53 -8
102 33 105 88 1 15 2 15 6 -2 3 -11 10 -26 17 -34z m-146 -111 c-11 -18 -38
-36 -38 -25 0 5 42 45 47 45 2 0 -2 -9 -9 -20z m-42 -2 c4 -7 4 -10 -1 -6 -4
4 -15 2 -24 -5 -14 -11 -14 -10 -2 6 16 20 18 21 27 5z m170 -94 c-11 -42 -41
-64 -88 -63 l-43 1 37 8 c47 9 75 33 84 74 4 17 9 25 11 18 3 -7 2 -24 -1 -38z
m-137 -123 c-13 -11 -26 -17 -29 -14 -3 2 6 13 20 23 32 24 40 16 9 -9z m126
-101 c-16 -31 -49 -50 -86 -50 -10 0 -19 4 -19 10 0 5 6 7 13 4 28 -10 68 16
85 56 9 22 18 33 20 25 2 -7 -4 -28 -13 -45z"/>
<path d="M506 4588 c-9 -12 -16 -36 -16 -53 0 -52 61 -100 76 -60 4 8 10 12
15 9 5 -3 9 2 9 10 0 22 -13 20 -28 -4 -16 -26 -40 -15 -50 24 -17 66 18 108
59 70 20 -18 27 -6 7 14 -19 19 -55 14 -72 -10z"/>
<path d="M778 4580 c-18 -20 -17 -20 25 -19 23 1 32 4 20 6 -12 2 -23 11 -25
19 -2 12 -7 11 -20 -6z"/>
<path d="M2370 4543 l-55 -58 58 55 c31 30 57 56 57 57 0 8 -10 -1 -60 -54z"/>
<path d="M2440 4584 c0 -6 21 -30 48 -54 l47 -45 -45 50 c-25 27 -46 52 -47
54 -2 2 -3 0 -3 -5z"/>
<path d="M907 4560 c-26 -20 -31 -60 -10 -81 14 -14 52 -19 59 -8 4 6 -3 9
-16 7 -14 -2 -27 5 -36 17 -13 19 -11 20 31 17 49 -4 58 8 30 44 -15 18 -15
18 -9 -9 6 -26 5 -27 -21 -23 -15 3 -30 7 -32 10 -8 8 7 26 23 26 8 0 14 5 14
10 0 14 -4 13 -33 -10z"/>
<path d="M1203 4563 c23 -26 22 -70 -1 -82 -36 -19 -55 26 -31 72 12 22 12 22
-10 3 -25 -23 -27 -43 -5 -74 20 -29 50 -28 70 3 20 31 13 65 -18 84 -22 13
-23 13 -5 -6z"/>
<path d="M7762 4560 c0 -14 2 -19 5 -12 2 6 2 18 0 25 -3 6 -5 1 -5 -13z"/>
<path d="M636 4561 c-3 -5 9 -8 27 -7 25 1 32 -3 31 -16 -1 -10 1 -18 5 -18 4
0 7 -9 7 -20 0 -10 -2 -17 -5 -15 -2 3 -10 0 -18 -6 -9 -9 -17 -8 -27 0 -10 8
-16 9 -21 1 -7 -11 0 -12 53 -14 33 -1 33 0 30 39 -1 22 -8 46 -14 53 -14 14
-60 16 -68 3z"/>
<path d="M1022 4546 c-20 -45 5 -91 45 -81 26 6 30 -6 8 -25 -8 -6 -24 -9 -37
-5 -18 5 -20 4 -8 -4 44 -31 76 5 79 87 2 41 -1 52 -14 52 -8 0 -15 -4 -15
-10 0 -5 4 -10 8 -10 16 0 0 -61 -19 -70 -15 -9 -21 -5 -33 19 -16 30 -8 53
24 64 10 4 8 6 -6 6 -13 1 -25 -8 -32 -23z"/>
<path d="M1318 4556 c-25 -9 -28 -15 -28 -53 0 -56 18 -56 22 -1 2 34 7 44 23
46 23 5 42 19 23 18 -7 0 -25 -4 -40 -10z"/>
<path d="M1410 4559 c0 -19 33 -99 41 -99 9 0 51 101 45 107 -3 3 -14 -13 -25
-37 -19 -42 -19 -42 -32 -19 -7 13 -14 30 -15 37 -3 20 -14 28 -14 11z"/>
<path d="M1547 4563 c-14 -13 -7 -33 16 -44 21 -12 21 -11 5 8 -14 15 -15 22
-6 31 7 7 8 12 2 12 -6 0 -14 -3 -17 -7z"/>
<path d="M1596 4556 c21 -15 30 -14 19 3 -3 6 -14 11 -23 11 -13 0 -13 -2 4
-14z"/>
<path d="M782 4518 c0 -18 5 -39 11 -45 11 -15 37 -17 37 -3 0 6 -6 9 -12 8
-8 -2 -14 11 -16 35 -4 45 -21 50 -20 5z"/>
<path d="M640 4515 c-16 -19 -1 -19 24 0 16 12 17 15 4 15 -8 0 -21 -7 -28
-15z"/>
<path d="M1598 4509 c6 -7 12 -16 12 -20 0 -12 -36 -17 -54 -7 -10 6 -16 5
-16 -1 0 -6 11 -13 25 -17 43 -11 77 36 38 51 -15 5 -16 4 -5 -6z"/>
<path d="M1426 4435 c-11 -8 -15 -15 -9 -15 6 0 16 7 23 15 16 19 11 19 -14 0z"/>
<path d="M10653 4431 c92 -6 100 -8 122 -33 30 -35 37 -35 25 -2 -13 32 -13
34 3 34 6 0 24 -14 39 -32 19 -22 30 -29 35 -21 5 7 16 0 33 -23 14 -18 30
-34 36 -34 6 0 17 -7 24 -15 8 -10 20 -13 34 -9 19 6 20 5 6 -11 -14 -17 -13
-17 9 -10 15 4 21 3 17 -3 -3 -5 6 -13 20 -16 14 -4 43 -18 64 -32 31 -21 106
-40 178 -46 6 -1 12 -6 13 -12 0 -6 4 -1 9 12 13 32 42 29 36 -4 -4 -20 2 -30
34 -52 22 -15 39 -33 40 -40 0 -7 4 -11 9 -8 11 7 57 -52 76 -97 16 -38 40
-62 53 -53 6 3 16 -2 23 -12 13 -15 12 -16 -3 -3 -16 12 -18 11 -18 -2 0 -11
7 -14 23 -11 12 2 42 5 67 6 49 2 90 22 90 44 0 8 5 14 10 14 6 0 10 7 10 16
0 10 5 14 16 10 8 -3 12 -2 9 3 -3 5 -1 12 5 16 6 3 -1 21 -15 44 -27 40 -25
71 4 71 14 1 14 2 -2 11 -9 5 -22 7 -28 4 -5 -4 -16 -1 -25 5 -12 10 -12 16
-2 28 11 13 10 15 -5 9 -10 -4 -21 -7 -23 -7 -2 0 -4 -8 -5 -17 0 -15 -2 -15
-8 2 -5 11 -4 23 1 26 12 7 7 41 -7 51 -17 13 -28 9 -16 -5 8 -10 7 -14 -4
-14 -8 0 -17 8 -20 18 -3 9 -21 24 -40 34 -19 9 -35 20 -35 25 0 16 -36 12
-50 -5 -25 -30 -22 -6 6 44 l27 51 17 -37 c17 -38 52 -83 63 -83 3 0 -2 13
-11 30 -9 16 -20 30 -24 30 -4 0 -5 8 -2 18 5 15 4 15 -6 2 -10 -13 -11 -13
-7 0 7 26 34 23 41 -4 9 -35 22 -33 35 6 6 17 14 28 17 25 4 -3 1 -20 -5 -38
-17 -48 -14 -67 14 -85 36 -23 40 -13 16 41 -24 54 -25 59 -11 50 6 -3 10 1
10 9 0 9 6 16 14 16 10 0 14 -9 13 -26 -3 -38 16 -40 30 -3 10 27 10 32 -5 36
-9 2 -22 15 -29 29 -10 21 -9 24 7 24 10 0 22 -9 25 -20 4 -11 11 -17 17 -14
7 5 8 2 4 -5 -6 -8 -2 -11 10 -9 11 2 19 -3 19 -12 0 -19 15 -41 40 -60 17
-13 17 -11 -3 14 -24 31 -29 52 -10 40 7 -5 9 -2 5 8 -4 12 1 15 17 14 16 -1
22 -6 18 -16 -4 -11 0 -11 15 3 16 14 23 15 29 6 5 -8 3 -10 -6 -4 -9 5 -11 4
-6 -3 5 -8 13 -9 25 -2 10 5 22 6 27 2 5 -4 2 1 -5 11 -21 27 -7 30 30 8 19
-12 47 -21 63 -21 26 0 28 -3 23 -28 -6 -29 -2 -39 23 -59 12 -9 15 -7 16 12
1 16 -4 25 -16 27 -18 3 -18 4 1 27 l19 23 0 -22 c0 -15 5 -20 14 -17 9 4 15
-1 16 -11 0 -9 3 -84 6 -165 5 -119 3 -147 -7 -145 -17 4 -39 24 -39 36 0 5
-7 15 -15 22 -12 10 -15 10 -15 -4 0 -9 5 -16 10 -16 6 0 10 -9 10 -20 0 -11
4 -20 10 -20 5 0 13 -12 16 -27 4 -15 13 -38 20 -52 10 -19 14 -84 16 -246 1
-199 2 -185 10 150 4 204 7 424 6 490 l-3 120 -805 1 c-443 0 -761 -2 -707 -5z
m1180 -18 c-7 -2 -19 -2 -25 0 -7 3 -2 5 12 5 14 0 19 -2 13 -5z m-557 -29
c-4 -11 -2 -15 8 -11 9 4 13 1 10 -6 -2 -7 3 -21 12 -32 15 -20 15 -20 11 3
-3 12 -1 22 5 22 5 0 7 4 3 9 -3 6 7 6 27 0 42 -12 43 -12 28 6 -9 10 -9 15
-1 15 10 0 15 -13 13 -32 -1 -3 5 -9 13 -12 8 -3 15 -1 15 5 0 6 15 9 33 7 31
-3 32 -5 33 -46 l0 -43 -20 21 c-16 15 -18 22 -8 32 16 16 15 28 -3 28 -19 0
-20 -58 -2 -103 12 -30 13 -94 2 -105 -3 -3 -5 11 -5 31 0 28 -4 37 -17 38
-19 1 -20 1 -105 18 l-56 12 -7 59 c-6 54 -1 100 12 100 3 0 2 -7 -1 -16z
m311 -6 c-3 -8 -6 -5 -6 6 -1 11 2 17 5 13 3 -3 4 -12 1 -19z m-85 -213 c-6
-34 -12 -32 -12 6 0 16 4 28 9 25 4 -3 6 -17 3 -31z m106 10 c15 -33 16 -32
-17 -32 -27 0 -28 2 -19 29 12 35 21 35 36 3z m50 -11 c-7 -15 -14 -21 -16
-15 -5 16 5 41 17 41 7 0 6 -10 -1 -26z m-257 -1 c0 -16 1 -16 8 1 4 11 10 15
12 10 11 -20 3 -39 -18 -42 -19 -3 -23 1 -23 22 0 29 20 36 21 9z m150 -220
c13 -16 12 -17 -3 -4 -10 7 -18 15 -18 17 0 8 8 3 21 -13z"/>
<path d="M11340 4340 c0 -5 7 -10 15 -10 8 0 15 5 15 10 0 6 -7 10 -15 10 -8
0 -15 -4 -15 -10z"/>
<path d="M7402 4405 c0 -16 2 -22 5 -12 2 9 2 23 0 30 -3 6 -5 -1 -5 -18z"/>
<path d="M10530 4376 c0 -8 38 -46 46 -46 4 0 1 7 -6 15 -11 13 -7 15 26 16
22 1 46 0 54 -1 8 -1 12 1 8 5 -11 11 -88 14 -94 3 -3 -5 -12 -4 -20 3 -8 6
-14 9 -14 5z"/>
<path d="M10746 4339 c-11 -10 -14 -19 -8 -19 6 0 14 5 17 10 3 6 11 10 16 10
6 0 7 -4 4 -10 -3 -5 -1 -10 4 -10 13 0 13 3 5 24 -8 20 -14 19 -38 -5z"/>
<path d="M3865 4327 c-13 -21 -15 -95 -13 -583 l3 -559 868 -3 867 -2 0 569
c0 504 -2 571 -16 585 -14 14 -105 16 -854 16 l-840 0 -15 -23z m1453 -54
c-23 -6 -24 -43 -1 -43 13 0 11 -4 -8 -21 -19 -17 -21 -22 -9 -29 10 -7 11
-10 3 -10 -18 0 -16 -27 3 -34 8 -3 13 -10 9 -15 -8 -13 24 -29 74 -37 l41 -7
-25 -25 c-29 -29 -106 -42 -130 -22 -8 6 -46 12 -84 13 -39 1 -65 5 -58 9 6 4
8 8 2 8 -5 0 -17 -5 -25 -10 -11 -7 -11 -10 -2 -10 7 0 10 -5 7 -10 -7 -11 63
-45 72 -36 3 3 -5 9 -18 14 -13 5 -31 12 -39 15 -9 3 -5 6 10 6 28 0 60 -20
60 -38 0 -16 50 -33 77 -26 13 3 23 1 23 -3 0 -5 35 -12 78 -16 42 -3 97 -12
122 -20 l45 -13 3 -193 2 -192 -22 6 c-58 17 -137 18 -202 2 -63 -16 -72 -16
-134 -1 -36 9 -104 21 -151 25 -115 12 -160 27 -338 114 -145 71 -210 96 -383
147 -173 50 -191 59 -275 140 -44 42 -95 89 -112 104 -31 25 -33 30 -33 96 0
64 1 69 23 70 54 4 151 -3 174 -12 13 -5 41 -9 61 -10 30 0 33 -2 17 -9 -25
-11 -31 -10 96 -13 99 -2 104 -1 80 13 -23 14 -93 37 -201 68 -24 7 155 10
575 10 336 0 602 -2 593 -5z m-1101 -39 c-3 -3 -12 -4 -19 -1 -8 3 -5 6 6 6
11 1 17 -2 13 -5z"/>
<path d="M12015 4340 c3 -5 10 -10 16 -10 5 0 9 5 9 10 0 6 -7 10 -16 10 -8 0
-12 -4 -9 -10z"/>
<path d="M10620 4336 c0 -2 7 -7 16 -10 8 -3 12 -2 9 4 -6 10 -25 14 -25 6z"/>
<path d="M10536 4307 c3 -10 9 -15 12 -12 3 3 0 11 -7 18 -10 9 -11 8 -5 -6z"/>
<path d="M11769 4295 c-3 -3 -4 -17 -1 -30 4 -24 5 -24 18 -8 13 16 14 16 8
-8 -7 -35 5 -42 34 -19 l23 19 -23 21 c-12 11 -28 18 -35 16 -6 -3 -13 0 -15
5 -2 6 -6 8 -9 4z"/>
<path d="M11729 4261 c6 -10 8 -21 5 -24 -8 -8 19 -47 33 -47 9 0 9 8 1 33
-13 37 -26 57 -40 57 -5 0 -4 -8 1 -19z"/>
<path d="M11969 4240 c49 -45 69 -52 45 -15 -9 14 -20 23 -24 20 -5 -3 -12 1
-17 8 -4 7 -17 17 -28 20 -12 4 -2 -10 24 -33z"/>
<path d="M10780 4253 c17 -21 23 -32 87 -150 40 -75 44 -87 29 -95 -24 -14
-19 -26 14 -33 16 -3 43 -22 59 -41 l31 -34 -7 31 c-5 28 -4 30 13 22 10 -6
42 -11 69 -12 45 -2 81 -6 95 -11 3 -1 9 -2 13 -1 4 1 33 -5 64 -13 30 -8 60
-13 67 -10 7 2 37 -13 68 -35 l56 -39 -8 28 c-13 45 -27 66 -71 101 -22 19
-52 44 -66 56 -31 25 -60 32 -133 29 -30 -2 -65 1 -78 5 -13 5 -21 5 -18 1 2
-4 -18 -8 -45 -7 -31 0 -53 -5 -58 -13 -13 -22 -52 41 -87 143 l-31 90 -39 3
c-36 3 -38 2 -24 -15z"/>
<path d="M11645 4250 c3 -5 8 -10 11 -10 2 0 4 5 4 10 0 6 -5 10 -11 10 -5 0
-7 -4 -4 -10z"/>
<path d="M11855 4240 c-4 -11 -11 -18 -16 -15 -5 4 -9 0 -9 -8 0 -18 28 -42
37 -33 4 4 1 11 -7 16 -13 8 -12 10 3 10 9 0 17 5 17 10 0 6 -4 10 -10 10 -5
0 -7 7 -4 15 4 8 4 15 1 15 -3 0 -9 -9 -12 -20z"/>
<path d="M10905 4241 c6 -5 28 -17 50 -26 22 -9 36 -12 30 -6 -5 5 -28 17 -50
26 -22 9 -35 12 -30 6z"/>
<path d="M12060 4239 c0 -8 7 -23 15 -33 15 -19 15 -19 15 1 0 11 -7 26 -15
33 -12 10 -15 10 -15 -1z"/>
<path d="M11908 4199 c2 -16 7 -27 10 -24 11 11 10 34 -2 44 -10 8 -11 3 -8
-20z"/>
<path d="M7073 4180 c0 -25 2 -35 4 -22 2 12 2 32 0 45 -2 12 -4 2 -4 -23z"/>
<path d="M7072 4110 c0 -14 2 -19 5 -12 2 6 2 18 0 25 -3 6 -5 1 -5 -13z"/>
<path d="M11803 4107 c-13 -17 -24 -49 -15 -44 4 3 25 -17 47 -44 37 -45 40
-47 47 -26 5 19 6 18 7 -8 1 -17 19 -61 40 -98 22 -37 38 -67 36 -67 -8 0 26
-85 42 -105 10 -11 11 -14 3 -7 -8 6 -17 12 -22 12 -4 0 -7 -46 -7 -102 l1
-103 14 65 c7 36 18 75 23 87 17 38 41 152 41 195 0 29 -12 66 -40 120 -22 43
-36 78 -31 78 5 0 13 -9 16 -20 3 -11 10 -20 15 -20 5 0 4 11 -2 25 -12 27
-45 33 -67 13 -11 -11 -13 -10 -8 3 4 12 -1 16 -24 15 -22 -1 -29 -6 -29 -21
0 -15 -2 -17 -9 -6 -8 12 -10 12 -14 0 -2 -8 -3 -5 -1 6 3 27 -49 70 -63 52z
m21 -23 c3 -8 2 -12 -4 -9 -6 3 -10 10 -10 16 0 14 7 11 14 -7z m106 -39 c0
-8 -2 -15 -4 -15 -2 0 -6 7 -10 15 -3 8 -1 15 4 15 6 0 10 -7 10 -15z"/>
<path d="M11120 3895 c0 -5 5 -17 10 -25 5 -8 10 -10 10 -5 0 6 -5 17 -10 25
-5 8 -10 11 -10 5z"/>
<path d="M910 3805 c0 -38 2 -66 5 -63 8 8 8 118 1 125 -3 4 -6 -24 -6 -62z"/>
<path d="M503 3800 c0 -36 2 -53 4 -37 5 34 18 34 39 2 9 -14 19 -23 21 -21 3
3 -4 18 -16 34 l-21 30 21 26 c11 14 17 26 14 26 -4 0 -17 -12 -29 -27 l-21
-27 -6 29 c-4 20 -7 7 -6 -35z"/>
<path d="M712 3834 c-7 -8 -8 -14 -3 -14 5 0 11 -17 13 -37 3 -32 7 -38 28
-40 14 -2 19 0 10 4 -21 8 -30 24 -30 51 0 16 6 22 23 23 20 1 20 2 2 6 -11 3
-22 9 -25 13 -3 4 -11 2 -18 -6z"/>
<path d="M11154 3824 c-18 -15 -18 -15 4 -11 14 3 22 0 22 -8 0 -18 39 -30 53
-16 8 8 6 11 -6 11 -9 0 -17 4 -17 10 0 20 -37 30 -56 14z"/>
<path d="M613 3823 c12 -3 17 -14 17 -38 0 -24 -5 -35 -17 -38 -10 -3 0 -5 22
-5 22 0 32 2 23 5 -13 3 -18 15 -18 44 0 34 -3 39 -22 38 -17 -1 -19 -2 -5 -6z"/>
<path d="M809 3809 c-8 -16 -8 -28 0 -45 11 -24 45 -33 56 -14 4 6 -1 7 -11 3
-24 -9 -46 24 -33 48 10 20 39 26 39 9 0 -5 5 -10 11 -10 8 0 8 5 -1 15 -18
22 -47 18 -61 -6z"/>
<path d="M952 3818 c9 -7 19 -29 21 -48 3 -26 4 -24 3 10 -1 36 -5 45 -21 48
-18 4 -19 3 -3 -10z"/>
<path d="M1022 3818 c-15 -15 -16 -50 0 -66 14 -14 44 -16 52 -4 2 4 -7 8 -21
7 -14 0 -28 6 -30 13 -3 8 6 12 27 12 27 0 31 3 28 23 -3 25 -36 35 -56 15z
m46 -15 c2 -8 -6 -13 -22 -13 -25 0 -33 10 -19 24 10 10 36 3 41 -11z"/>
<path d="M1121 3780 l2 -45 6 40 c7 46 37 62 45 23 3 -13 7 -32 9 -43 3 -11 5
-4 6 15 1 46 -9 61 -42 58 -25 -2 -27 -5 -26 -48z"/>
<path d="M10155 3739 c-3 -46 -5 -165 -3 -264 l3 -180 83 -3 c81 -3 84 -4 79
-25 -3 -12 -8 -40 -11 -62 l-6 -40 19 50 c17 43 21 47 26 28 4 -13 11 -20 16
-18 4 3 4 17 -1 31 -6 14 -10 27 -10 30 0 2 365 4 811 4 717 0 810 -2 805 -15
-3 -8 -9 -22 -12 -30 -3 -8 -1 -15 4 -15 6 0 12 8 15 18 3 14 6 13 14 -7 13
-33 26 -11 13 23 l-9 25 87 3 87 3 -3 70 c-5 88 -12 98 -12 17 l0 -62 -317 -2
c-175 -1 -622 -1 -993 -1 l-675 0 0 82 c1 61 5 85 15 92 10 6 11 9 3 9 -8 0
-13 14 -13 35 0 19 2 35 5 35 14 0 55 -25 55 -33 0 -6 3 -7 6 -4 4 3 16 1 28
-5 19 -10 19 -8 -3 16 -36 39 -8 32 53 -13 30 -22 56 -38 59 -35 3 3 22 -4 43
-15 37 -20 63 -20 34 0 -11 8 -8 8 10 3 14 -4 44 -8 67 -8 23 -1 48 -7 55 -13
15 -16 32 -17 22 -2 -4 8 -1 8 13 0 11 -5 28 -10 39 -9 10 0 27 -3 37 -7 14
-6 16 -4 10 11 -6 17 -5 18 11 4 28 -22 179 -71 187 -59 4 6 15 6 32 0 15 -6
27 -8 27 -5 0 2 10 -1 23 -8 33 -19 67 -20 60 -2 -4 12 0 13 22 4 18 -7 32 -7
39 -1 8 7 22 4 41 -9 37 -25 52 -26 34 -2 -11 13 -9 13 9 -2 18 -15 25 -17 35
-7 8 8 9 14 1 19 -6 4 -13 17 -16 29 -5 19 -4 20 13 10 10 -6 19 -15 19 -19 0
-4 17 -10 38 -13 20 -4 49 -10 65 -15 20 -7 51 -2 125 21 53 16 147 40 207 54
l110 24 -100 -4 c-55 -3 -154 -7 -220 -10 -345 -16 -650 6 -744 55 -40 20 -43
23 -26 33 11 6 37 16 59 22 l39 12 -79 12 c-167 28 -408 101 -389 119 2 3 -30
23 -73 45 -42 22 -80 44 -83 50 -4 5 -10 -28 -14 -74z m1139 -327 c3 -5 -1 -9
-9 -9 -8 0 -12 4 -9 9 3 4 7 8 9 8 2 0 6 -4 9 -8z"/>
<path d="M11049 3802 c21 -17 111 -46 111 -35 0 5 -76 38 -110 47 l-25 7 24
-19z"/>
<path d="M11442 3759 c-7 -11 -17 -17 -22 -14 -9 6 -40 -21 -40 -35 0 -12 85
-24 101 -14 8 4 10 3 5 -5 -13 -20 24 -24 57 -6 25 13 32 23 31 44 -2 53 -3
54 -18 42 -16 -14 -67 -11 -78 4 -5 6 -8 4 -8 -5 0 -11 -2 -12 -8 -3 -6 9 -11
7 -20 -8z m78 -54 c0 -8 -4 -15 -10 -15 -5 0 -7 7 -4 15 4 8 8 15 10 15 2 0 4
-7 4 -15z"/>
<path d="M11245 3722 c78 -38 306 -124 313 -118 1 2 -35 18 -80 36 -46 19 -94
42 -107 52 -13 10 -31 18 -41 18 -9 0 -41 9 -71 19 -30 10 -63 22 -74 26 -11
3 16 -11 60 -33z"/>
<path d="M10548 3723 c7 -3 16 -2 19 1 4 3 -2 6 -13 5 -11 0 -14 -3 -6 -6z"/>
<path d="M10591 3716 c15 -16 223 -37 404 -41 218 -4 176 3 -139 25 -93 6
-192 14 -220 17 -28 3 -48 3 -45 -1z"/>
<path d="M11750 3589 c0 -7 10 -9 25 -7 13 3 22 2 20 -3 -6 -8 14 -24 21 -16
2 2 2 12 -2 21 -7 18 -64 23 -64 5z"/>
<path d="M11660 3560 c8 -5 22 -10 30 -10 13 0 13 1 0 10 -8 5 -22 10 -30 10
-13 0 -13 -1 0 -10z"/>
<path d="M11720 3540 c8 -5 20 -10 25 -10 6 0 3 5 -5 10 -8 5 -19 10 -25 10
-5 0 -3 -5 5 -10z"/>
<path d="M11924 3465 c38 -14 77 -25 85 -25 20 1 -118 50 -139 49 -8 0 16 -11
54 -24z"/>
<path d="M12055 3425 c17 -8 37 -14 45 -14 8 0 -1 7 -20 14 -46 18 -64 17 -25
0z"/>
<path d="M12000 3191 c0 -6 4 -13 10 -16 6 -3 7 1 4 9 -7 18 -14 21 -14 7z"/>
<path d="M4028 3133 c94 -2 250 -2 345 0 94 1 17 3 -173 3 -190 0 -267 -2
-172 -3z"/>
<path d="M4803 3133 c142 -2 372 -2 510 0 139 1 23 2 -258 2 -280 0 -394 -1
-252 -2z"/>
<path d="M6130 2488 c0 -400 4 -608 10 -598 13 21 13 1210 0 1210 -7 0 -10
-211 -10 -612z"/>
<path d="M9353 2490 c0 -338 4 -568 7 -510 10 138 10 908 0 1030 -3 52 -7
-182 -7 -520z"/>
<path d="M12585 2480 c0 -344 1 -484 2 -312 2 171 2 453 0 625 -1 171 -2 31
-2 -313z"/>
<path d="M499 3074 c-14 -17 -5 -28 47 -60 16 -10 17 -14 6 -25 -10 -11 -16
-11 -33 -1 -25 16 -36 10 -14 -8 8 -7 25 -10 40 -6 36 9 33 45 -5 59 -18 7
-30 19 -30 29 0 21 29 24 50 6 12 -11 12 -10 1 5 -17 21 -44 22 -62 1z"/>
<path d="M1127 3083 c19 -4 23 -12 26 -61 l3 -57 2 57 c2 50 5 57 25 61 12 2
0 4 -28 4 -27 0 -40 -2 -28 -4z"/>
<path d="M1232 3028 l22 -63 13 34 c8 18 16 47 18 65 4 24 1 21 -10 -13 -8
-24 -17 -46 -19 -49 -3 -2 -10 16 -17 42 -6 25 -15 46 -20 46 -4 0 2 -28 13
-62z"/>
<path d="M922 3064 c-7 -8 -8 -14 -3 -14 5 0 11 -17 13 -37 3 -32 7 -38 28
-40 25 -3 25 -3 3 7 -17 7 -23 18 -23 40 0 24 4 30 23 31 20 1 20 2 2 6 -11 3
-22 9 -25 13 -3 4 -11 2 -18 -6z"/>
<path d="M593 3015 c0 -27 2 -38 4 -22 2 15 2 37 0 50 -2 12 -4 0 -4 -28z"/>
<path d="M619 3046 c5 -6 11 -27 14 -46 4 -33 4 -33 5 8 1 23 6 42 11 42 6 0
12 -19 14 -42 l4 -43 1 47 c2 46 1 47 -28 46 -21 -1 -27 -4 -21 -12z"/>
<path d="M710 3050 c-11 -7 -8 -9 15 -7 27 2 30 -1 30 -28 0 -23 -5 -30 -19
-30 -24 0 -33 22 -11 28 12 4 11 5 -2 3 -11 -1 -18 -9 -18 -21 0 -16 7 -20 33
-21 33 -1 33 0 30 40 -2 32 -7 42 -23 44 -11 1 -27 -2 -35 -8z"/>
<path d="M822 3010 c1 -42 2 -43 5 -8 3 29 10 39 31 47 l27 10 -32 -2 c-32 -1
-33 -2 -31 -47z"/>
<path d="M3532 2408 l1 -63 6 55 c6 54 6 55 18 25 6 -16 12 -25 12 -18 2 20
-18 63 -29 63 -6 0 -9 -25 -8 -62z"/>
<path d="M3603 2455 c-3 -9 -3 -19 1 -22 3 -4 7 0 8 8 1 8 4 -11 8 -41 l7 -55
1 63 c2 59 -11 83 -25 47z"/>
<path d="M3811 2413 l-1 -63 29 0 c17 0 32 4 35 8 3 5 -8 6 -25 4 -26 -4 -29
-2 -29 23 0 24 3 27 28 23 23 -3 28 0 29 17 1 11 -1 14 -4 8 -3 -7 -15 -13
-28 -13 -18 0 -25 6 -28 28 -2 15 -5 -1 -6 -35z"/>
<path d="M4073 2410 c-1 -43 1 -57 6 -40 5 14 14 24 22 22 8 -2 11 0 7 4 -4 4
-2 14 4 23 9 11 5 10 -9 -2 -22 -19 -22 -19 -26 20 -2 23 -4 12 -4 -27z"/>
<path d="M4215 2458 c-18 -48 -32 -107 -24 -102 5 3 9 12 9 20 0 17 46 19 53
2 4 -9 5 -8 6 2 0 8 -4 24 -9 35 -7 17 -9 17 -9 3 -1 -10 -8 -18 -17 -18 -12
0 -15 6 -10 23 3 12 6 27 6 32 0 6 5 3 10 -5 8 -13 10 -12 10 3 0 20 -18 23
-25 5z"/>
<path d="M4428 2463 c7 -3 12 -24 12 -53 0 -29 -5 -50 -12 -53 -7 -3 1 -5 17
-5 17 0 24 2 18 5 -8 3 -13 25 -13 59 0 45 -3 54 -17 53 -11 0 -13 -3 -5 -6z"/>
<path d="M4547 2450 c4 -14 -1 -22 -18 -29 -23 -9 -23 -10 -3 -10 24 -1 36
-21 24 -41 -5 -8 -18 -10 -36 -6 -21 5 -25 4 -14 -4 35 -24 81 7 60 40 -5 8
-7 25 -4 36 3 12 1 25 -4 28 -6 4 -8 -2 -5 -14z"/>
<path d="M4677 2450 c4 -14 -1 -22 -18 -29 l-24 -10 23 0 c17 -1 22 -7 22 -27
0 -24 -3 -26 -30 -22 -19 3 -27 1 -21 -5 5 -5 19 -7 32 -5 22 3 24 8 25 56 1
29 -2 54 -6 57 -5 3 -6 -4 -3 -15z"/>
<path d="M4812 2413 l-2 -63 38 2 c36 1 36 1 5 5 -31 4 -32 5 -36 61 l-3 57
-2 -62z"/>
<path d="M5059 2455 c-7 -32 5 -98 19 -101 7 -1 8 0 2 3 -15 7 -13 73 3 73 8
0 9 3 1 8 -6 4 -13 14 -16 22 -3 11 -6 9 -9 -5z"/>
<path d="M5423 2455 c-3 -9 -3 -19 1 -22 3 -4 6 2 7 13 0 14 4 11 14 -11 15
-32 19 -25 9 13 -7 25 -22 29 -31 7z"/>
<path d="M5673 2410 c0 -36 2 -50 4 -32 2 17 2 47 0 65 -2 17 -4 3 -4 -33z"/>
<path d="M5832 2408 l1 -63 7 50 c4 28 8 41 8 31 1 -11 4 -17 7 -14 9 8 -6 58
-16 58 -5 0 -8 -28 -7 -62z"/>
<path d="M5889 2424 c-8 -31 -14 -41 -20 -32 -7 10 -9 10 -9 -2 0 -8 4 -21 9
-29 6 -9 13 3 22 40 l14 54 6 -55 6 -55 1 63 c2 73 -13 82 -29 16z"/>
<path d="M5958 2463 c7 -3 12 -24 12 -53 0 -29 -5 -50 -12 -53 -7 -3 1 -5 17
-5 17 0 24 2 18 5 -8 3 -13 25 -13 59 0 45 -3 54 -17 53 -11 0 -13 -3 -5 -6z"/>
<path d="M3681 2430 c22 -13 19 -64 -3 -68 -19 -4 -25 23 -8 31 6 3 5 4 -2 3
-7 -2 -13 -11 -13 -22 0 -14 7 -19 28 -20 24 -1 27 3 27 30 0 32 -15 56 -34
56 -6 0 -4 -5 5 -10z"/>
<path d="M3741 2426 c-19 -23 -10 -71 14 -72 15 -1 16 0 3 3 -12 3 -18 14 -18
33 0 17 7 33 18 39 9 6 12 11 6 11 -6 0 -17 -6 -23 -14z"/>
<path d="M3917 2433 c-3 -5 5 -8 18 -8 13 0 21 3 18 8 -2 4 -10 7 -18 7 -8 0
-16 -3 -18 -7z"/>
<path d="M3996 2432 c-3 -5 5 -8 17 -8 18 1 22 -5 22 -29 0 -25 -4 -30 -23
-29 -16 0 -20 -2 -12 -10 15 -15 44 5 48 33 6 35 -36 69 -52 43z"/>
<path d="M4322 2395 c1 -32 3 -39 5 -20 3 17 12 39 21 50 16 18 16 19 0 7 -13
-10 -17 -10 -21 0 -3 7 -5 -9 -5 -37z"/>
<path d="M4921 2430 c22 -13 19 -64 -3 -68 -19 -4 -25 23 -8 31 6 3 5 4 -2 3
-7 -2 -13 -11 -13 -22 0 -14 7 -19 28 -20 24 -1 27 3 27 30 0 32 -15 56 -34
56 -6 0 -4 -5 5 -10z"/>
<path d="M4971 2379 c1 -35 4 -54 6 -43 3 15 10 20 22 17 10 -3 21 -1 24 4 3
5 -4 9 -16 9 -18 -1 -22 5 -23 31 0 18 -3 36 -7 39 -4 4 -6 -22 -6 -57z"/>
<path d="M5110 2425 c-6 -8 -10 -22 -7 -32 4 -14 5 -14 6 4 0 12 9 27 19 32 9
6 12 11 6 11 -6 0 -17 -7 -24 -15z"/>
<path d="M5223 2429 c9 -5 18 -22 18 -37 2 -24 2 -25 6 -4 5 24 -12 52 -31 52
-6 0 -3 -5 7 -11z"/>
<path d="M5581 2379 c1 -35 4 -54 6 -43 3 15 10 20 22 17 10 -3 21 -1 24 4 3
5 -4 9 -16 9 -18 -1 -22 5 -23 31 0 18 -3 36 -7 39 -4 4 -6 -22 -6 -57z"/>
<path d="M5610 2436 c0 -2 7 -7 16 -10 8 -3 12 -2 9 4 -6 10 -25 14 -25 6z"/>
<path d="M5716 2431 c-3 -5 3 -7 14 -4 14 4 20 0 20 -12 0 -13 -6 -16 -26 -12
-21 4 -25 1 -22 -16 4 -26 34 -45 48 -31 8 8 4 10 -11 10 -12 -1 -24 5 -26 12
-3 7 5 12 22 12 22 0 26 4 23 22 -3 24 -32 36 -42 19z"/>
<path d="M5193 2375 c0 -33 2 -45 4 -27 2 18 2 45 0 60 -2 15 -4 0 -4 -33z"/>
<path d="M5503 2390 c0 -25 2 -35 4 -22 2 12 2 32 0 45 -2 12 -4 2 -4 -23z"/>
<path d="M3590 2408 c0 -9 -5 -18 -12 -20 -7 -3 -9 -11 -4 -24 7 -16 10 -15
18 15 5 18 7 36 4 39 -3 3 -6 -2 -6 -10z"/>
<path d="M5406 2392 c-5 -18 -5 -36 -2 -39 3 -4 6 3 6 15 0 30 46 31 55 1 9
-27 16 -20 8 9 -3 15 -13 22 -28 22 -13 0 -25 6 -28 13 -2 6 -7 -3 -11 -21z"/>
<path d="M5552 2395 c0 -16 2 -22 5 -12 2 9 2 23 0 30 -3 6 -5 -1 -5 -18z"/>
<path d="M3903 2391 c2 -29 31 -51 47 -35 8 8 4 10 -12 10 -15 -1 -24 7 -29
24 -8 25 -8 25 -6 1z"/>
<path d="M3961 2394 c0 -11 3 -14 6 -6 3 7 2 16 -1 19 -3 4 -6 -2 -5 -13z"/>
<path d="M5161 2394 c0 -11 3 -14 6 -6 3 7 2 16 -1 19 -3 4 -6 -2 -5 -13z"/>
<path d="M5641 2394 c0 -11 3 -14 6 -6 3 7 2 16 -1 19 -3 4 -6 -2 -5 -13z"/>
<path d="M7436 2374 c-10 -9 -15 -30 -14 -52 l1 -37 4 37 c5 49 27 67 53 43
11 -10 20 -15 20 -12 0 9 -30 37 -40 37 -5 0 -16 -7 -24 -16z"/>
<path d="M7923 2383 c-26 -10 -14 -50 17 -63 36 -15 39 -37 8 -50 -16 -6 -18
-9 -7 -9 22 -1 43 25 35 44 -3 8 -17 20 -31 25 -26 10 -33 34 -15 45 6 4 17 1
25 -5 9 -7 15 -8 15 -2 0 8 -26 25 -33 21 -1 0 -8 -3 -14 -6z"/>
<path d="M4110 2371 c0 -6 4 -13 10 -16 6 -3 7 1 4 9 -7 18 -14 21 -14 7z"/>
<path d="M6754 2365 c-3 -8 -3 -18 0 -24 9 -14 66 -41 66 -31 0 4 -14 13 -31
19 -24 8 -30 15 -26 31 6 23 -1 27 -9 5z"/>
<path d="M7603 2320 c0 -36 2 -50 4 -32 2 17 2 47 0 65 -2 17 -4 3 -4 -33z"/>
<path d="M8005 2369 c-4 -6 -5 -12 -2 -15 2 -3 7 2 10 11 7 17 1 20 -8 4z"/>
<path d="M8057 2360 c4 -13 -4 -27 -26 -46 -43 -36 -41 -54 7 -52 36 1 36 1 5
5 -41 5 -41 16 -3 43 29 21 40 53 21 64 -5 4 -7 -3 -4 -14z"/>
<path d="M8105 2369 c-4 -6 -5 -12 -2 -15 2 -3 7 2 10 11 7 17 1 20 -8 4z"/>
<path d="M8157 2360 c4 -14 -3 -27 -21 -41 -14 -11 -31 -29 -36 -40 -10 -17
-7 -19 32 -17 37 1 38 2 11 5 -41 5 -41 16 -3 45 29 21 39 51 21 62 -5 4 -7
-3 -4 -14z"/>
<path d="M9981 2323 l-1 -63 29 0 c17 0 32 4 35 8 3 5 -8 6 -25 4 -26 -4 -29
-2 -29 23 0 24 3 27 28 23 23 -3 28 0 29 17 1 11 -1 14 -4 8 -3 -7 -15 -13
-28 -13 -18 0 -25 6 -28 28 -2 15 -5 -1 -6 -35z"/>
<path d="M10035 2370 c3 -5 8 -10 11 -10 2 0 4 5 4 10 0 6 -5 10 -11 10 -5 0
-7 -4 -4 -10z"/>
<path d="M10083 2320 c0 -36 2 -50 4 -32 5 40 28 42 42 2 5 -16 12 -30 15 -30
3 0 1 11 -4 25 -7 18 -6 31 2 44 13 21 5 51 -14 50 -10 0 -10 -2 0 -6 6 -2 12
-13 12 -24 0 -13 -7 -19 -24 -19 -19 0 -26 6 -29 28 -2 15 -4 -2 -4 -38z"/>
<path d="M10177 2323 c-9 -31 -15 -59 -13 -61 2 -2 7 6 11 17 9 30 55 29 55
-1 0 -12 3 -19 6 -15 3 3 3 21 -2 39 -4 18 -9 27 -11 21 -3 -7 -13 -13 -23
-13 -17 0 -18 3 -8 32 10 29 12 30 20 12 8 -18 8 -18 5 0 -5 40 -25 25 -40
-31z"/>
<path d="M10251 2375 c1 -19 18 -51 18 -35 0 8 -4 22 -9 30 -5 8 -9 11 -9 5z"/>
<path d="M10308 2336 c-12 -45 -28 -62 -28 -29 0 9 -2 14 -5 11 -8 -7 5 -58
14 -58 9 0 42 112 36 119 -3 2 -10 -17 -17 -43z"/>
<path d="M10353 2320 c0 -36 2 -50 4 -32 2 17 2 47 0 65 -2 17 -4 3 -4 -33z"/>
<path d="M10415 2370 c3 -5 8 -10 11 -10 2 0 4 5 4 10 0 6 -5 10 -11 10 -5 0
-7 -4 -4 -10z"/>
<path d="M10564 2368 c-4 -7 -3 -8 4 -4 8 5 12 -4 12 -28 0 -32 -3 -36 -26
-36 -16 0 -23 4 -18 12 4 7 3 8 -4 4 -22 -13 -12 -26 18 -26 22 0 30 -5 31
-17 0 -17 1 -17 7 -1 9 23 2 108 -8 108 -5 0 -12 -5 -16 -12z"/>
<path d="M10630 2320 c0 -35 3 -61 6 -57 7 7 7 107 0 115 -3 3 -6 -23 -6 -58z"/>
<path d="M10667 2354 c-16 -22 -16 -26 -3 -39 8 -8 18 -24 21 -36 4 -11 9 -18
12 -16 2 3 -3 20 -12 38 -14 26 -15 37 -6 52 18 28 9 29 -12 1z"/>
<path d="M10773 2320 c0 -36 2 -50 4 -32 4 28 8 32 33 32 25 0 29 -4 33 -32 2
-18 4 -4 4 32 0 36 -2 53 -4 38 -4 -23 -9 -28 -33 -28 -24 0 -29 5 -33 28 -2
15 -4 -2 -4 -38z"/>
<path d="M10872 2323 c-2 -58 0 -63 19 -63 31 0 59 18 58 38 0 14 -2 14 -6 2
-8 -19 -23 -30 -45 -30 -14 0 -18 11 -21 58 l-3 57 -2 -62z"/>
<path d="M10928 2362 c9 -10 19 -17 21 -16 6 5 -20 34 -30 34 -5 0 -1 -8 9
-18z"/>
<path d="M10983 2320 c0 -36 2 -50 4 -32 5 40 28 42 42 2 5 -16 12 -30 15 -30
3 0 1 11 -4 25 -7 18 -6 31 2 44 13 21 5 51 -14 50 -10 0 -10 -2 0 -6 6 -2 12
-13 12 -24 0 -13 -7 -19 -24 -19 -19 0 -26 6 -29 28 -2 15 -4 -2 -4 -38z"/>
<path d="M11113 2320 c0 -36 2 -51 4 -33 3 23 10 33 26 36 l22 4 -22 2 c-16 1
-23 9 -26 29 -2 15 -4 -2 -4 -38z"/>
<path d="M11273 2320 c0 -36 2 -50 4 -32 2 17 2 47 0 65 -2 17 -4 3 -4 -33z"/>
<path d="M11403 2365 c-3 -9 -3 -19 1 -22 3 -4 6 1 6 11 0 9 5 14 10 11 6 -3
10 -1 10 4 0 17 -20 13 -27 -4z"/>
<path d="M11782 2323 l-2 -63 38 2 c36 1 36 1 5 5 -31 4 -32 5 -36 61 l-3 57
-2 -62z"/>
<path d="M11871 2323 l-1 -63 38 2 c36 1 36 1 5 5 -27 4 -33 9 -33 28 0 17 7
25 23 28 22 4 22 4 0 6 -16 1 -23 9 -26 29 -2 15 -5 -1 -6 -35z"/>
<path d="M11952 2323 c-2 -58 0 -63 19 -63 31 0 59 18 58 38 0 14 -2 14 -6 2
-8 -19 -23 -30 -45 -30 -14 0 -18 11 -21 58 l-3 57 -2 -62z"/>
<path d="M12008 2368 c7 -7 12 -21 12 -32 0 -10 3 -17 6 -13 10 10 -5 57 -18
57 -9 0 -9 -3 0 -12z"/>
<path d="M5117 2358 c2 -5 10 -8 18 -8 8 0 16 3 18 8 3 4 -5 7 -18 7 -13 0
-21 -3 -18 -7z"/>
<path d="M5218 2353 c7 -3 16 -2 19 1 4 3 -2 6 -13 5 -11 0 -14 -3 -6 -6z"/>
<path d="M5528 2353 c7 -3 16 -2 19 1 4 3 -2 6 -13 5 -11 0 -14 -3 -6 -6z"/>
<path d="M6871 2340 c22 -13 19 -64 -3 -68 -19 -4 -25 23 -8 31 6 3 5 4 -2 3
-7 -2 -13 -11 -13 -22 0 -14 7 -19 28 -20 24 -1 27 3 27 30 0 32 -15 56 -34
56 -6 0 -4 -5 5 -10z"/>
<path d="M6920 2305 c0 -27 2 -46 4 -44 8 8 10 78 3 85 -4 4 -7 -14 -7 -41z"/>
<path d="M6957 2343 c6 -4 13 -26 16 -48 4 -40 4 -40 3 4 -1 30 -6 46 -16 48
-10 3 -11 2 -3 -4z"/>
<path d="M7007 2343 c6 -4 13 -26 16 -48 4 -40 4 -40 3 4 -1 30 -6 46 -16 48
-10 3 -11 2 -3 -4z"/>
<path d="M7053 2335 c-3 -9 -3 -19 1 -22 3 -4 6 2 6 11 0 13 6 17 20 13 11 -3
18 -1 14 4 -9 14 -34 10 -41 -6z"/>
<path d="M7213 2305 c0 -27 2 -38 4 -22 2 15 2 37 0 50 -2 12 -4 0 -4 -28z"/>
<path d="M7247 2343 c6 -4 13 -26 16 -48 4 -40 4 -40 3 4 -1 30 -6 46 -16 48
-10 3 -11 2 -3 -4z"/>
<path d="M7302 2338 c-5 -7 -10 -29 -9 -48 1 -33 3 -36 28 -32 19 3 29 -1 32
-12 4 -13 5 -13 3 1 -1 11 -11 19 -27 21 -21 2 -26 9 -27 32 0 18 6 34 16 40
9 5 12 10 6 10 -6 0 -16 -6 -22 -12z"/>
<path d="M7345 2335 c-3 -8 -7 -22 -10 -31 -3 -8 -1 -13 4 -10 5 3 11 17 13
31 6 27 0 34 -7 10z"/>
<path d="M7535 2340 c-3 -6 1 -7 9 -4 18 7 21 14 7 14 -6 0 -13 -4 -16 -10z"/>
<path d="M7646 2341 c-3 -5 2 -7 12 -4 16 4 19 -2 20 -33 1 -20 4 -40 7 -43 4
-3 5 14 3 39 -2 32 -8 46 -20 48 -9 2 -19 -1 -22 -7z"/>
<path d="M7723 2330 c13 -22 13 -28 0 -50 -14 -23 -14 -23 0 -6 9 10 19 16 24
13 4 -3 8 5 8 18 0 13 -4 21 -8 18 -5 -3 -15 3 -24 13 -14 17 -14 17 0 -6z"/>
<path d="M10431 2334 c0 -11 3 -14 6 -6 3 7 2 16 -1 19 -3 4 -6 -2 -5 -13z"/>
<path d="M11434 2333 c3 -17 -1 -23 -14 -23 -10 0 -20 6 -23 13 -2 6 -7 -3
-11 -21 -5 -18 -5 -36 -2 -39 3 -4 6 3 6 15 0 30 46 31 55 1 4 -11 9 -19 11
-17 2 3 -3 24 -11 49 -8 24 -13 34 -11 22z"/>
<path d="M11482 2301 c1 -41 2 -42 5 -11 3 19 9 40 14 46 5 7 3 11 -6 11 -11
0 -15 -12 -13 -46z"/>
<path d="M11532 2305 c1 -32 3 -39 5 -20 3 17 12 39 21 50 16 18 16 19 0 7
-13 -10 -17 -10 -21 0 -3 7 -5 -9 -5 -37z"/>
<path d="M11596 2341 c-4 -5 3 -7 15 -4 18 5 20 2 17 -28 -3 -36 -32 -53 -41
-24 -4 12 -5 11 -3 -2 1 -12 10 -18 29 -19 27 -1 28 1 25 40 -2 29 -8 42 -20
44 -9 2 -19 -1 -22 -7z"/>
<path d="M1123 2275 c0 -53 1 -61 6 -30 7 46 37 62 45 23 3 -13 7 -32 9 -43 3
-11 5 -4 6 15 1 45 -11 64 -37 58 -17 -5 -22 0 -25 21 -2 14 -4 -5 -4 -44z"/>
<path d="M7134 2306 c1 -26 6 -41 16 -43 10 -3 11 -2 3 4 -6 4 -13 24 -16 43
-4 34 -4 33 -3 -4z"/>
<path d="M7178 2305 c-2 -19 0 -35 4 -35 4 0 8 16 8 35 0 19 -2 35 -4 35 -2 0
-6 -16 -8 -35z"/>
<path d="M7568 2328 c-2 -7 -1 -26 3 -43 6 -28 7 -26 8 13 1 42 -3 53 -11 30z"/>
<path d="M7791 2336 c-1 -5 4 -26 11 -48 10 -33 9 -41 -3 -49 -10 -6 -10 -9
-1 -9 13 0 36 49 27 58 -3 3 -5 1 -6 -4 0 -5 -7 7 -14 26 -7 19 -14 31 -14 26z"/>
<path d="M11194 2306 c1 -26 6 -41 16 -43 10 -3 11 -2 3 4 -6 4 -13 24 -16 43
-4 34 -4 33 -3 -4z"/>
<path d="M11238 2304 c-2 -19 0 -37 4 -40 4 -3 8 13 8 35 0 51 -6 53 -12 5z"/>
<path d="M499 2314 c-14 -17 -5 -28 47 -60 16 -10 17 -14 6 -25 -10 -11 -16
-11 -33 -1 -25 16 -36 10 -14 -8 8 -7 25 -10 40 -6 35 9 33 42 -5 61 -16 9
-30 22 -30 30 0 18 31 20 50 3 12 -11 12 -10 1 5 -17 21 -44 22 -62 1z"/>
<path d="M10386 2306 c-4 -15 -5 -31 -1 -34 3 -3 5 2 5 11 0 26 47 22 55 -4 9
-27 16 -20 8 9 -3 15 -13 22 -28 22 -13 0 -25 6 -27 12 -3 7 -8 0 -12 -16z"/>
<path d="M922 2304 c-7 -8 -8 -14 -3 -14 5 0 11 -17 13 -37 3 -32 7 -38 28
-40 25 -3 25 -3 3 7 -17 7 -23 18 -23 40 0 24 4 30 23 31 20 1 20 2 2 6 -11 3
-22 9 -25 13 -3 4 -11 2 -18 -6z"/>
<path d="M7473 2313 c28 -7 16 -38 -15 -38 -15 1 -24 -3 -22 -7 3 -5 19 -7 35
-6 25 2 29 6 29 30 0 23 -4 28 -22 27 -18 -1 -19 -2 -5 -6z"/>
<path d="M7071 2307 c2 -1 13 -9 24 -17 19 -14 19 -14 6 3 -7 9 -18 17 -24 17
-6 0 -8 -1 -6 -3z"/>
<path d="M7524 2295 c-8 -19 4 -35 24 -34 15 1 15 2 0 6 -21 5 -24 29 -5 36 9
4 9 6 -1 6 -7 1 -15 -6 -18 -14z"/>
<path d="M592 2252 l1 -47 4 43 c5 54 26 51 34 -4 l6 -39 2 43 c0 23 5 42 10
42 6 0 12 -19 14 -42 l4 -43 1 46 2 47 -40 0 -40 1 2 -47z"/>
<path d="M716 2292 c-3 -5 5 -8 17 -8 16 1 22 -5 24 -27 2 -31 -21 -47 -40
-28 -9 9 -8 14 3 22 13 9 13 10 0 6 -8 -2 -15 -12 -15 -23 0 -15 7 -19 33 -20
33 -1 33 0 30 40 -2 33 -7 42 -25 44 -11 2 -24 -1 -27 -6z"/>
<path d="M821 2250 l2 -45 6 40 c5 31 11 41 31 46 22 7 21 7 -7 6 -32 -1 -33
-2 -32 -47z"/>
<path d="M1011 2236 c1 -34 3 -53 6 -44 2 9 16 18 31 20 24 3 27 7 27 43 0 38
-1 40 -32 41 l-33 1 1 -61z m57 21 c2 -18 -2 -29 -13 -33 -24 -9 -39 10 -31
41 9 35 40 30 44 -8z"/>
<path d="M1233 2293 c-21 -8 -16 -71 6 -78 32 -10 51 5 51 40 0 38 -22 53 -57
38z m42 -38 c0 -23 -4 -30 -20 -30 -21 0 -31 25 -21 51 11 28 41 12 41 -21z"/>
<path d="M1327 2287 c-1 -5 0 -26 2 -46 l5 -36 6 40 c3 27 11 41 23 43 14 3
17 -4 17 -37 0 -23 5 -41 10 -41 15 0 12 66 -3 78 -15 13 -55 12 -60 -1z"/>
<path d="M1429 2279 c-23 -44 19 -86 61 -59 11 7 8 9 -14 7 -16 -1 -31 4 -33
11 -3 8 6 12 26 12 32 0 41 16 19 38 -19 19 -46 14 -59 -9z m59 -6 c2 -8 -6
-13 -22 -13 -25 0 -33 10 -19 24 10 10 36 3 41 -11z"/>
<path d="M1541 2286 c-12 -14 -2 -27 32 -39 9 -4 17 -11 17 -17 0 -14 -33 -13
-48 2 -9 9 -12 9 -12 0 0 -16 49 -27 62 -14 16 16 2 42 -22 42 -12 0 -20 7
-20 16 0 12 6 15 26 10 17 -5 23 -3 19 4 -9 14 -40 12 -54 -4z"/>
<path d="M6759 2278 c14 -19 46 -24 55 -9 4 5 -3 7 -14 4 -11 -3 -28 1 -38 8
-15 13 -16 12 -3 -3z"/>
<path d="M11686 2281 c-4 -7 -5 -15 -2 -18 9 -9 19 4 14 18 -4 11 -6 11 -12 0z"/>
<path d="M3610 2220 c0 -35 2 -61 5 -58 8 7 9 108 1 115 -3 3 -6 -22 -6 -57z"/>
<path d="M7058 2268 c5 -5 16 -8 23 -6 8 3 3 7 -10 11 -17 4 -21 3 -13 -5z"/>
<path d="M7638 2268 c5 -5 16 -8 23 -6 8 3 3 7 -10 11 -17 4 -21 3 -13 -5z"/>
<path d="M3542 2241 c-8 -5 -12 -22 -10 -42 2 -26 8 -34 23 -35 16 -1 17 0 2
3 -25 6 -20 69 5 67 10 -1 15 2 12 7 -6 11 -15 11 -32 0z"/>
<path d="M3647 2243 c6 -4 13 -26 16 -48 4 -40 4 -40 3 4 -1 30 -6 46 -16 48
-10 3 -11 2 -3 -4z"/>
<path d="M3693 2205 c0 -27 2 -38 4 -22 2 15 2 37 0 50 -2 12 -4 0 -4 -28z"/>
<path d="M3732 2185 l1 -60 6 55 c4 40 10 55 21 55 23 0 26 -62 3 -69 -15 -4
-15 -5 2 -3 14 2 21 11 23 30 4 34 -12 56 -39 54 -17 -1 -19 -9 -17 -62z"/>
<path d="M3550 1820 c0 -6 17 -19 38 -28 34 -16 130 -17 1242 -17 1127 0 1207
1 1237 17 17 10 34 22 38 28 4 6 -430 10 -1275 10 -894 0 -1280 -3 -1280 -10z"/>
<path d="M6770 1816 c33 -41 36 -41 1280 -41 1103 0 1198 1 1233 17 20 9 37
22 37 27 0 8 -392 11 -1281 11 -1118 0 -1280 -2 -1269 -14z"/>
<path d="M10000 1816 c33 -41 36 -41 1275 -41 1239 0 1242 0 1275 41 11 12
-152 14 -1275 14 -1123 0 -1286 -2 -1275 -14z"/>
<path d="M502 1548 c-16 -16 -16 -80 0 -96 17 -17 43 -15 59 6 11 14 11 15 -1
5 -23 -21 -49 -15 -56 12 -14 58 19 95 56 63 12 -11 12 -10 1 5 -16 20 -42 22
-59 5z"/>
<path d="M1022 1534 c-7 -8 -8 -14 -2 -14 5 0 10 -11 10 -24 0 -39 11 -56 34
-55 14 0 16 2 6 6 -20 8 -30 24 -30 51 0 16 6 22 23 23 20 1 20 2 2 6 -11 3
-22 9 -25 13 -3 4 -11 2 -18 -6z"/>
<path d="M599 1509 c-8 -16 -8 -28 0 -45 18 -41 71 -25 71 21 0 44 -50 61 -71
24z m56 -8 c7 -24 -3 -51 -21 -51 -20 0 -34 31 -23 52 13 23 36 23 44 -1z"/>
<path d="M701 1508 c1 -17 3 -18 6 -5 8 31 22 18 26 -25 l4 -43 1 43 c1 29 6
42 16 42 10 0 16 -14 19 -42 l4 -43 -1 45 c-1 45 -1 45 -38 48 -34 3 -38 1
-37 -20z"/>
<path d="M813 1470 c0 -36 1 -57 4 -47 2 9 13 17 24 17 45 0 49 80 5 88 -15 3
-15 1 3 -17 17 -17 19 -25 11 -41 -18 -35 -39 -24 -43 23 -2 28 -4 21 -4 -23z"/>
<path d="M914 1490 c1 -44 2 -45 34 -46 32 -1 32 -1 31 45 l-2 46 -6 -40 c-5
-31 -10 -40 -26 -40 -16 0 -21 9 -26 40 l-7 40 2 -45z"/>
<path d="M1119 1509 c-16 -31 3 -69 35 -69 14 0 27 4 31 9 3 6 -7 9 -21 8 -15
-1 -29 4 -31 11 -3 8 6 12 26 12 32 0 41 16 19 38 -19 19 -46 14 -59 -9z m59
-6 c2 -8 -6 -13 -22 -13 -25 0 -33 10 -19 24 10 10 36 3 41 -11z"/>
<path d="M1230 1483 c0 -24 5 -43 10 -43 6 0 10 16 10 35 0 28 5 38 23 45 19
7 18 8 -10 7 -32 -2 -33 -4 -33 -44z"/>
<path d="M1337 1523 c-15 -14 -6 -33 18 -39 14 -3 25 -12 25 -20 0 -16 -36
-19 -43 -4 -3 6 -4 5 -3 -2 4 -18 34 -22 51 -8 18 15 11 28 -22 41 -28 10 -21
33 8 26 11 -3 17 -1 13 4 -6 10 -38 12 -47 2z"/>
<path d="M702 1460 c0 -14 2 -19 5 -12 2 6 2 18 0 25 -3 6 -5 1 -5 -13z"/>
<path d="M8070 815 c-96 -7 -265 -18 -375 -25 -468 -28 -556 -37 -581 -61 -13
-12 -21 -26 -18 -30 3 -5 5 -164 4 -354 l0 -345 840 0 841 0 -2 120 -1 120
-27 0 c-14 0 -96 -7 -181 -15 -85 -8 -299 -29 -475 -45 -176 -17 -388 -37
-471 -45 -216 -21 -194 -28 -194 59 l0 74 38 6 c20 3 174 17 342 31 168 14
404 35 525 47 121 12 245 23 275 24 115 6 145 11 145 25 0 8 9 14 19 14 11 0
21 5 23 10 3 11 -10 10 -532 -34 -723 -61 -818 -70 -826 -82 -3 -6 -6 4 -6 21
0 16 4 30 9 30 11 0 0 59 -13 76 -5 6 -7 19 -3 28 3 9 2 16 -3 16 -5 0 -8 13
-5 29 4 27 7 29 65 36 61 7 62 8 32 20 -26 11 -20 13 69 14 65 1 95 -2 91 -9
-8 -13 16 -13 163 0 65 5 207 17 317 26 110 8 202 20 203 25 4 11 39 12 44 1
3 -9 316 13 326 22 3 3 -2 6 -11 6 -19 0 -23 16 -5 22 24 8 -1 38 -32 38 -16
0 -30 5 -30 10 0 6 -6 10 -14 10 -7 0 -27 7 -42 15 -16 8 -37 15 -46 15 -9 0
-19 4 -22 9 -3 4 -27 14 -53 22 -27 7 -59 19 -73 26 -29 15 -92 15 -330 -2z
m-537 -182 c-7 -2 -19 -2 -25 0 -7 3 -2 5 12 5 14 0 19 -2 13 -5z m-111 -225
c2 -18 1 -46 -2 -63 -5 -25 -7 -27 -13 -12 -10 26 -9 107 2 107 5 0 10 -15 13
-32z"/>
<path d="M4313 716 l-28 -24 -3 -346 c-2 -239 0 -346 7 -346 8 0 12 106 13
333 l3 332 5 -335 5 -335 3 328 2 328 24 24 c23 23 31 24 140 24 74 -1 118 -5
125 -12 5 -7 20 -39 34 -72 14 -33 32 -76 40 -96 14 -31 14 -36 1 -36 -10 0
-13 7 -9 21 5 19 5 19 -8 -2 -13 -23 -13 -23 -27 13 -7 19 -18 35 -24 35 -5 0
-7 -3 -3 -6 3 -4 -1 -20 -9 -36 -9 -17 -11 -27 -6 -24 14 8 25 -25 12 -38 -5
-5 -10 -14 -10 -20 0 -5 7 -1 15 10 13 17 14 17 15 2 0 -9 -4 -19 -9 -22 -5
-3 -7 -15 -4 -26 8 -31 21 -33 15 -2 -3 15 -2 24 2 21 3 -3 8 -21 10 -40 2
-19 4 -38 5 -42 0 -5 6 -5 13 -1 6 4 8 3 4 -4 -17 -27 196 -322 232 -322 16 0
17 -1 -46 85 -18 25 -31 45 -29 45 2 0 26 -29 53 -65 l49 -65 108 0 107 0 2
333 3 332 5 -335 c4 -281 6 -316 12 -215 4 66 5 223 1 350 -6 221 -7 230 -29
252 l-23 23 -385 0 -385 0 -28 -24z m210 7 c-23 -2 -64 -2 -90 0 -26 2 -7 3
42 3 50 0 71 -1 48 -3z m490 0 c-23 -2 -64 -2 -90 0 -26 2 -7 3 42 3 50 0 71
-1 48 -3z m-383 -223 c0 -5 -4 -10 -10 -10 -5 0 -10 5 -10 10 0 6 5 10 10 10
6 0 10 -4 10 -10z m58 -135 c-3 -3 -9 2 -12 12 -6 14 -5 15 5 6 7 -7 10 -15 7
-18z m36 -61 c3 -8 2 -12 -4 -9 -6 3 -10 10 -10 16 0 14 7 11 14 -7z m87 -149
l10 -20 -16 20 c-9 11 -21 29 -26 40 l-10 20 16 -20 c9 -11 21 -29 26 -40z"/>
<path d="M8229 576 c-2 -2 -80 -9 -174 -16 -93 -7 -171 -13 -173 -15 -2 -1 5
-33 14 -70 l17 -67 61 6 c34 3 122 10 196 16 159 13 200 19 200 27 0 4 -7 33
-16 65 l-17 58 -52 0 c-28 0 -54 -2 -56 -4z"/>
<path d="M8510 533 c0 -21 24 -53 40 -53 5 0 15 -3 24 -6 9 -3 16 -1 16 5 0 6
-3 10 -7 9 -17 -3 -44 16 -58 41 -13 24 -14 25 -15 4z"/>
<path d="M8640 542 c0 -16 30 -50 49 -55 10 -2 25 -1 32 4 10 6 8 9 -8 9 -13
0 -30 11 -39 25 -16 24 -34 33 -34 17z"/>
<path d="M4576 532 c-3 -5 1 -9 9 -9 8 0 12 4 9 9 -3 4 -7 8 -9 8 -2 0 -6 -4
-9 -8z"/>
<path d="M10120 250 l0 -250 47 0 c37 0 44 3 35 12 -7 7 -12 20 -12 29 0 10
-8 24 -19 31 -13 10 -20 29 -22 68 l-4 55 62 10 c34 5 68 16 75 22 6 7 16 13
21 13 6 0 25 16 43 35 19 18 34 32 34 29 0 -9 26 20 32 37 5 12 -3 16 -36 18
-47 2 -53 6 -59 41 -4 21 -4 20 -6 -7 0 -18 -5 -33 -11 -33 -5 0 -10 5 -10 11
0 8 -4 8 -14 0 -10 -8 -16 -9 -21 -2 -4 7 -12 7 -25 -2 -16 -10 -23 -8 -37 7
-17 18 -17 18 6 13 l23 -6 -22 21 c-19 18 -20 22 -7 36 16 16 47 10 47 -9 0
-6 -7 -8 -17 -5 -15 6 -14 4 2 -14 15 -16 20 -18 26 -7 9 15 7 36 -4 54 -13
21 105 25 648 19 292 -2 539 -5 550 -6 11 0 181 1 377 2 196 2 359 1 361 -2 3
-3 7 -66 9 -140 l3 -135 -128 -6 c-70 -4 -131 -10 -135 -14 -4 -4 48 -5 116
-3 81 3 122 1 122 -6 0 -6 5 -4 10 4 7 10 10 -7 10 -56 l0 -72 -113 0 c-62 0
-125 -5 -140 -11 -15 -6 -31 -10 -35 -9 -4 1 -15 -2 -25 -7 -9 -4 -51 -3 -93
2 -58 7 -79 6 -92 -4 -14 -10 32 -12 256 -13 l272 0 0 250 0 250 -1050 0
-1050 0 0 -250z"/>
<path d="M7610 452 c0 -24 31 -52 56 -52 15 1 14 4 -8 16 -16 8 -28 21 -28 29
0 7 -4 17 -10 20 -5 3 -10 -2 -10 -13z"/>
<path d="M7757 450 c6 -22 43 -48 43 -30 0 12 -31 50 -41 50 -4 0 -5 -9 -2
-20z"/>
<path d="M7470 430 c0 -24 21 -40 50 -39 l25 1 -28 12 c-16 7 -33 19 -38 27
-7 12 -9 11 -9 -1z"/>
<path d="M4630 320 c11 -22 23 -40 25 -40 3 0 -4 18 -15 40 -11 22 -23 40 -25
40 -3 0 4 -18 15 -40z"/>
<path d="M10431 334 c0 -11 3 -14 6 -6 3 7 2 16 -1 19 -3 4 -6 -2 -5 -13z"/>
<path d="M4666 258 c34 -60 138 -208 147 -208 5 0 7 -3 4 -6 -4 -4 3 -15 15
-26 33 -29 33 -13 -1 29 -17 21 -46 57 -65 81 -19 24 -50 65 -67 92 -18 28
-34 50 -36 50 -2 0 -1 -6 3 -12z"/>
<path d="M7898 253 c6 -2 18 -2 25 0 6 3 1 5 -13 5 -14 0 -19 -2 -12 -5z"/>
<path d="M11375 90 c-4 -6 11 -10 39 -10 25 0 46 3 46 8 0 11 -78 14 -85 2z"/>
<path d="M11338 83 c7 -3 16 -2 19 1 4 3 -2 6 -13 5 -11 0 -14 -3 -6 -6z"/>
<path d="M11473 3 c9 -2 23 -2 30 0 6 3 -1 5 -18 5 -16 0 -22 -2 -12 -5z"/>
</g>
</svg>
