<?xml version="1.0" standalone="no"?>
<!DOCTYPE svg PUBLIC "-//W3C//DTD SVG 20010904//EN"
 "http://www.w3.org/TR/2001/REC-SVG-20010904/DTD/svg10.dtd">
<svg version="1.0" xmlns="http://www.w3.org/2000/svg"
 width="1246.000000pt" height="795.000000pt" viewBox="0 0 1246.000000 795.000000"
 preserveAspectRatio="xMidYMid meet">

<g transform="translate(0.000000,795.000000) scale(0.100000,-0.100000)"
fill="#000000" stroke="none">
<path d="M0 3975 l0 -3975 6220 0 6220 0 0 3950 c0 2627 3 3950 10 3950 6 0
10 11 10 25 l0 25 -6230 0 -6230 0 0 -3975z m7033 3492 c14 -30 14 -44 -11
-195 -23 -138 -29 -162 -44 -162 -10 0 -18 1 -18 3 0 1 11 79 25 172 14 94 23
180 20 193 -8 33 11 27 28 -11z m-119 -17 c0 -14 -13 -124 -28 -244 -14 -121
-25 -221 -23 -222 2 -2 32 8 67 23 55 22 74 25 130 20 61 -6 118 -22 148 -40
15 -10 15 -2 1 25 -20 37 2 41 97 18 177 -42 159 -30 191 -120 26 -74 43 -95
58 -70 3 5 31 26 62 47 53 35 57 36 97 25 81 -21 206 -74 206 -86 0 -7 -62
-50 -138 -96 -190 -113 -186 -109 -172 -145 17 -43 80 -267 80 -282 0 -19 -21
-16 -123 19 l-93 31 -18 64 c-10 34 -23 63 -29 63 -6 0 -33 -18 -61 -39 l-51
-40 -103 27 c-114 30 -122 40 -70 85 l33 28 -35 -8 c-19 -4 -82 -8 -140 -8
-91 0 -110 3 -144 23 -28 17 -42 20 -51 12 -10 -8 -39 -8 -107 0 -51 7 -112
12 -135 11 -50 -2 -137 33 -158 62 l-15 21 -42 -21 c-65 -32 -124 -45 -205
-45 l-73 1 0 -65 c0 -35 -4 -64 -8 -64 -4 0 -35 19 -67 43 -33 23 -97 66 -142
95 l-83 52 0 -28 c0 -16 5 -54 11 -86 6 -32 8 -60 5 -64 -8 -7 -189 -32 -198
-26 -3 2 -12 30 -18 62 -7 31 -19 81 -27 111 l-15 55 -16 -30 c-92 -180 -293
-219 -394 -76 -44 62 -55 88 -63 155 -11 83 13 145 84 215 70 72 135 98 218
88 30 -3 64 -11 75 -17 11 -6 21 -9 23 -7 3 2 -3 34 -12 70 -15 61 -18 66 -37
59 -37 -14 -46 -3 -46 59 0 58 1 59 43 88 23 16 77 48 121 72 62 34 80 40 87
29 10 -16 30 -110 60 -274 12 -66 24 -132 28 -148 l6 -27 70 47 70 48 78 -3
c69 -3 81 0 110 22 100 76 253 84 357 18 l43 -27 65 32 c43 22 79 33 107 33
l43 0 6 48 c3 26 8 95 12 154 3 61 11 111 17 116 17 14 188 61 212 59 14 -2
20 -9 19 -27z m-1190 -36 c9 -8 18 -25 21 -37 27 -134 34 -171 40 -228 6 -62
-4 -96 -20 -69 -6 9 -39 185 -52 275 -3 22 -10 48 -15 58 -11 22 5 23 26 1z
m676 -75 c68 -101 82 -145 56 -184 -14 -21 -19 -23 -35 -13 -17 11 -18 14 -5
32 26 37 17 79 -34 157 -65 100 -64 99 -54 99 5 0 38 -41 72 -91z m-108 -24
c26 -38 48 -77 48 -87 0 -12 -16 -19 -72 -28 -40 -6 -99 -18 -131 -26 -88 -21
-101 -19 -136 25 -17 21 -31 44 -31 49 0 18 227 143 254 139 12 -1 40 -31 68
-72z m-1143 -123 c40 -38 58 -79 47 -107 -11 -30 -33 -15 -40 28 -4 24 -20 58
-37 80 -39 48 -21 48 30 -1z m-128 -26 c53 -35 66 -81 44 -149 -17 -53 -88
-202 -118 -247 -16 -26 -16 -28 53 -139 39 -62 70 -117 70 -122 0 -19 -77
-119 -92 -119 -4 0 -40 44 -80 98 -39 53 -77 102 -82 109 -6 6 -22 26 -36 44
-14 18 -30 37 -35 43 -6 6 -33 39 -60 74 -42 52 -52 60 -61 47 -17 -22 -38
-18 -64 13 -13 15 -46 51 -73 81 l-51 54 25 19 c13 10 31 25 40 32 208 170
411 233 520 162z m2553 -182 c8 -21 8 -24 -3 -24 -5 0 -11 9 -14 20 -6 24 8
27 17 4z m456 -193 c0 -49 -20 -74 -91 -114 -221 -126 -211 -119 -206 -157 2
-19 16 -80 32 -134 17 -64 25 -112 21 -134 -6 -43 -50 -82 -91 -82 -30 0 -242
74 -258 89 -24 23 20 16 120 -20 105 -39 111 -40 145 -26 22 9 40 27 52 50 18
40 17 48 -33 227 -11 41 -21 80 -21 87 0 11 106 79 215 138 62 33 95 68 95
101 0 14 4 22 10 19 6 -3 10 -23 10 -44z m-1635 -261 c0 -8 -16 -19 -38 -25
-21 -6 -41 -15 -45 -20 -4 -6 -34 -10 -67 -10 -53 0 -60 -2 -61 -20 -2 -30
-31 -83 -53 -95 -28 -15 -67 -12 -81 5 -10 13 -9 15 9 15 38 0 71 30 82 75
l11 42 82 18 c46 9 89 21 97 26 21 14 64 6 64 -11z m190 -41 c72 -11 164 -22
205 -24 41 -2 91 -9 110 -14 19 -6 59 -11 87 -11 29 0 53 -4 53 -9 0 -5 3 -17
7 -27 5 -14 3 -16 -11 -11 -9 4 -47 12 -84 17 -36 6 -71 15 -77 20 -6 5 -20 9
-30 8 -11 -1 -69 7 -128 16 -70 12 -136 16 -188 13 -50 -4 -77 -2 -73 4 3 5
-5 19 -18 30 -20 18 -21 20 -3 14 11 -4 79 -16 150 -26z m-687 -35 c4 -42 -31
-82 -83 -94 -68 -16 -212 -24 -219 -12 -7 12 13 17 123 32 46 6 91 16 101 23
20 12 40 49 40 73 0 31 35 10 38 -22z m540 11 c-5 -22 -3 -24 20 -18 l26 6
-23 -32 c-24 -33 -41 -33 -41 0 0 10 -4 19 -8 19 -16 0 -10 39 6 43 9 3 19 5
21 6 2 0 1 -10 -1 -24z m-935 1 c18 -46 -181 -111 -239 -78 -16 9 -10 11 32
12 36 0 68 9 112 31 34 17 62 35 62 40 0 14 27 10 33 -5z m882 -37 c-4 -18 -3
-29 4 -29 6 0 11 -10 10 -22 0 -13 -3 -17 -6 -10 -7 18 -24 15 -21 -4 5 -25
-45 -58 -76 -50 -33 8 -26 26 30 78 24 22 41 44 38 49 -8 13 6 30 17 23 6 -3
7 -19 4 -35z m-1232 5 c11 -12 -45 -100 -78 -122 -32 -22 -75 -29 -75 -13 0 5
8 12 19 16 10 3 37 32 60 65 39 56 58 69 74 54z m1326 -41 c-31 -53 -50 -73
-81 -89 -58 -30 -67 -7 -10 27 20 13 39 27 40 31 2 4 9 8 15 8 7 0 20 14 29
30 9 17 20 30 23 30 4 0 -3 -17 -16 -37z m501 -23 c0 -4 -11 -10 -24 -12 -21
-4 -23 -3 -13 13 10 16 37 16 37 -1z m234 -25 l99 -25 39 20 c36 19 38 19 47
1 11 -20 -6 -42 -41 -54 -16 -6 -167 29 -212 48 -13 6 -21 4 -24 -3 -2 -7 -9
-12 -14 -12 -6 0 -8 3 -5 7 4 3 0 15 -10 25 -15 17 -15 18 3 18 11 0 64 -11
118 -25z m-254 -25 c0 -5 -2 -10 -4 -10 -3 0 -8 5 -11 10 -3 6 -1 10 4 10 6 0
11 -4 11 -10z m125 0 c3 -6 -1 -7 -9 -4 -18 7 -21 14 -7 14 6 0 13 -4 16 -10z
m-130 -50 c3 -5 -1 -10 -9 -10 -8 0 -18 5 -21 10 -3 6 1 10 9 10 8 0 18 -4 21
-10z m-1349 -42 c-9 -5 -22 -7 -29 -4 -7 2 -4 5 6 5 9 1 17 6 17 12 0 5 5 7
11 3 8 -5 6 -10 -5 -16z m-406 -13 c0 -8 -4 -15 -10 -15 -5 0 -10 7 -10 15 0
8 5 15 10 15 6 0 10 -7 10 -15z m90 -19 c0 -10 -70 -44 -74 -37 -8 12 4 21 26
21 10 0 18 5 18 10 0 6 7 10 15 10 8 0 15 -2 15 -4z m-112 -27 c7 -12 11 -24
8 -27 -3 -3 -6 0 -6 6 0 7 -7 12 -16 12 -8 0 -13 4 -10 9 4 5 0 12 -6 14 -9 4
-8 6 2 6 8 1 21 -8 28 -20z m596 -20 c-6 -11 -24 -2 -24 11 0 5 7 7 15 4 8 -4
12 -10 9 -15z m-164 -8 c0 -5 -3 -16 -6 -25 -5 -14 -8 -14 -21 -1 -8 8 -11 19
-8 25 8 13 35 13 35 1z m1275 -1 c3 -5 1 -10 -4 -10 -6 0 -11 5 -11 10 0 6 2
10 4 10 3 0 8 -4 11 -10z m-1670 -29 c-8 -14 -25 -14 -25 0 0 5 5 7 10 4 6 -3
10 -1 10 6 0 7 3 10 6 6 3 -3 3 -10 -1 -16z m585 -22 c0 -6 -4 -7 -10 -4 -5 3
-10 11 -10 16 0 6 5 7 10 4 6 -3 10 -11 10 -16z m-35 -11 c9 -25 12 -38 14
-52 0 -5 9 -2 19 5 15 12 15 11 -1 -8 -11 -12 -25 -19 -33 -16 -8 3 -31 -1
-52 -10 -20 -8 -43 -12 -49 -10 -16 6 -17 -9 -1 -25 9 -9 14 -8 22 2 14 17 63
29 70 18 4 -7 -104 -103 -140 -125 -7 -4 -25 -1 -41 6 -33 14 -34 47 -2 47 11
0 17 5 14 10 -3 6 -2 10 3 10 5 0 12 14 16 30 3 18 12 30 21 30 8 0 15 5 15
10 0 6 7 10 15 10 8 0 15 9 15 19 0 10 7 22 16 25 23 9 34 7 34 -5 0 -5 -4 -7
-10 -4 -5 3 -10 1 -10 -4 0 -6 4 -11 9 -11 5 0 17 -3 27 -7 13 -5 15 -3 9 8
-8 11 -10 43 -6 64 3 14 20 2 26 -17z m95 -3 c-13 -14 -27 -25 -32 -25 -9 0
42 49 51 50 3 0 -6 -11 -19 -25z m-260 0 c0 -8 -4 -15 -9 -15 -13 0 -22 16
-14 24 11 11 23 6 23 -9z m613 0 c6 -15 -10 -32 -20 -21 -4 3 -1 6 7 6 10 0
10 3 0 15 -7 9 -8 15 -2 15 5 0 12 -7 15 -15z m587 11 c0 -3 -4 -8 -10 -11 -5
-3 -10 -1 -10 4 0 6 5 11 10 11 6 0 10 -2 10 -4z m-1355 -23 c-4 -10 -10 -28
-12 -40 -8 -35 -73 -28 -73 8 0 19 42 46 74 48 14 1 16 -3 11 -16z m1805 -2
c19 -1 45 -10 58 -21 23 -19 23 -20 7 -48 -16 -27 -65 -44 -65 -22 0 6 9 10
20 10 11 0 20 4 20 10 0 5 -8 6 -17 3 -12 -5 -15 -2 -10 10 5 14 2 16 -21 11
-38 -9 -42 -13 -42 -34 0 -11 10 -20 25 -24 18 -5 23 -11 18 -24 -11 -31 -38
-51 -57 -40 -18 10 -13 30 7 22 7 -2 18 5 26 17 11 19 11 21 -2 16 -9 -3 -18
1 -21 9 -3 8 -12 14 -21 14 -10 0 -15 9 -15 26 0 23 2 25 15 14 9 -7 18 -10
21 -7 10 10 -5 39 -16 32 -5 -3 -10 2 -10 13 0 13 6 18 23 16 12 -1 38 -3 57
-3z m-1940 -41 c0 -5 0 -13 0 -17 0 -5 -9 -9 -20 -9 -23 -1 -25 7 -8 24 15 15
28 16 28 2z m201 -33 c-13 -13 -26 -3 -16 12 3 6 11 8 17 5 6 -4 6 -10 -1 -17z
m-55 -34 c19 -26 19 -49 -1 -33 -8 7 -12 17 -8 23 4 6 -2 8 -16 4 -18 -4 -20
-3 -10 9 15 18 19 18 35 -3z m54 1 c0 -8 -4 -12 -10 -9 -5 3 -10 10 -10 16 0
5 5 9 10 9 6 0 10 -7 10 -16z m1680 -14 c0 -5 -4 -10 -10 -10 -5 0 -10 5 -10
10 0 6 5 10 10 10 6 0 10 -4 10 -10z m-17 -84 c6 -15 -1 -26 -15 -26 -4 0 -8
9 -8 20 0 23 15 27 23 6z m852 -776 c3 -5 1 -10 -4 -10 -6 0 -11 5 -11 10 0 6
2 10 4 10 3 0 8 -4 11 -10z m-535 -415 l0 -225 -129 0 c-136 0 -141 -2 -141
-50 0 -20 -54 -50 -90 -50 -20 0 -22 4 -18 50 l3 50 -427 0 -428 0 0 225 0
225 615 0 615 0 0 -225z m1380 0 l0 -225 -615 0 -615 0 0 225 0 225 615 0 615
0 0 -225z m-3440 0 l0 -215 -925 0 -925 0 0 215 0 215 925 0 925 0 0 -215z
m205 44 c10 -16 -4 -24 -17 -11 -16 16 -28 15 -28 -2 0 -8 12 -17 26 -20 35
-9 30 -50 -6 -54 -28 -2 -58 13 -47 24 4 4 13 2 19 -4 16 -16 38 -15 38 2 0 8
-10 18 -22 22 -30 9 -40 25 -26 41 13 16 54 17 63 2z m295 -4 c0 -8 9 -15 20
-15 16 0 20 -7 20 -35 0 -19 -4 -35 -10 -35 -5 0 -10 14 -10 31 0 17 -4 28
-10 24 -5 -3 -10 -16 -10 -29 0 -19 -6 -23 -34 -24 -40 -2 -60 18 -51 49 6 16
13 20 36 17 23 -4 29 -1 29 14 0 10 5 18 10 18 6 0 10 -7 10 -15z m-215 -34
c4 -13 12 -17 25 -14 11 3 20 9 20 14 0 5 -7 6 -15 3 -8 -4 -15 -1 -15 6 0 6
11 10 28 8 22 -2 28 -8 30 -35 l3 -32 -65 1 c-68 0 -83 10 -71 49 8 25 52 25
60 0z m118 12 c-7 -2 -13 -18 -13 -34 0 -16 -4 -29 -10 -29 -5 0 -10 16 -10
35 0 30 3 35 23 34 12 0 16 -3 10 -6z m95 -366 c24 -36 27 -53 13 -61 -11 -7
-71 13 -71 23 0 16 22 71 28 71 4 0 17 -15 30 -33z m747 -227 c3 -5 1 -10 -4
-10 -6 0 -11 5 -11 10 0 6 2 10 4 10 3 0 8 -4 11 -10z m50 -20 c-3 -5 -12 -10
-18 -10 -7 0 -6 4 3 10 19 12 23 12 15 0z m214 -46 c2 -2 -25 -4 -60 -3 -42 0
-57 3 -44 8 18 8 94 3 104 -5z m71 6 c-8 -5 -24 -9 -35 -9 -16 1 -16 2 5 9 35
11 48 11 30 0z m320 -277 c0 -40 -37 -126 -70 -160 -20 -22 -50 -31 -50 -15 0
4 -13 16 -30 25 -16 10 -29 21 -28 25 1 4 -2 17 -6 30 -6 19 -1 29 26 53 32
30 121 77 146 78 7 1 12 -13 12 -36z m-262 -75 c16 -16 16 -188 -1 -209 -7 -8
-23 -18 -37 -22 -31 -8 -102 2 -94 14 3 5 -2 6 -11 3 -14 -6 -16 1 -12 43 2
27 6 54 9 59 3 5 11 25 17 45 8 24 23 42 49 57 42 25 63 27 80 10z m3087 -54
c182 -86 254 -355 166 -614 -34 -99 -51 -217 -34 -229 6 -3 20 -62 33 -131 35
-191 64 -282 146 -445 49 -99 79 -173 89 -219 13 -64 12 -139 -2 -176 -9 -21
-10 -28 -12 -46 0 -8 -5 -13 -11 -9 -5 3 -8 -7 -5 -25 2 -16 0 -30 -4 -30 -5
0 -8 -9 -7 -20 0 -11 -3 -21 -9 -22 -5 -2 -10 12 -11 30 -2 41 -10 49 -33 35
-11 -7 -45 -10 -82 -8 -68 4 -199 41 -199 57 0 6 -9 23 -21 39 -18 25 -19 35
-10 81 5 30 19 78 31 108 14 35 18 56 11 58 -6 2 -11 29 -11 60 -1 32 -7 90
-14 130 l-12 73 51 52 c49 49 95 128 111 191 10 42 -12 25 -36 -28 -11 -24
-26 -46 -35 -50 -8 -3 -15 -12 -15 -21 0 -8 -5 -15 -12 -15 -17 0 -48 -31 -48
-47 0 -8 5 -11 10 -8 6 4 8 10 6 14 -3 4 5 13 17 21 20 12 20 10 -4 -20 -14
-19 -32 -36 -40 -38 -12 -3 -12 -2 0 6 7 5 9 12 4 15 -10 7 -95 -71 -89 -82 5
-7 -46 -51 -58 -51 -2 0 -7 14 -11 31 -5 23 -11 29 -23 24 -48 -20 -55 -19
-49 8 4 14 10 32 13 41 7 17 -11 22 -21 6 -3 -5 -11 -10 -17 -10 -6 0 -2 10
10 23 12 12 35 55 51 94 35 86 102 190 165 257 41 43 55 66 41 66 -14 0 -112
-93 -137 -130 l-16 -25 -10 25 c-5 14 -19 34 -31 44 -11 11 -21 26 -20 35 0
10 2 12 6 4 5 -15 43 1 43 18 0 6 -5 7 -12 3 -7 -4 -8 -3 -4 4 4 6 12 9 19 7
16 -6 29 4 51 40 10 17 15 27 11 23 -5 -4 -13 -3 -20 2 -8 6 -35 3 -81 -10
-77 -22 -164 -26 -197 -9 -47 25 -127 132 -173 233 -14 31 -24 60 -21 63 3 3
13 -10 22 -28 39 -84 110 -189 149 -222 16 -13 36 -17 81 -16 33 1 65 5 70 9
6 4 30 15 54 24 25 10 57 26 73 37 15 11 33 17 39 13 7 -4 10 -3 7 2 -4 5 11
27 33 49 43 43 57 85 16 46 -24 -21 -26 -21 -182 -11 -180 12 -227 21 -258 46
-95 80 -114 120 -77 167 26 33 34 34 48 2 19 -41 47 -32 70 24 12 26 24 67 28
90 4 23 13 49 21 56 19 19 14 115 -5 107 -8 -3 -11 -13 -9 -24 4 -15 3 -17 -8
-8 -8 7 -19 9 -26 5 -27 -17 13 35 48 63 107 83 278 114 378 66z m-3412 -12
c31 -34 36 -282 6 -282 -6 0 -7 5 -4 10 3 6 1 10 -4 10 -6 0 -11 -4 -11 -10 0
-23 -68 -10 -101 20 -19 16 -40 30 -48 30 -11 0 -13 15 -8 82 4 45 11 86 17
92 5 5 10 16 10 24 0 40 112 58 143 24z m-5375 -93 c38 -46 121 -66 367 -88
197 -18 341 -97 396 -216 33 -71 29 -77 -58 -102 l-78 -22 -35 22 c-72 46
-148 70 -188 60 -46 -11 -94 -127 -133 -322 l-22 -110 -33 27 c-19 15 -34 30
-34 33 0 3 -8 16 -19 28 -22 25 -58 125 -100 275 -17 60 -43 134 -58 165 -15
31 -26 60 -25 64 1 5 -1 6 -6 3 -10 -6 -82 101 -82 123 0 27 18 82 36 109 l17
26 16 -24 c9 -13 26 -36 39 -51z m4909 21 c13 -26 17 -148 7 -187 -7 -26 -24
-31 -24 -8 0 8 -4 15 -10 15 -5 0 -10 6 -10 14 0 8 -6 16 -12 18 -9 3 -13 33
-15 92 l-2 87 27 -3 c16 -2 31 -12 39 -28z m-1346 -23 c-10 -9 -11 -8 -5 6 3
10 9 15 12 12 3 -3 0 -11 -7 -18z m2443 7 c5 -14 4 -15 -9 -4 -17 14 -19 20
-6 20 5 0 12 -7 15 -16z m162 0 c19 -15 19 -15 -2 -9 -16 4 -23 0 -27 -14 -6
-25 -56 -40 -67 -20 -5 7 -6 17 -3 22 3 5 -1 14 -8 19 -11 8 -10 9 3 4 10 -3
20 -1 23 4 9 15 59 12 81 -6z m-176 -34 c0 -31 -34 -63 -57 -56 -29 9 -41 40
-13 33 23 -6 23 -6 11 25 -8 22 -7 24 25 20 24 -3 34 -9 34 -22z m574 -3 c-6
-20 -5 -20 10 -8 23 19 30 8 8 -12 -27 -25 -84 -13 -80 16 2 13 13 24 28 28
33 8 42 2 34 -24z m-124 17 c0 -8 -19 -13 -24 -6 -3 5 1 9 9 9 8 0 15 -2 15
-3z m-242 -50 l29 -35 32 38 c31 36 33 37 46 19 8 -10 16 -24 18 -30 3 -6 18
2 35 18 l31 29 11 -27 c9 -24 6 -32 -22 -66 l-33 -39 -18 35 c-21 40 -31 38
-47 -11 -6 -19 -15 -35 -19 -35 -4 0 -25 18 -46 40 l-40 41 -30 -35 -30 -35
-34 29 -33 28 42 -10 c49 -13 60 -4 60 50 0 41 12 41 48 -4z m-6335 6 c3 -11
1 -18 -4 -14 -5 3 -9 12 -9 20 0 20 7 17 13 -6z m5961 5 c-4 -8 -11 -15 -16
-15 -6 0 -5 6 2 15 7 8 14 15 16 15 2 0 1 -7 -2 -15z m-2344 1 c0 -2 -8 -10
-17 -17 -16 -13 -17 -12 -4 4 13 16 21 21 21 13z m3000 -27 c0 -14 4 -18 13
-13 6 5 -1 -8 -18 -28 -34 -39 -40 -40 -49 -2 -5 20 -1 33 15 50 24 26 39 23
39 -7z m123 16 c-3 -9 -8 -14 -10 -11 -3 3 -2 9 2 15 9 16 15 13 8 -4z m1772
-32 c-9 -61 -23 -96 -35 -88 -15 9 -12 57 5 99 22 52 39 47 30 -11z m-8589 20
c60 -20 141 -98 178 -172 15 -29 45 -119 66 -201 53 -202 72 -243 143 -317
l60 -61 -69 -71 c-38 -40 -93 -91 -122 -114 -30 -23 -77 -61 -106 -85 -28 -24
-61 -45 -73 -48 -13 -4 -20 -11 -16 -18 3 -6 1 -6 -8 2 -7 6 -27 12 -43 12
-34 1 -114 21 -133 33 -8 5 -13 4 -13 -2 0 -6 -4 -11 -10 -11 -5 0 -10 6 -10
14 0 8 -9 18 -20 21 -42 13 -80 129 -80 246 0 85 27 204 64 283 13 28 41 101
62 161 32 93 38 123 38 195 1 63 -4 93 -17 118 l-18 32 39 0 c21 0 61 -8 88
-17z m6881 11 c-3 -3 -12 -4 -19 -1 -8 3 -5 6 6 6 11 1 17 -2 13 -5z m-766
-50 c30 -27 23 -42 -23 -54 -24 -6 -50 -14 -58 -17 -8 -3 -34 -8 -57 -10 -36
-4 -46 -1 -79 30 l-38 34 25 13 c60 33 196 35 230 4z m985 15 c52 -13 58 -20
49 -59 -5 -24 -13 -30 -51 -38 -54 -12 -81 -6 -111 21 -25 23 -28 39 -13 68
12 22 57 25 126 8z m-396 -70 c-21 -70 -35 -89 -62 -89 -11 0 -47 -12 -80 -27
l-60 -27 -47 26 c-25 14 -72 34 -104 43 -60 17 -66 25 -84 93 l-6 27 35 -27
35 -27 31 32 32 31 44 -43 44 -43 20 43 19 44 13 -27 c16 -35 33 -35 54 -3 21
33 29 32 47 -6 l15 -32 34 37 c19 20 35 36 36 36 1 0 -6 -27 -16 -61z m-5730
-1 c56 -29 125 -101 138 -145 18 -60 17 -63 -33 -63 -25 0 -45 4 -45 10 0 5
-9 34 -21 65 -20 53 -82 130 -124 154 -35 19 45 0 85 -21z m5895 6 c8 -4 22
-19 30 -34 14 -26 13 -28 -8 -34 -53 -14 -85 -7 -113 27 l-27 32 39 6 c60 9
61 9 79 3z m-1164 -27 c-10 -9 -11 -8 -5 6 3 10 9 15 12 12 3 -3 0 -11 -7 -18z
m153 11 c-2 -3 -13 -6 -24 -5 -24 2 -18 13 9 13 11 0 18 -4 15 -8z m1124 -23
c-3 -3 -9 2 -12 12 -6 14 -5 15 5 6 7 -7 10 -15 7 -18z m-7101 -27 c-3 -7 -5
-2 -5 12 0 14 2 19 5 13 2 -7 2 -19 0 -25z m5893 12 c0 -5 -5 -10 -11 -10 -5
0 -7 5 -4 10 3 6 8 10 11 10 2 0 4 -4 4 -10z m290 -20 c8 -5 12 -11 10 -14 -3
-2 -14 2 -24 10 -22 15 -10 19 14 4z m-153 -32 c29 -24 11 -52 -52 -77 l-60
-23 -33 38 -33 38 38 24 c30 18 47 22 82 18 24 -4 50 -11 58 -18z m309 -9 c-2
-17 -6 -32 -8 -34 -5 -5 -39 -7 -82 -6 -38 1 -38 2 -24 24 15 22 66 45 101 46
15 1 17 -5 13 -30z m-6349 -1 c-3 -8 -6 -5 -6 6 -1 11 2 17 5 13 3 -3 4 -12 1
-19z m3593 8 c0 -2 -8 -10 -17 -17 -16 -13 -17 -12 -4 4 13 16 21 21 21 13z
m3360 -10 c61 -15 64 -25 25 -65 -22 -22 -27 -23 -52 -12 -53 24 -102 62 -96
77 6 17 50 17 123 0z m-744 -24 c-17 -16 -18 -16 -5 5 7 12 15 20 18 17 3 -2
-3 -12 -13 -22z m-3226 -3 c0 -5 -5 -7 -12 -3 -8 5 -9 1 -4 -12 5 -14 4 -16
-5 -7 -6 6 -8 16 -5 22 9 14 26 14 26 0z m3390 1 c0 -5 -5 -10 -11 -10 -5 0
-7 5 -4 10 3 6 8 10 11 10 2 0 4 -4 4 -10z m955 0 c3 -6 -1 -7 -9 -4 -18 7
-21 14 -7 14 6 0 13 -4 16 -10z m-7361 -97 c-15 -37 -44 -107 -65 -154 -52
-115 -73 -220 -66 -329 3 -47 8 -94 13 -105 7 -17 6 -18 -8 -7 -13 10 -17 10
-22 0 -3 -7 -4 -3 -2 9 2 13 0 26 -5 29 -5 3 -9 -7 -9 -22 0 -49 -8 -20 -15
50 -3 39 -11 76 -18 85 -10 12 -9 13 2 7 11 -7 11 -5 4 9 -16 28 18 122 90
253 60 109 115 232 118 264 1 7 3 6 6 -4 2 -9 -8 -47 -23 -85z m6202 88 c-8
-12 19 -33 29 -23 5 4 5 1 1 -6 -6 -9 -13 -8 -31 5 -15 12 -19 20 -11 25 15
10 18 10 12 -1z m860 -7 c-9 -8 -16 -20 -16 -26 0 -6 -3 -9 -6 -6 -8 9 14 48
27 48 6 0 3 -7 -5 -16z m179 7 c3 -5 2 -12 -3 -15 -5 -3 -9 1 -9 9 0 17 3 19
12 6z m-4055 -27 c0 -8 -4 -14 -8 -14 -4 0 -8 9 -8 19 0 11 4 17 8 15 4 -3 8
-12 8 -20z m-1349 -36 c18 -34 59 -159 59 -177 0 -3 -6 3 -13 13 -8 11 -19 17
-25 15 -7 -2 10 -41 43 -99 101 -175 148 -332 149 -495 1 -98 -1 -114 -22
-147 -57 -90 -240 -198 -432 -254 -164 -48 -409 -43 -600 13 -90 26 -129 46
-197 100 -49 39 -59 24 -19 -25 36 -42 128 -87 241 -118 93 -26 114 -28 300
-28 220 -1 234 2 408 71 104 41 97 44 147 -75 42 -100 68 -205 76 -311 6 -82
5 -92 -15 -117 -11 -14 -21 -34 -21 -43 -1 -14 -3 -13 -15 3 -19 25 -41 15
-62 -29 l-17 -35 -29 27 -29 28 -31 -36 c-27 -30 -37 -36 -63 -32 -56 9 -128
92 -179 206 -31 72 -31 81 2 103 15 9 36 26 47 36 40 36 6 28 -79 -21 -94 -54
-190 -95 -245 -106 -19 -3 -60 -11 -90 -17 -47 -8 -226 -6 -235 4 -2 2 2 30 7
63 13 78 3 232 -18 284 -9 22 -19 39 -23 36 -4 -2 -1 -46 6 -97 20 -143 -3
-296 -61 -408 -17 -34 -28 -44 -44 -42 -13 2 -28 -7 -42 -26 -22 -29 -23 -29
-41 -11 -24 24 -34 24 -57 -1 l-19 -20 -18 20 c-22 24 -52 26 -77 4 -17 -16
-20 -15 -52 19 -52 55 -69 120 -74 282 -4 155 8 234 53 326 49 102 22 103 -33
1 l-29 -52 -32 40 c-30 38 -51 51 -51 32 0 -5 16 -30 36 -55 l36 -47 -12 -81
c-15 -95 -8 -267 14 -346 14 -52 11 -64 -11 -42 -17 17 -41 4 -65 -37 l-21
-36 -13 31 c-8 19 -20 31 -31 31 -25 0 -63 -28 -63 -46 0 -8 -4 -14 -10 -14
-5 0 -10 8 -10 19 0 24 -25 44 -55 46 -13 0 -22 -1 -20 -3 4 -5 -20 -32 -29
-32 -16 0 -58 53 -75 97 -74 188 -63 372 30 529 35 59 210 244 231 244 6 0 8
-3 5 -6 -15 -15 19 -48 76 -75 88 -41 117 -45 148 -20 28 22 129 210 129 240
0 27 -21 40 -73 47 l-45 6 41 37 c23 20 59 54 79 76 l37 40 -2 -70 c-3 -90 16
-101 25 -15 38 323 108 570 165 578 29 4 114 -32 187 -80 58 -38 81 -43 56
-13 -7 9 -10 18 -8 21 3 3 50 14 104 26 84 17 122 19 249 14 83 -3 182 -8 220
-11 75 -7 76 8 1 21 -34 5 -37 8 -20 17 39 22 131 46 176 46 46 1 48 0 69 -41z
m4699 38 c0 -3 -4 -8 -10 -11 -5 -3 -10 -1 -10 4 0 6 5 11 10 11 6 0 10 -2 10
-4z m-3470 -10 c0 -2 -8 -10 -17 -17 -16 -13 -17 -12 -4 4 13 16 21 21 21 13z
m3430 -6 c25 -15 -45 -69 -91 -70 -46 0 -52 7 -32 37 26 39 88 55 123 33z
m889 -38 c7 -24 11 -46 8 -49 -11 -10 -52 6 -80 33 -27 25 -28 27 -11 45 11
12 28 19 43 17 21 -2 29 -12 40 -46z m-1024 19 c3 -5 2 -12 -3 -15 -5 -3 -9 1
-9 9 0 17 3 19 12 6z m-3360 -11 c-3 -5 -12 -10 -18 -10 -7 0 -6 4 3 10 19 12
23 12 15 0z m3258 -34 c10 -20 20 -50 23 -66 6 -26 3 -29 -32 -39 -69 -19
-100 -14 -133 22 -35 36 -36 40 -17 56 26 22 121 71 131 68 6 -2 18 -20 28
-41z m-1549 -2 c7 -19 2 -18 -19 6 -16 17 -16 20 -3 15 9 -4 19 -13 22 -21z
m2511 0 c30 -15 58 -30 61 -35 2 -4 -13 -17 -35 -29 l-40 -20 -36 31 c-19 17
-35 38 -35 48 0 14 -2 14 -11 1 -9 -13 -10 -13 -6 0 2 8 9 15 15 15 5 0 14 3
18 8 10 9 6 11 69 -19z m-2653 -26 c-6 -6 -12 -6 -17 3 -6 8 -4 10 5 4 9 -5
10 -1 6 16 -6 21 -6 22 5 6 7 -13 8 -22 1 -29z m-1594 23 c11 -6 10 -10 -4
-15 -9 -3 -19 -4 -22 -1 -3 3 1 5 9 5 11 0 11 2 -1 10 -8 5 -10 10 -5 10 6 0
16 -4 23 -9z m1532 5 c0 -2 -8 -10 -17 -17 -16 -13 -17 -12 -4 4 13 16 21 21
21 13z m1567 -11 c0 -8 -4 -12 -9 -9 -5 3 -6 10 -3 15 9 13 12 11 12 -6z m822
-19 c-3 -3 -11 5 -18 17 -13 21 -12 21 5 5 10 -10 16 -20 13 -22z m1751 24 c0
-5 -4 -10 -10 -10 -5 0 -10 5 -10 10 0 6 5 10 10 10 6 0 10 -4 10 -10z m-2106
-9 c4 -1 5 -8 2 -17 -4 -10 -2 -13 6 -8 7 5 9 2 5 -9 -3 -8 0 -21 8 -27 10 -8
17 -6 29 12 14 19 18 21 26 8 5 -8 10 -11 10 -7 0 7 80 -35 105 -56 6 -4 19
-14 30 -21 16 -11 17 -18 8 -37 -11 -24 -11 -24 -27 14 -19 43 -27 42 -51 -9
l-17 -36 -26 39 -26 38 -16 -37 c-8 -21 -18 -38 -21 -38 -3 0 -12 19 -19 42
l-12 43 -29 -34 -28 -34 -20 24 c-15 18 -20 39 -21 80 0 73 5 77 84 70z
m-1649 -11 c-3 -5 -12 -10 -18 -10 -7 0 -6 4 3 10 19 12 23 12 15 0z m1502 -7
c0 -9 -4 -10 -14 -2 -7 6 -13 12 -13 14 0 1 6 2 13 2 8 0 14 -6 14 -14z
m-2136 -16 c-10 -9 -11 -8 -5 6 3 10 9 15 12 12 3 -3 0 -11 -7 -18z m25 -23
c-17 -17 -19 -12 -9 25 5 20 7 21 15 7 6 -11 4 -21 -6 -32z m594 20 c0 -2 -9
-4 -21 -4 -11 0 -18 4 -14 10 5 8 35 3 35 -6z m2229 -16 c15 -41 14 -83 -1
-95 -43 -34 -109 -18 -143 33 l-18 28 34 29 c19 16 26 27 16 23 -10 -3 -16 -2
-13 2 2 4 29 8 59 9 54 3 55 2 66 -29z m-2700 -23 c0 -5 -4 -3 -9 5 -5 8 -9
22 -9 30 0 16 17 -16 18 -35z m221 35 c0 -5 -7 -10 -15 -10 -8 0 -15 5 -15 10
0 6 7 10 15 10 8 0 15 -4 15 -10z m195 0 c-3 -5 -20 -19 -38 -32 -19 -13 -27
-15 -19 -6 7 9 9 18 5 20 -4 3 -2 3 5 1 8 -1 20 4 28 12 17 17 28 20 19 5z
m-1568 -27 c0 -10 -4 -10 -16 -1 -9 7 -18 13 -20 15 -2 1 5 1 16 0 11 0 20 -7
20 -14z m1468 7 c-3 -5 -12 -10 -18 -10 -7 0 -6 4 3 10 19 12 23 12 15 0z
m1692 -25 c-24 -24 -29 -18 -10 11 9 15 19 22 21 15 2 -6 -3 -18 -11 -26z
m-3328 18 c-3 -19 2 -27 10 -14 6 9 11 10 15 2 4 -6 2 -11 -4 -11 -6 0 -8 -6
-4 -12 4 -7 -2 -5 -14 6 -12 10 -19 23 -16 27 6 11 14 12 13 2z m1355 -9 c3
-8 2 -12 -4 -9 -6 3 -10 10 -10 16 0 14 7 11 14 -7z m4475 -16 c14 -16 23 -19
42 -12 13 4 28 7 32 6 5 -1 6 2 2 8 -4 6 13 10 45 10 34 0 49 -4 45 -11 -4 -6
-14 -8 -22 -5 -8 3 -12 2 -9 -3 6 -9 -56 -54 -91 -65 -12 -4 -24 -2 -28 4 -10
16 -23 12 -30 -9 -8 -27 -74 -37 -113 -17 -35 18 -62 57 -62 90 0 33 12 37 99
30 58 -4 77 -9 90 -26z m43 10 c-9 -9 -15 -9 -24 0 -9 9 -7 12 12 12 19 0 21
-3 12 -12z m-4679 -29 c-9 -9 -12 -7 -10 9 1 14 5 18 11 12 7 -7 6 -14 -1 -21z
m-1017 8 c4 -4 -5 -7 -20 -7 -15 0 -25 4 -22 9 7 10 31 9 42 -2z m1601 -2 c0
-8 -4 -12 -9 -9 -5 3 -6 10 -3 15 9 13 12 11 12 -6z m2288 6 c3 -5 2 -12 -3
-15 -5 -3 -9 1 -9 9 0 17 3 19 12 6z m-2820 -19 c-3 -3 -11 0 -18 7 -9 10 -8
11 6 5 10 -3 15 -9 12 -12z m-1050 -20 c-3 -3 -11 0 -18 7 -9 10 -8 11 6 5 10
-3 15 -9 12 -12z m925 4 c0 -2 -8 -10 -17 -17 -16 -13 -17 -12 -4 4 13 16 21
21 21 13z m2610 -35 c0 -10 -7 -22 -16 -25 -22 -9 -32 3 -14 14 8 6 11 10 7
10 -11 0 2 20 14 20 5 0 9 -9 9 -19z m314 11 c3 -5 -1 -9 -9 -9 -8 0 -12 4 -9
9 3 4 7 8 9 8 2 0 6 -4 9 -8z m-2432 -11 c-8 -4 -13 -11 -13 -15 1 -3 -2 -6
-5 -5 -4 0 -11 -5 -15 -13 -6 -9 -9 -6 -9 10 0 13 4 21 9 17 5 -3 12 -1 16 5
3 5 12 10 18 10 8 0 8 -3 -1 -9z m1868 -21 c0 -13 -57 -29 -79 -23 -12 3 -21
12 -21 20 0 13 3 13 15 3 13 -11 19 -9 36 9 16 17 24 20 35 10 8 -6 14 -15 14
-19z m170 10 c10 -18 8 -20 -20 -20 -28 0 -30 2 -20 20 6 11 15 20 20 20 5 0
14 -9 20 -20z m600 5 c0 -2 -6 -5 -13 -8 -8 -3 -14 1 -14 8 0 7 6 11 14 8 7
-3 13 -6 13 -8z m-4046 -4 c3 -5 -3 -11 -15 -14 -16 -4 -18 -3 -8 9 13 16 16
17 23 5z m2904 -16 c-3 -3 -9 2 -12 12 -6 14 -5 15 5 6 7 -7 10 -15 7 -18z
m452 10 c11 -13 8 -15 -13 -15 -19 0 -25 4 -21 15 4 8 10 15 14 15 4 0 13 -7
20 -15z m-1843 -9 c0 -8 -6 -12 -15 -9 -11 5 -11 7 0 14 7 5 13 9 14 9 0 0 1
-6 1 -14z m1140 -2 c-3 -3 -12 -4 -19 -1 -8 3 -5 6 6 6 11 1 17 -2 13 -5z
m-2862 -25 c-4 -5 -12 -9 -18 -8 -9 0 -8 2 1 6 6 2 9 10 6 15 -4 7 -2 8 5 4 6
-4 9 -12 6 -17z m1260 12 c3 -5 2 -12 -3 -15 -5 -3 -9 1 -9 9 0 17 3 19 12 6z
m145 -1 c18 -12 2 -12 -25 0 -13 6 -15 9 -5 9 8 0 22 -4 30 -9z m266 -18 c-4
-3 -14 2 -24 12 -16 18 -16 18 6 6 13 -6 21 -14 18 -18z m2599 18 c-3 -5 -14
-10 -23 -10 -15 0 -15 2 -2 10 20 13 33 13 25 0z m-272 -7 c-7 -2 -19 -2 -25
0 -7 3 -2 5 12 5 14 0 19 -2 13 -5z m-3779 -32 c-2 -3 -12 3 -22 13 -16 17
-16 18 5 5 12 -7 20 -15 17 -18z m1246 15 c-7 -7 -13 -7 -20 0 -6 6 -3 10 10
10 13 0 16 -4 10 -10z m-1403 -2 c-3 -3 -12 -4 -19 -1 -8 3 -5 6 6 6 11 1 17
-2 13 -5z m223 -16 c0 -7 -5 -6 -13 1 -8 6 -18 7 -22 3 -5 -4 -5 -2 -1 5 8 14
36 6 36 -9z m-164 -6 c-3 -3 0 -12 6 -21 10 -13 10 -14 -2 -4 -16 15 -23 46
-8 37 5 -3 7 -9 4 -12z m1326 4 c7 4 8 2 4 -5 -9 -13 -26 -5 -25 12 0 9 2 8 6
-1 2 -6 10 -9 15 -6z m1334 -1 c-3 -23 -12 -26 -13 -5 -1 11 2 20 7 20 4 0 7
-7 6 -15z m-2751 -5 c3 -5 1 -10 -4 -10 -6 0 -11 5 -11 10 0 6 2 10 4 10 3 0
8 -4 11 -10z m5940 0 c3 -5 -1 -10 -10 -10 -9 0 -13 5 -10 10 3 6 8 10 10 10
2 0 7 -4 10 -10z m-4439 -18 c-10 -2 -22 0 -28 6 -6 6 0 7 19 4 21 -5 23 -7 9
-10z m1506 11 c-6 -2 -9 -10 -6 -15 4 -7 2 -8 -5 -4 -13 9 -5 26 12 25 9 0 8
-2 -1 -6z m-292 -8 c0 -2 -6 -8 -13 -14 -10 -8 -14 -7 -14 2 0 8 6 14 14 14 7
0 13 -1 13 -2z m-2873 -11 c-3 -3 -12 -4 -19 -1 -8 3 -5 6 6 6 11 1 17 -2 13
-5z m1643 -9 c0 -2 -6 -5 -13 -8 -8 -3 -14 1 -14 8 0 7 6 11 14 8 7 -3 13 -6
13 -8z m4345 5 c-11 -5 -27 -9 -35 -9 -9 0 -8 4 5 9 11 5 27 9 35 9 9 0 8 -4
-5 -9z m-2855 -4 c0 -2 -7 -7 -16 -10 -8 -3 -12 -2 -9 4 6 10 25 14 25 6z
m2774 -11 c-25 -19 -35 -19 -28 0 4 8 16 15 27 15 20 0 20 0 1 -15z m-5907 -1
c-3 -3 -12 -4 -19 -1 -8 3 -5 6 6 6 11 1 17 -2 13 -5z m4443 -14 c11 -7 9 -11
-14 -20 -16 -6 -31 -9 -33 -6 -3 2 5 7 18 11 17 6 19 9 8 16 -8 5 -9 9 -4 9 6
0 17 -4 25 -10z m1532 -20 c14 -11 40 -42 57 -69 l32 -49 -29 -59 c-16 -32
-34 -74 -41 -94 -6 -20 -25 -49 -41 -64 -36 -34 -38 -53 -7 -60 19 -5 22 -11
19 -41 -3 -25 -1 -33 9 -30 58 18 66 16 73 -14 7 -40 24 -38 83 10 l50 39 11
-52 c7 -29 15 -91 18 -138 6 -71 3 -97 -14 -150 -29 -91 -35 -138 -22 -193 6
-27 8 -51 6 -54 -9 -9 -137 28 -189 54 -72 37 -153 122 -187 197 -42 94 -53
168 -47 315 9 207 71 407 140 451 40 26 48 26 79 1z m-5881 -7 c-18 -8 -36
-12 -39 -9 -3 4 0 6 7 6 7 0 10 3 8 8 -3 4 9 7 26 8 l32 1 -34 -14z m2689 7
c0 -5 -5 -10 -11 -10 -5 0 -7 5 -4 10 3 6 8 10 11 10 2 0 4 -4 4 -10z m3055
-7 c-33 -80 -51 -132 -75 -223 -15 -58 -33 -104 -38 -103 -6 2 -9 -4 -6 -12 4
-10 0 -15 -12 -16 -11 0 -14 -3 -7 -6 10 -3 9 -8 -2 -19 -18 -19 -35 -10 -35
18 0 18 -4 20 -35 15 -31 -5 -35 -3 -34 16 0 12 3 16 6 10 6 -17 54 -16 78 0
14 11 15 16 5 22 -7 4 -16 2 -20 -5 -13 -21 -32 -2 -20 21 6 11 8 24 5 29 -9
14 90 169 143 223 50 51 58 56 47 30z m-1305 -13 c0 -5 -10 -10 -22 -9 -22 0
-22 1 -3 9 11 5 21 9 23 9 1 1 2 -3 2 -9z m-4523 -6 c-3 -3 -12 -4 -19 -1 -8
3 -5 6 6 6 11 1 17 -2 13 -5z m1228 -5 c4 -5 -7 -9 -24 -9 -39 0 -49 17 -11
18 16 0 32 -4 35 -9z m1480 1 c-3 -5 -12 -10 -18 -10 -7 0 -6 4 3 10 19 12 23
12 15 0z m52 4 c-3 -3 -12 -4 -19 -1 -8 3 -5 6 6 6 11 1 17 -2 13 -5z m-1787
-8 c0 -2 -7 -9 -15 -16 -13 -11 -14 -10 -9 4 5 14 24 23 24 12z m170 -12 c0
-8 -4 -12 -10 -9 -5 3 -10 10 -10 16 0 5 5 9 10 9 6 0 10 -7 10 -16z m3075 7
c-6 -5 -23 -12 -40 -15 -28 -6 -28 -5 5 8 43 18 46 18 35 7z m-1468 -7 c-3 -3
-12 -4 -19 -1 -8 3 -5 6 6 6 11 1 17 -2 13 -5z m68 -4 c3 -5 1 -10 -4 -10 -6
0 -11 5 -11 10 0 6 2 10 4 10 3 0 8 -4 11 -10z m387 3 c-6 -2 -10 -9 -7 -13 3
-5 1 -11 -4 -14 -7 -5 -8 11 -2 32 1 1 7 2 14 1 9 0 9 -2 -1 -6z m-2431 -20
c12 -16 12 -17 -2 -6 -9 7 -20 9 -24 5 -5 -4 -5 -1 -1 6 9 16 11 15 27 -5z
m142 -11 c-3 -12 -9 -19 -14 -16 -5 3 -3 14 3 24 15 24 19 21 11 -8z m-593 8
c0 -5 -2 -10 -4 -10 -3 0 -8 5 -11 10 -3 6 -1 10 4 10 6 0 11 -4 11 -10z
m2658 -36 c-4 -3 -12 5 -18 18 -12 22 -12 22 6 6 10 -10 15 -20 12 -24z m92
26 c0 -5 -5 -10 -11 -10 -5 0 -7 5 -4 10 3 6 8 10 11 10 2 0 4 -4 4 -10z m950
0 c0 -5 -4 -10 -10 -10 -5 0 -10 5 -10 10 0 6 5 10 10 10 6 0 10 -4 10 -10z
m156 -2 c3 -4 -1 -5 -10 -4 -8 1 -18 5 -22 8 -3 4 1 5 10 4 8 -1 18 -5 22 -8z
m265 -1 c-6 -8 -7 -18 -3 -23 4 -4 -1 -2 -10 5 -19 14 -25 26 -9 16 5 -3 12
-1 16 5 3 5 9 10 12 10 3 0 0 -6 -6 -13z m-4476 -7 c-3 -5 -12 -10 -18 -10 -7
0 -6 4 3 10 19 12 23 12 15 0z m778 -10 c-10 -11 -19 -20 -21 -20 -1 0 2 9 8
20 6 11 15 20 20 20 6 0 2 -9 -7 -20z m2207 -15 c0 -5 -5 -3 -10 5 -5 8 -10
20 -10 25 0 6 5 3 10 -5 5 -8 10 -19 10 -25z m780 -11 c0 -8 25 -26 56 -42
l56 -28 -63 -2 c-35 -1 -86 -4 -114 -7 -42 -5 -47 -4 -34 7 9 7 33 28 53 46
38 33 38 33 20 55 l-19 22 23 -19 c12 -11 22 -25 22 -32z m-3920 33 c0 -2 -9
-12 -20 -22 -24 -21 -27 -14 -4 9 15 15 24 20 24 13z m70 -7 c8 -5 11 -10 5
-10 -5 0 -17 5 -25 10 -8 5 -10 10 -5 10 6 0 17 -5 25 -10z m1128 -14 c-2 -1
-10 -7 -20 -14 -11 -9 -18 -10 -23 -2 -4 6 -1 9 7 8 7 -2 12 2 11 9 -2 7 4 10
13 6 8 -3 14 -6 12 -7z m6348 -106 c5 -13 7 -12 18 2 12 17 14 17 28 0 9 -9
19 -34 22 -55 4 -21 16 -47 28 -59 20 -20 20 -22 4 -55 -21 -45 -20 -48 8 -30
29 19 36 14 36 -29 0 -17 6 -44 14 -59 10 -19 12 -36 5 -58 -5 -18 -9 -44 -9
-59 0 -36 -22 -37 -62 -3 -16 13 -47 29 -68 35 -66 18 -85 65 -55 136 13 31
13 40 0 70 -10 25 -12 42 -4 60 5 15 9 43 9 63 0 49 6 144 10 156 2 6 5 -15 7
-45 2 -30 6 -62 9 -70z m-7513 103 c-7 -2 -19 -2 -25 0 -7 3 -2 5 12 5 14 0
19 -2 13 -5z m1444 1 c-3 -3 -12 -4 -19 -1 -8 3 -5 6 6 6 11 1 17 -2 13 -5z
m2648 -120 c22 -8 49 -19 59 -25 21 -12 154 -59 168 -59 4 0 8 17 9 38 l1 37
11 -45 c11 -43 14 -45 51 -48 22 -2 49 -10 60 -18 29 -20 46 -17 47 9 1 21 1
21 10 -4 6 -17 27 -34 60 -49 l50 -24 -7 -40 c-14 -90 -85 -241 -103 -220 -4
5 -15 34 -25 64 -17 53 -55 117 -56 94 0 -6 12 -44 27 -85 24 -66 27 -88 27
-209 1 -144 -11 -201 -61 -302 -12 -26 -23 -54 -23 -62 0 -10 -6 -13 -16 -9
-19 7 -58 -29 -74 -68 -8 -19 -23 -32 -44 -38 -27 -7 -35 -4 -65 26 -19 18
-40 33 -47 33 -7 0 -27 -17 -44 -39 -31 -38 -32 -38 -77 -30 -69 13 -103 38
-122 87 -10 24 -22 47 -28 50 -12 7 -53 156 -53 190 0 20 32 37 156 82 33 12
73 33 87 46 40 36 77 117 77 164 0 54 -21 94 -86 160 l-53 55 20 65 c11 35 22
90 26 121 5 51 3 58 -19 75 -24 18 -24 19 -9 62 l16 43 5 -57 c5 -56 6 -57 45
-70z m-3883 109 c-6 -2 -9 -10 -6 -15 4 -7 2 -8 -5 -4 -13 9 -5 26 12 25 9 0
8 -2 -1 -6z m807 -14 c-17 -17 -23 -18 -32 -9 -9 10 -9 11 -1 7 7 -4 17 0 24
8 7 8 16 15 21 15 5 0 0 -9 -12 -21z m2405 9 c-2 -3 -13 -6 -24 -5 -24 2 -18
13 9 13 11 0 18 -4 15 -8z m-6443 -21 c-10 -9 -11 -8 -5 6 3 10 9 15 12 12 3
-3 0 -11 -7 -18z m3646 17 c-3 -3 -12 -4 -19 -1 -8 3 -5 6 6 6 11 1 17 -2 13
-5z m2200 -9 c0 -8 -4 -12 -9 -9 -5 3 -6 10 -3 15 9 13 12 11 12 -6z m447 0
c-4 -8 -8 -15 -10 -15 -2 0 -4 7 -4 15 0 8 4 15 10 15 5 0 7 -7 4 -15z m196 5
c0 -5 -2 -10 -4 -10 -3 0 -8 5 -11 10 -3 6 -1 10 4 10 6 0 11 -4 11 -10z
m1055 0 c3 -6 -1 -7 -9 -4 -18 7 -21 14 -7 14 6 0 13 -4 16 -10z m-1546 -27
c2 -2 -3 -3 -11 -3 -9 0 -19 7 -22 16 -6 15 -4 15 11 3 10 -7 20 -15 22 -16z
m1516 9 c-3 -3 -11 0 -18 7 -9 10 -8 11 6 5 10 -3 15 -9 12 -12z m251 9 c-4
-5 0 -12 6 -14 8 -3 6 -6 -4 -6 -18 -1 -24 10 -11 22 9 10 15 8 9 -2z m-1176
-35 c0 -6 -4 -5 -9 3 -7 11 -10 10 -14 -5 -3 -13 -5 -10 -6 10 -1 24 1 27 14
16 8 -7 15 -18 15 -24z m560 28 c0 -8 -19 -13 -24 -6 -3 5 1 9 9 9 8 0 15 -2
15 -3z m441 -11 c13 -16 12 -17 -3 -4 -10 7 -18 15 -18 17 0 8 8 3 21 -13z
m-4533 -5 c-3 -7 -13 -15 -24 -17 -16 -3 -17 -1 -5 13 16 19 34 21 29 4z m948
0 c3 -4 -1 -5 -10 -4 -8 1 -18 5 -22 8 -3 4 1 5 10 4 8 -1 18 -5 22 -8z m37
-3 c-3 -9 -8 -14 -10 -11 -3 3 -2 9 2 15 9 16 15 13 8 -4z m2631 -26 c-8 -13
-21 -3 -27 22 -5 20 -5 20 13 4 11 -10 17 -22 14 -26z m912 4 c-6 -6 -36 9
-36 18 0 5 9 4 20 -3 10 -7 18 -14 16 -15z m-3604 -28 c15 -15 24 -33 22 -40
-7 -18 13 -117 38 -183 37 -98 83 -102 171 -15 32 31 47 41 47 30 0 -25 13
-21 58 16 49 39 54 56 37 114 l-14 46 33 -32 33 -32 34 65 34 66 65 0 c74 0
140 -15 141 -33 5 -66 -26 -248 -44 -259 -11 -6 -12 -19 -4 -64 28 -153 -83
-392 -223 -478 -48 -30 -157 -74 -201 -81 -33 -6 -37 -4 -41 18 -5 23 -1 26
41 32 59 9 210 60 225 75 13 15 12 15 -119 -25 -123 -37 -269 -40 -365 -6
-107 38 -215 114 -255 181 -8 13 -7 13 8 1 16 -12 19 -11 30 18 6 17 15 31 20
31 23 0 110 -54 151 -94 55 -54 78 -57 158 -22 30 13 108 33 174 45 l119 20
26 -31 25 -30 29 33 c15 19 41 42 56 51 36 22 38 42 3 23 -15 -7 -50 -16 -78
-20 -141 -18 -293 -48 -355 -70 -38 -14 -76 -25 -84 -25 -9 0 -39 20 -67 45
-58 52 -122 86 -203 110 -69 20 -84 41 -69 94 15 50 26 137 24 195 -2 53 4 61
68 93 26 12 30 18 18 21 -10 2 -32 30 -49 63 -18 33 -37 58 -43 56 -6 -2 -10
-25 -9 -53 l2 -49 -10 49 c-15 75 -13 76 97 76 l97 0 -23 -25 c-33 -35 -13
-31 55 10 63 37 71 37 117 -10z m79 32 c-6 -8 -7 -18 -3 -22 4 -5 1 -5 -6 -1
-10 6 -10 11 -1 22 6 8 14 14 16 14 3 0 0 -6 -6 -13z m104 -8 c-4 -5 2 -10 12
-10 17 -1 17 -2 0 -6 -9 -2 -14 -9 -11 -15 4 -7 2 -8 -5 -4 -6 4 -9 12 -6 17
4 5 0 9 -7 10 -10 0 -10 2 0 6 6 2 9 10 6 15 -4 7 -2 8 5 4 6 -4 9 -12 6 -17z
m226 8 c-1 -12 -15 -9 -19 4 -3 6 1 10 8 8 6 -3 11 -8 11 -12z m2344 -7 c10
-11 13 -20 7 -20 -6 0 -16 9 -22 20 -6 11 -9 20 -7 20 2 0 12 -9 22 -20z
m-3745 0 c0 -5 -7 -7 -15 -4 -8 4 -15 8 -15 10 0 2 7 4 15 4 8 0 15 -4 15 -10z
m1266 -16 c2 -23 1 -24 -11 -7 -10 13 -10 20 -2 25 7 4 12 8 12 8 0 0 1 -11 1
-26z m-697 -44 c47 0 51 -2 57 -27 3 -16 8 -35 11 -43 18 -51 21 -163 7 -236
-27 -136 -27 -144 -12 -162 9 -9 20 -32 26 -49 47 -142 231 -264 420 -280 39
-3 72 -6 72 -7 0 -1 9 -66 19 -145 20 -143 20 -145 0 -169 -10 -14 -19 -31
-19 -39 0 -11 -7 -9 -27 7 l-28 22 -21 -28 c-22 -27 -31 -27 -66 -2 -14 10
-20 9 -35 -5 -18 -16 -22 -14 -70 36 -118 122 -196 275 -224 441 -15 90 -33
101 -27 17 l4 -60 -28 15 c-177 91 -304 266 -333 458 -4 25 -10 35 -16 29 -12
-12 7 -140 28 -191 20 -49 67 -117 120 -174 23 -26 43 -52 43 -58 0 -22 -30
-69 -48 -74 -11 -4 -24 -18 -31 -33 l-12 -26 -20 22 c-25 26 -35 27 -49 1 -15
-27 -38 -25 -67 7 l-25 26 -17 -22 c-11 -14 -23 -20 -33 -16 -22 9 -41 67 -34
103 2 15 7 43 10 63 6 33 9 35 35 31 26 -4 32 1 50 37 27 51 26 61 -4 121 -25
49 -32 54 -67 51 -12 -2 -18 5 -18 17 0 48 23 133 55 200 27 58 41 75 65 83
21 8 30 18 30 32 0 17 2 19 9 8 7 -11 26 -13 92 -7 45 4 86 9 91 12 4 3 8 22
8 42 l1 37 14 -32 c13 -31 17 -33 64 -33z m2706 39 c11 -17 -1 -21 -15 -4 -8
9 -8 15 -2 15 6 0 14 -5 17 -11z m-6248 -34 c-6 -19 -14 -35 -18 -35 -5 0 -4
12 2 26 20 54 32 61 16 9z m6570 5 c1 -10 -1 -21 -5 -24 -4 -2 -7 9 -7 25 -1
31 7 30 12 -1z m449 20 c26 -10 26 -13 21 -63 -8 -64 -35 -148 -53 -163 -10
-8 -3 -20 33 -55 60 -58 103 -134 103 -182 0 -39 -34 -110 -68 -140 -10 -9
-49 -29 -88 -45 -38 -16 -148 -67 -244 -112 l-175 -84 -96 -4 c-128 -6 -244
17 -319 62 -30 19 -111 64 -180 101 -69 37 -135 76 -147 87 -25 24 -53 98 -53
143 0 34 60 126 134 204 22 24 33 41 24 38 -13 -5 -22 6 -39 51 -11 31 -22 80
-23 107 l-1 50 70 0 c39 -1 91 -4 118 -8 42 -7 46 -10 37 -27 -16 -31 -12 -42
13 -34 21 6 21 6 6 -12 -23 -26 -36 -88 -18 -82 18 6 58 -111 59 -169 0 -25 5
-43 11 -43 8 0 10 19 7 58 -5 55 -4 58 35 101 22 24 37 36 32 25 -13 -32 -28
-114 -22 -121 9 -8 97 17 97 28 0 5 7 9 15 9 37 0 65 23 66 54 0 29 1 29 9 9
11 -28 20 -29 51 -5 13 11 36 22 50 25 32 8 82 54 74 67 -4 6 -11 25 -15 43
l-9 32 24 -27 c13 -16 29 -28 35 -28 12 0 104 59 134 86 31 28 236 45 292 24z
m-4164 -7 c-6 -2 -9 -10 -6 -15 4 -7 2 -8 -5 -4 -13 9 -5 26 12 25 9 0 8 -2
-1 -6z m133 -3 c-27 -12 -43 -12 -25 0 8 5 22 9 30 9 10 0 8 -3 -5 -9z m1403
-15 c-3 -3 -9 2 -12 12 -6 14 -5 15 5 6 7 -7 10 -15 7 -18z m2054 -6 c-3 -19
-7 -26 -12 -19 -8 14 -2 50 9 50 4 0 5 -14 3 -31z m-3231 -12 c-10 -9 -11 -8
-5 6 3 10 9 15 12 12 3 -3 0 -11 -7 -18z m176 17 c-3 -3 -12 -4 -19 -1 -8 3
-5 6 6 6 11 1 17 -2 13 -5z m705 -18 c7 4 8 2 4 -5 -9 -14 -36 3 -36 23 0 6 5
3 11 -7 6 -9 15 -14 21 -11z m185 -8 c-3 -7 -5 -2 -5 12 0 14 2 19 5 13 2 -7
2 -19 0 -25z m3383 -12 c0 -26 -6 -18 -14 19 -5 22 -4 26 4 15 5 -8 10 -24 10
-34z m-1435 24 c3 -6 -1 -7 -9 -4 -18 7 -21 14 -7 14 6 0 13 -4 16 -10z
m-2022 -20 c3 -11 0 -23 -5 -27 -7 -4 -8 -1 -3 7 6 10 4 12 -9 7 -14 -6 -15
-3 -6 13 13 25 16 25 23 0z m3437 -15 c0 -5 -5 -3 -10 5 -5 8 -10 20 -10 25 0
6 5 3 10 -5 5 -8 10 -19 10 -25z m-1331 2 c0 -8 -2 -8 -6 1 -4 10 -8 10 -19 1
-8 -6 -14 -8 -14 -3 0 5 -5 2 -11 -6 -9 -13 -10 -13 -6 0 2 8 9 15 15 15 5 0
14 3 18 7 9 10 24 0 23 -15z m-3189 4 c0 -6 -4 -12 -8 -15 -5 -3 -9 1 -9 9 0
8 4 15 9 15 4 0 8 -4 8 -9z m4655 -1 c3 -5 1 -10 -4 -10 -6 0 -11 5 -11 10 0
6 2 10 4 10 3 0 8 -4 11 -10z m65 1 c0 -6 -4 -13 -10 -16 -5 -3 -10 1 -10 9 0
9 5 16 10 16 6 0 10 -4 10 -9z m-4900 -8 c0 -5 -13 -17 -28 -27 l-27 -19 24
26 c26 28 31 32 31 20z m3550 -18 c-7 -9 -15 -13 -17 -11 -6 6 20 36 26 30 2
-2 -2 -10 -9 -19z m-2340 11 c0 -2 -8 -10 -17 -17 -16 -13 -17 -12 -4 4 13 16
21 21 21 13z m-4030 -26 c6 -11 8 -20 6 -20 -3 0 -10 9 -16 20 -6 11 -8 20 -6
20 3 0 10 -9 16 -20z m4070 -1 c0 -6 -4 -7 -10 -4 -5 3 -10 1 -10 -6 0 -7 -2
-10 -5 -7 -9 8 6 38 16 32 5 -3 9 -10 9 -15z m3835 -170 c42 -92 40 -162 -6
-249 -40 -75 -124 -165 -191 -204 -48 -28 -65 -53 -29 -41 29 9 40 -19 28 -67
-5 -22 -16 -42 -23 -45 -7 -3 -27 11 -45 31 -23 26 -35 34 -44 26 -6 -5 -15
-6 -19 -2 -4 4 -6 2 -4 -3 2 -6 -9 -25 -24 -43 -25 -29 -31 -32 -85 -32 -56 1
-59 2 -81 37 -14 21 -21 45 -18 57 5 20 12 21 120 21 79 0 119 4 128 13 10 10
-13 11 -112 5 l-123 -6 8 24 c4 13 9 80 11 148 4 122 4 124 35 159 18 20 40
54 50 76 20 48 43 162 34 176 -3 6 -1 10 4 10 6 0 11 -4 11 -8 0 -9 67 -32 94
-32 10 0 16 9 17 23 1 17 3 15 12 -11 7 -22 18 -34 33 -37 13 -3 35 -7 49 -10
34 -7 32 6 -10 82 -19 35 -30 63 -25 63 5 0 31 -9 59 -19 48 -20 49 -20 44 0
-3 10 -9 22 -14 25 -5 3 -9 10 -9 16 0 21 97 -120 125 -183z m-7691 135 c62
-6 79 -15 57 -29 -5 -3 -12 -1 -16 4 -8 14 -42 9 -42 -6 0 -6 6 -14 13 -17 8
-3 11 0 7 10 -3 7 -1 14 4 14 16 0 11 -29 -8 -46 -13 -12 -19 -12 -25 -3 -4 8
-3 10 4 5 22 -14 12 7 -15 31 -16 14 -21 21 -10 17 10 -3 17 -1 17 5 0 12 -20
14 -44 5 -15 -6 -15 -8 1 -21 14 -10 10 -10 -14 2 -18 8 -33 18 -33 21 0 3 6
2 13 -2 10 -6 10 -4 0 7 -19 20 -16 31 6 20 10 -6 48 -13 85 -17z m7351 16 c3
-5 1 -10 -4 -10 -6 0 -11 5 -11 10 0 6 2 10 4 10 3 0 8 -4 11 -10z m-7549 -12
c5 4 6 3 1 -2 -12 -16 -46 -14 -40 1 4 9 9 10 18 3 6 -5 16 -6 21 -2z m-106
-28 c0 -5 -5 -10 -11 -10 -5 0 -7 5 -4 10 3 6 8 10 11 10 2 0 4 -4 4 -10z m23
-7 c-4 -11 -3 -14 5 -9 17 11 15 -9 -3 -24 -13 -11 -14 -10 -9 5 5 13 4 16 -5
10 -10 -6 -11 -3 -2 14 14 25 23 28 14 4z m7671 1 c4 -10 1 -14 -6 -12 -15 5
-23 28 -10 28 5 0 13 -7 16 -16z m-1578 -26 c-18 -26 -22 -17 -5 14 6 11 13
17 16 15 3 -3 -2 -16 -11 -29z m-5966 -14 c-6 -6 -7 -14 -3 -17 3 -4 1 -7 -5
-7 -13 0 -15 19 -6 45 5 13 9 14 15 4 4 -7 4 -18 -1 -25z m6150 26 c0 -5 -4
-10 -10 -10 -5 0 -10 5 -10 10 0 6 5 10 10 10 6 0 10 -4 10 -10z m-6045 -18
c-3 -3 -11 0 -18 7 -9 10 -8 11 6 5 10 -3 15 -9 12 -12z m-157 -37 c22 -6 22
-7 5 -21 -10 -7 -22 -13 -28 -13 -5 0 -1 6 9 14 19 15 19 15 -5 16 -13 1 -28
1 -32 0 -5 -1 -6 3 -2 9 3 5 1 10 -5 10 -6 0 -8 5 -5 11 5 7 12 6 23 -4 10 -8
27 -18 40 -22z m92 19 c0 -8 -19 -13 -24 -6 -3 5 1 9 9 9 8 0 15 -2 15 -3z
m46 -47 c1 -9 -2 -15 -7 -11 -5 3 -7 9 -4 14 3 4 0 11 -5 13 -6 3 -5 4 1 3 7
-1 13 -10 15 -19z m5981 8 c0 -8 -4 -12 -9 -9 -5 3 -6 10 -3 15 9 13 12 11 12
-6z m4388 -215 c-20 -117 -89 -242 -166 -300 -64 -48 -72 -53 -65 -42 12 19
-2 14 -25 -10 -12 -13 -19 -17 -15 -10 4 6 3 12 -3 12 -5 0 -15 -8 -20 -17 -6
-10 -11 -15 -11 -12 0 4 -17 3 -37 -3 -21 -5 -47 -10 -58 -12 -11 -2 -20 -4
-20 -6 0 -1 -22 -3 -50 -5 -27 -2 -66 -6 -85 -9 -30 -4 -31 -4 -5 2 25 7 17 9
-43 14 -77 7 -155 31 -184 56 -10 8 -18 12 -18 8 0 -4 -7 0 -16 8 -17 18 -39
22 -29 6 3 -5 2 -10 -3 -10 -6 0 -13 7 -16 16 -3 8 -2 13 3 10 4 -3 8 7 9 22
1 48 14 132 21 132 3 0 16 -11 27 -23 30 -31 116 -73 189 -92 111 -28 218 -16
330 39 83 41 150 102 204 185 21 33 42 57 46 53 5 -4 5 -2 2 5 -4 6 -4 18 -1
27 5 12 9 13 25 3 16 -10 19 -19 14 -47z m-4815 -159 c68 -35 216 -119 295
-167 39 -23 85 -45 103 -49 33 -7 41 -25 19 -44 -10 -8 -22 -5 -48 15 -44 32
-68 28 -98 -18 -20 -31 -30 -38 -58 -38 -22 0 -33 5 -33 14 0 8 -11 28 -25 44
-13 16 -22 32 -19 34 2 3 -7 3 -21 0 -14 -2 -38 -19 -53 -37 -22 -27 -32 -32
-54 -28 -19 4 -28 11 -28 25 0 11 -25 60 -55 110 -79 131 -82 145 -50 215 l26
58 27 -55 c21 -43 37 -60 72 -79z m-2122 101 c13 -9 6 -42 -9 -42 -8 0 -29 32
-29 44 0 9 23 7 38 -2z m918 -47 c-3 -25 -9 -65 -12 -90 -5 -43 -7 -45 -38
-45 -27 0 -36 -6 -52 -35 -10 -19 -23 -35 -29 -35 -7 0 -7 -3 0 -8 6 -4 10
-15 11 -24 3 -63 5 -70 24 -75 11 -3 20 -8 20 -12 -1 -17 -49 -96 -58 -94 -5
1 -18 -7 -27 -17 -21 -24 -60 -26 -69 -5 -6 17 -42 20 -51 5 -11 -18 -42 -10
-59 15 -9 13 -22 22 -29 20 -7 -2 -21 14 -32 38 l-20 42 64 22 c35 12 68 20
73 17 4 -3 8 -1 8 4 0 6 14 15 31 21 54 19 180 156 214 233 17 37 31 68 33 68
2 0 1 -20 -2 -45z m4365 -55 c52 -64 67 -86 51 -77 -6 5 -8 0 -5 -13 6 -24
-20 -58 -55 -71 -18 -7 -22 -14 -17 -32 l7 -22 -17 23 c-9 12 -25 22 -36 22
-11 0 -30 5 -41 11 -16 9 -19 8 -13 -2 5 -7 4 -10 -3 -5 -22 14 -24 64 -2 112
23 54 68 117 79 112 5 -2 28 -28 52 -58z m-4571 31 c-16 -30 -28 -34 -39 -12
-9 16 -7 20 7 24 38 10 43 8 32 -12z m4657 -140 c0 -11 -5 -18 -9 -15 -4 3 -5
11 -1 19 7 21 12 19 10 -4z m99 -49 c1 -7 0 -8 -3 -2 -7 16 -21 12 -26 -7 -2
-10 -3 -8 -2 5 2 16 -6 27 -26 38 -16 8 -29 17 -29 20 0 11 84 -41 86 -54z
m-2356 -11 l0 -34 -52 7 c-109 14 -110 16 -33 53 76 36 85 34 85 -26z m-3402
14 c14 -31 15 -35 4 -35 -20 0 -43 27 -36 43 9 24 19 21 32 -8z m5987 5 c10
-11 22 -17 26 -14 5 3 6 -3 2 -12 -4 -12 -8 -14 -11 -6 -3 10 -7 10 -20 0 -14
-10 -15 -10 -5 2 10 11 8 17 -9 32 -12 10 -17 18 -11 18 5 0 18 -9 28 -20z
m-6181 -6 c7 -17 -10 -54 -24 -54 -17 0 -29 34 -19 52 12 22 35 23 43 2z m110
-9 c7 -20 -3 -45 -18 -45 -23 0 -36 22 -25 42 12 22 35 24 43 3z m4586 -57 c0
-13 -47 -31 -63 -25 -13 5 -13 13 -5 47 l11 41 28 -27 c16 -15 29 -31 29 -36z
m1897 37 c0 -8 -4 -12 -9 -9 -5 3 -6 10 -3 15 9 13 12 11 12 -6z m-4025 -44
c7 -20 5 -28 -8 -38 -17 -13 -94 -19 -94 -7 0 11 23 50 43 71 23 26 42 17 59
-26z m3133 39 c3 -5 -1 -10 -9 -10 -9 0 -16 5 -16 10 0 6 4 10 9 10 6 0 13 -4
16 -10z m281 -6 c-9 -8 -16 -25 -16 -36 0 -12 -3 -19 -6 -15 -11 11 7 67 23
67 12 0 12 -2 -1 -16z m-286 -35 c0 -5 -11 1 -25 13 -14 12 -25 23 -25 25 0 2
11 -4 25 -13 14 -9 25 -20 25 -25z m919 -14 c64 -32 127 -46 231 -51 85 -5
120 -2 180 14 41 11 77 18 78 17 2 -2 -27 -13 -65 -25 -95 -31 -239 -37 -334
-16 -79 17 -179 68 -179 90 0 23 13 26 34 7 12 -10 36 -26 55 -36z m-395 20
c15 -23 15 -25 1 -25 -9 0 -14 4 -10 9 3 5 1 12 -5 16 -9 6 -14 25 -6 25 2 0
11 -11 20 -25z m427 10 c19 -8 27 -14 19 -14 -14 0 -72 28 -59 29 4 0 22 -7
40 -15z m-2104 -17 c26 -24 29 -46 11 -71 -12 -15 -18 -16 -57 -4 -25 7 -46
17 -48 23 -5 14 44 74 60 74 6 0 21 -10 34 -22z m1183 12 c0 -5 -4 -10 -10
-10 -5 0 -10 5 -10 10 0 6 5 10 10 10 6 0 10 -4 10 -10z m-2972 -40 c12 -18
22 -36 22 -40 0 -9 -55 -36 -92 -45 -24 -6 -28 -4 -28 14 0 28 27 93 43 103
18 12 30 5 55 -32z m1529 9 c12 -22 10 -25 -24 -41 -21 -9 -40 -15 -42 -12 -8
8 32 85 43 81 6 -2 17 -14 23 -28z m2213 12 c0 -3 -5 -13 -11 -21 -9 -13 -10
-13 -6 1 3 9 0 22 -6 28 -9 9 -8 11 6 6 9 -4 17 -10 17 -14z m-3542 -7 c40
-28 46 -51 22 -89 -25 -41 -36 -43 -72 -10 -33 29 -34 40 -8 83 22 37 27 38
58 16z m2822 -29 c0 -3 -6 -3 -12 2 -7 4 -19 8 -27 10 -7 1 -19 7 -25 14 -8 9
-7 10 7 6 10 -4 17 -2 17 5 0 7 9 2 20 -10 11 -12 20 -24 20 -27z m45 25 c3
-5 1 -10 -4 -10 -6 0 -11 5 -11 10 0 6 2 10 4 10 3 0 8 -4 11 -10z m475 -4
c-7 -7 -13 -7 -20 0 -6 6 -3 10 10 10 13 0 16 -4 10 -10z m-43 -18 c-3 -8 -6
-5 -6 6 -1 11 2 17 5 13 3 -3 4 -12 1 -19z m-247 -22 c0 -5 -7 -3 -15 4 -8 7
-12 17 -9 22 7 10 24 -9 24 -26z m-286 9 c20 -9 41 -13 46 -10 5 3 11 1 15 -5
3 -5 -1 -10 -10 -10 -9 0 -14 -4 -11 -9 11 -17 -38 -21 -51 -5 -8 12 -20 14
-39 10 -36 -9 -52 14 -21 31 28 16 28 16 71 -2z m86 11 c0 -3 -4 -8 -10 -11
-5 -3 -10 -1 -10 4 0 6 5 11 10 11 6 0 10 -2 10 -4z m481 -13 c13 -16 12 -17
-3 -4 -10 7 -18 15 -18 17 0 8 8 3 21 -13z m576 11 c-3 -3 -12 -4 -19 -1 -8 3
-5 6 6 6 11 1 17 -2 13 -5z m-4287 -14 c0 -5 -15 -9 -32 -9 l-33 1 30 8 c17 4
31 8 33 9 1 0 2 -3 2 -9z m3400 -14 c0 -14 -43 -47 -64 -50 -6 -1 -17 -5 -24
-10 -24 -15 -19 -1 12 29 18 18 27 23 23 12 -3 -9 -2 -17 3 -17 16 0 22 21 10
35 -7 8 -9 15 -5 15 4 0 14 -8 22 -17 13 -17 14 -16 10 5 -3 12 -1 20 4 16 5
-3 9 -11 9 -18z m417 2 c-3 -8 -6 -5 -6 6 -1 11 2 17 5 13 3 -3 4 -12 1 -19z
m-8183 0 c-18 -33 -50 -58 -71 -58 -13 0 -35 -12 -48 -26 -21 -23 -26 -24 -31
-10 -9 24 -40 20 -67 -9 l-23 -26 -12 26 c-13 28 -37 32 -69 10 -23 -16 -53
-11 -53 10 0 25 22 75 31 69 28 -17 317 1 337 21 10 9 13 5 6 -7z m2750 -4 c3
-8 2 -12 -4 -9 -6 3 -10 10 -10 16 0 14 7 11 14 -7z m5522 -21 c-10 -10 -19 5
-10 18 6 11 8 11 12 0 2 -7 1 -15 -2 -18z m-2812 -5 c8 -13 18 -35 21 -50 7
-27 6 -28 -39 -29 -25 -1 -51 -2 -58 -3 -22 -2 -18 21 12 62 35 48 44 51 64
20z m1950 5 c9 -22 -4 -33 -47 -40 -46 -7 -51 14 -9 39 34 22 48 22 56 1z
m222 3 c15 5 16 4 4 -5 -8 -6 -24 -8 -35 -6 -17 4 -17 3 2 -6 18 -10 28 -8 49
6 17 11 24 12 18 4 -18 -31 -29 -37 -51 -28 -13 5 -23 5 -23 1 0 -4 -4 0 -10
8 -6 9 -5 19 2 28 8 9 13 10 18 2 4 -6 15 -8 26 -4z m572 -20 c84 1 102 -1 98
-12 -3 -8 -1 -14 4 -14 4 0 13 -15 20 -34 10 -31 9 -36 -20 -64 -16 -17 -30
-38 -30 -46 0 -25 -17 -19 -24 8 -11 46 -80 40 -92 -9 -8 -33 -19 -31 -34 6
-12 27 -17 30 -47 27 l-33 -4 0 46 c0 26 7 61 16 78 8 18 12 37 9 44 -4 7 2 4
12 -7 16 -18 30 -20 121 -19z m-2181 13 c-9 -6 -15 -14 -12 -20 4 -5 1 -9 -4
-9 -15 0 -14 27 2 33 22 10 32 7 14 -4z m1466 -19 c6 -24 -8 -36 -55 -45 -47
-9 -49 4 -7 39 37 31 55 33 62 6z m-1504 -29 c11 -21 17 -41 14 -45 -8 -8 -73
-7 -96 2 -16 7 -15 10 8 45 14 20 32 37 40 37 8 0 23 -17 34 -39z m2068 17
c-3 -8 -6 -5 -6 6 -1 11 2 17 5 13 3 -3 4 -12 1 -19z m-5207 -12 c0 -8 -7 -19
-15 -26 -12 -10 -16 -9 -21 4 -7 18 13 49 27 40 5 -3 9 -11 9 -18z m256 9 c-1
-8 -5 -18 -9 -21 -4 -4 -7 -18 -7 -30 0 -13 -4 -25 -9 -29 -12 -7 -2 65 12 83
12 16 16 15 13 -3z m4468 -8 c6 -9 7 -19 4 -22 -9 -10 -90 -27 -96 -21 -7 8
59 67 71 63 6 -2 15 -11 21 -20z m-4817 -19 c-3 -7 -5 -2 -5 12 0 14 2 19 5
13 2 -7 2 -19 0 -25z m-1987 -29 c0 -12 -47 -11 -55 1 -3 5 -1 20 6 32 l12 22
18 -23 c11 -13 19 -27 19 -32z m-819 8 c7 -27 6 -29 -19 -22 -38 9 -48 21 -32
40 19 23 42 14 51 -18z m3005 18 c3 -8 -1 -24 -9 -36 l-15 -21 -12 22 c-9 16
-9 25 1 36 15 18 28 18 35 -1z m108 6 c4 -5 2 -19 -2 -31 -7 -19 -9 -20 -21
-6 -7 9 -11 23 -7 31 6 17 22 20 30 6z m2710 -30 l28 -30 -21 -30 c-13 -17
-27 -31 -33 -31 -16 0 -68 40 -68 53 0 12 49 67 60 67 3 0 19 -13 34 -29z
m-6038 5 c3 -8 4 -24 2 -36 l-3 -22 -24 19 c-16 13 -22 26 -18 36 8 21 36 22
43 3z m110 -11 c8 -34 0 -41 -31 -27 -22 10 -24 15 -15 32 15 28 38 25 46 -5z
m3019 5 c-3 -5 -11 -10 -16 -10 -6 0 -7 5 -4 10 3 6 11 10 16 10 6 0 7 -4 4
-10z m-3737 -32 c7 -29 6 -33 -11 -36 -30 -6 -52 21 -38 47 17 31 39 26 49
-11z m1546 7 c22 -33 21 -35 -13 -35 -36 0 -46 13 -31 40 14 26 24 25 44 -5z
m2351 16 c3 -6 -4 -8 -15 -6 -11 2 -20 0 -20 -5 0 -5 -10 -14 -21 -21 -12 -6
-19 -7 -17 -2 3 4 8 16 11 26 7 18 52 24 62 8z m2482 1 c7 -4 -16 -8 -50 -9
-59 0 -60 0 -17 7 25 4 47 8 50 8 3 1 10 -2 17 -6z m-6623 -18 c9 -23 7 -54
-3 -54 -5 0 -19 9 -32 20 -24 20 -24 20 -5 35 25 19 32 19 40 -1z m3891 -30
c2 -21 10 -54 17 -71 14 -38 5 -53 -33 -55 -13 -1 -31 -7 -39 -13 -35 -28 -41
-28 -34 2 9 37 20 42 60 30 43 -13 52 -4 35 36 -15 34 -28 126 -17 116 4 -3 8
-24 11 -45z m-3765 10 c14 -36 4 -46 -31 -29 -32 17 -35 25 -17 43 19 19 38
14 48 -14z m880 16 c0 -5 -2 -10 -4 -10 -3 0 -8 5 -11 10 -3 6 -1 10 4 10 6 0
11 -4 11 -10z m6030 0 c0 -5 -4 -10 -9 -10 -6 0 -13 5 -16 10 -3 6 1 10 9 10
9 0 16 -4 16 -10z m-5356 -22 c21 -30 20 -38 -6 -38 -38 0 -52 14 -39 39 15
27 26 27 45 -1z m5319 15 c3 -5 -7 -9 -21 -10 -16 -1 -37 -15 -58 -40 -18 -21
-35 -35 -38 -32 -3 3 5 18 19 33 14 15 25 31 25 36 0 15 65 26 73 13z m-266
-9 c-3 -3 -12 -4 -19 -1 -8 3 -5 6 6 6 11 1 17 -2 13 -5z m-6067 -23 c19 -37
13 -54 -17 -46 -34 8 -45 23 -32 47 13 24 36 23 49 -1z m8798 2 c15 -29 24
-93 13 -93 -12 0 -62 59 -58 68 2 4 7 15 10 25 4 9 11 17 16 17 6 0 14 -8 19
-17z m-9013 -33 c0 -41 -21 -50 -36 -16 -9 20 -9 29 1 41 20 24 35 12 35 -25z
m113 2 c6 -40 -5 -55 -28 -42 -28 15 -35 37 -20 56 18 21 44 13 48 -14z m1177
18 c3 -5 1 -10 -4 -10 -6 0 -11 5 -11 10 0 6 2 10 4 10 3 0 8 -4 11 -10z
m7490 -20 c7 -22 -24 -85 -41 -85 -10 0 -18 70 -10 91 8 21 44 17 51 -6z m124
-2 c11 -29 2 -90 -12 -85 -17 5 -45 67 -40 87 7 27 42 25 52 -2z m-5469 -35
c0 -14 -10 -16 -34 -7 -16 6 -22 35 -9 47 9 9 43 -22 43 -40z m-102 5 c15 -15
16 -58 0 -58 -6 0 -20 7 -29 16 -14 13 -16 21 -8 35 11 22 20 24 37 7z m-100
-41 c-4 -28 -21 -31 -36 -6 -10 16 -10 24 -1 35 16 19 41 -1 37 -29z m5563 10
c-10 -9 -11 -8 -5 6 3 10 9 15 12 12 3 -3 0 -11 -7 -18z m-5495 -28 c18 -20
17 -20 -9 -10 -18 7 -28 7 -33 -1 -5 -7 -2 -8 7 -3 8 5 10 4 6 0 -10 -12 -37
-15 -37 -5 0 39 38 50 66 19z m-2264 -342 c4 -7 8 -43 8 -82 0 -38 3 -87 6
-107 12 -70 24 -27 24 84 l0 111 38 -7 c20 -3 47 -6 60 -6 13 0 22 -6 22 -15
0 -18 2 -18 70 0 132 35 224 -3 186 -77 -11 -21 -10 -37 5 -98 11 -41 20 -92
22 -114 2 -40 1 -41 -35 -44 l-36 -3 -22 68 c-29 87 -45 105 -35 38 14 -88 14
-88 -28 -98 -21 -5 -40 -7 -43 -4 -3 3 -12 44 -19 92 -18 110 -23 125 -41 125
-9 0 -14 -11 -14 -32 0 -60 -19 -105 -60 -142 -34 -30 -47 -36 -86 -36 -25 0
-58 7 -74 15 l-30 15 21 -52 c11 -28 22 -55 25 -59 6 -10 -23 -19 -66 -19 -35
0 -39 3 -55 43 -39 100 -69 157 -80 157 -7 0 -28 -33 -46 -74 -36 -80 -45 -86
-125 -86 -37 0 -39 2 -24 30 9 17 5 19 -54 22 l-63 3 13 -39 c17 -48 8 -58
-50 -54 l-39 3 -41 95 c-23 52 -48 96 -56 98 -10 1 -25 -21 -45 -69 -33 -78
-47 -89 -117 -89 -28 0 -39 4 -35 13 19 51 19 60 2 53 -9 -3 -34 -9 -54 -12
-37 -6 -38 -5 -45 27 -17 88 -49 189 -60 189 -6 0 -18 20 -27 45 l-17 45 65
20 c77 24 133 25 173 5 34 -18 45 -44 29 -77 -9 -20 -7 -31 9 -57 23 -38 24
-37 81 77 23 45 45 82 50 82 5 0 31 -52 58 -115 26 -64 53 -115 61 -115 7 0
25 -6 40 -14 36 -18 92 -30 92 -19 0 5 -15 17 -32 27 -147 84 -156 226 -16
226 40 0 149 -27 162 -40 13 -13 -14 -90 -31 -90 -7 0 -28 6 -46 13 -48 21
-87 28 -87 18 0 -5 22 -23 50 -41 27 -18 61 -45 75 -61 l24 -30 15 23 c8 13
36 67 62 121 27 53 53 96 59 94 5 -2 31 -53 57 -113 26 -60 49 -113 52 -119 2
-5 2 33 -1 85 -3 52 -10 97 -15 98 -4 2 -8 18 -8 35 l0 32 67 -3 c38 -2 71 -9
75 -15z m2626 13 c39 0 52 -4 52 -15 0 -8 7 -15 15 -15 8 0 15 5 15 11 0 15
123 1 132 -16 6 -10 18 -9 60 2 77 20 166 13 189 -16 22 -27 25 -71 5 -71 -15
0 -30 -27 -17 -32 11 -4 53 -197 46 -209 -4 -5 -23 -9 -44 -9 -38 0 -38 0 -56
60 -28 92 -47 89 -26 -3 10 -42 10 -42 -44 -51 l-40 -7 -18 103 c-17 99 -35
136 -49 100 -4 -9 -7 -30 -7 -46 -1 -47 -38 -111 -75 -131 -33 -18 -106 -18
-150 0 -15 7 -17 5 -10 -6 5 -8 9 -16 9 -19 0 -3 6 -20 14 -38 18 -44 4 -59
-49 -54 -40 4 -43 7 -67 61 -48 111 -65 142 -76 138 -6 -2 -20 -26 -32 -54
-35 -87 -44 -95 -109 -101 l-59 -5 7 27 c6 25 5 26 -42 26 -64 0 -152 26 -152
46 0 15 26 84 32 84 2 0 30 -9 62 -20 77 -28 90 -21 35 17 -25 17 -61 49 -81
71 -30 33 -38 37 -43 24 -4 -9 -27 -71 -52 -137 -24 -66 -50 -123 -56 -127
-21 -13 -110 -10 -105 5 3 6 15 43 28 80 l22 68 -39 67 c-21 37 -44 67 -52 67
-8 0 -28 -49 -54 -132 l-42 -133 -55 0 -55 0 -45 131 c-24 72 -51 134 -60 138
-8 4 -31 7 -50 6 -33 -2 -35 -4 -42 -46 -14 -96 -13 -99 37 -99 l45 0 0 -50 0
-50 -118 0 c-65 0 -121 2 -124 5 -3 3 -2 22 1 43 5 28 11 38 28 40 17 3 23 12
28 46 11 69 5 81 -38 84 l-38 3 2 50 c2 27 5 49 8 49 3 0 49 7 100 15 117 19
259 12 269 -14 3 -9 10 -19 15 -22 5 -4 10 -25 11 -48 3 -56 22 -74 31 -29 22
107 23 109 60 102 28 -5 35 -3 35 10 0 23 130 11 148 -15 8 -10 22 -28 32 -39
l19 -22 14 33 c13 33 16 34 73 36 32 1 79 4 104 8 102 17 243 -34 219 -78 -6
-9 -17 -17 -24 -17 -8 0 -15 -7 -15 -15 0 -19 -28 -19 -75 1 -20 8 -47 14 -58
12 -18 -2 -12 -9 31 -37 29 -18 63 -47 76 -63 l24 -31 37 79 c87 183 96 195
116 150 7 -14 16 -26 21 -26 4 0 8 -9 8 -20 0 -11 5 -20 11 -20 6 0 8 -8 4
-19 -3 -10 5 -42 19 -72 l25 -54 -2 82 c-1 55 -6 84 -14 88 -7 2 -13 21 -13
41 0 33 2 36 23 30 12 -3 46 -6 75 -6z m2051 -6 c56 -4 96 -3 100 3 3 5 38 7
78 5 72 -4 72 -4 87 -41 l15 -36 0 33 1 34 63 -7 c34 -4 65 -12 68 -17 4 -7
14 -6 27 1 49 26 238 -7 236 -42 -1 -9 4 -17 12 -17 8 0 11 -6 8 -15 -4 -8
-13 -15 -21 -15 -9 0 -22 -8 -29 -17 -11 -16 -16 -17 -46 -5 -40 17 -88 24
-88 14 0 -4 20 -20 45 -35 25 -16 56 -43 69 -60 l25 -31 60 128 c34 71 66 126
72 124 6 -2 21 -22 33 -43 11 -22 25 -43 30 -46 5 -4 6 -12 2 -17 -4 -6 5 -37
18 -69 l25 -58 1 88 c0 71 -3 87 -15 87 -10 0 -15 10 -15 34 l0 34 68 -5 c88
-6 92 -8 92 -38 0 -15 4 -24 10 -20 6 3 10 15 10 27 0 19 4 20 63 13 34 -4 65
-13 69 -20 7 -11 18 -11 60 1 108 28 182 13 197 -40 6 -24 4 -35 -10 -52 -14
-15 -16 -23 -7 -32 6 -6 19 -53 29 -104 19 -102 18 -108 -37 -108 -29 0 -31 3
-48 68 -10 38 -22 75 -28 83 -9 13 -8 -3 5 -115 1 -14 -7 -22 -30 -29 -49 -15
-60 -5 -68 60 -19 162 -47 203 -60 91 -7 -56 -12 -68 -50 -105 -37 -38 -48
-43 -88 -43 -25 0 -57 4 -71 10 -30 11 -32 6 -12 -47 23 -62 19 -70 -33 -65
-25 2 -48 5 -50 7 -1 2 -22 45 -45 96 -22 51 -46 94 -52 96 -6 2 -26 -30 -45
-71 -36 -80 -45 -86 -126 -86 -32 0 -35 2 -29 25 6 24 5 25 -41 25 -54 0 -163
28 -163 42 0 5 -12 0 -26 -11 -35 -28 -106 -28 -157 -1 l-37 20 0 -60 0 -60
-48 0 c-45 0 -50 3 -65 33 -9 18 -16 25 -16 15 -2 -30 -50 -36 -197 -26 -76 5
-145 11 -151 13 -9 3 -13 28 -14 77 0 40 -4 93 -7 118 l-7 45 -33 -101 c-17
-55 -32 -105 -32 -111 0 -16 -13 -18 -69 -15 l-49 4 -37 106 c-49 141 -77 202
-92 202 -8 0 -13 14 -13 36 0 36 1 36 31 30 17 -3 48 -6 69 -6 33 0 39 -4 53
-37 9 -21 19 -55 22 -77 8 -50 20 -37 37 39 l14 60 38 -3 c47 -4 257 27 271
40 5 5 19 7 30 4 11 -2 62 -8 114 -12z m2398 -5 l102 -12 5 -61 c4 -34 7 -81
9 -106 l2 -45 58 113 c31 61 61 112 66 112 5 0 49 -98 99 -217 88 -211 90
-218 69 -226 -12 -4 -34 -7 -50 -5 -26 3 -33 12 -70 100 -26 61 -48 98 -57 98
-9 0 -28 -30 -49 -75 -18 -41 -40 -75 -47 -75 -8 0 -13 -6 -12 -12 2 -9 -12
-13 -47 -13 l-50 0 -16 95 -17 95 -1 -82 -1 -83 -55 0 -55 0 -1 43 c-1 23 -4
53 -8 67 -6 21 -8 22 -14 8 -19 -51 -153 -79 -205 -42 -49 34 -72 129 -50 204
26 84 118 114 217 70 50 -23 51 -23 51 -10 0 6 -7 10 -15 10 -10 0 -15 10 -15
33 0 38 -16 37 157 16z m1261 -7 c9 -11 12 -12 12 -2 0 10 14 11 62 6 34 -3
65 -11 69 -18 5 -8 22 -8 68 2 76 16 136 8 167 -21 19 -18 24 -19 24 -7 0 16
53 29 183 44 54 6 57 6 57 -15 0 -25 7 -25 80 -6 78 21 132 19 164 -6 29 -23
33 -54 11 -83 -11 -15 -12 -23 -3 -33 11 -13 50 -194 44 -201 -2 -1 -19 -5
-39 -9 l-35 -5 -22 73 c-12 41 -26 78 -31 83 -12 13 -11 -37 1 -89 10 -45 6
-51 -52 -60 -32 -6 -38 -11 -38 -32 l0 -26 -136 7 c-76 4 -141 9 -145 12 -5 3
-9 35 -10 72 -1 78 -15 188 -18 134 -4 -102 -81 -165 -206 -167 -5 0 -15 46
-21 103 -12 107 -15 119 -34 107 -8 -5 -9 -48 -4 -146 l7 -139 -49 0 -49 0
-20 53 -20 52 -3 -37 c-3 -33 -6 -38 -29 -38 -20 0 -24 -4 -20 -20 4 -16 -1
-21 -28 -26 -58 -10 -65 -4 -108 98 -26 61 -48 98 -57 98 -9 0 -28 -29 -48
-74 -36 -79 -45 -86 -116 -86 -33 0 -38 3 -33 19 3 14 -2 21 -18 25 -15 4 -24
16 -28 35 -8 37 -47 51 -47 16 0 -20 -6 -23 -57 -29 -32 -3 -74 -8 -94 -12
l-36 -6 -17 69 c-9 38 -21 75 -26 83 -17 27 -22 2 -11 -50 6 -28 11 -57 11
-65 0 -12 -48 -35 -75 -35 -7 0 -17 41 -27 106 -10 63 -22 110 -30 117 -21 17
-43 76 -32 87 17 16 117 40 166 40 39 0 54 -5 73 -25 29 -28 31 -42 11 -71
-13 -18 -13 -26 -1 -60 8 -21 15 -50 16 -64 1 -24 2 -23 10 5 4 17 11 61 15
99 l6 68 64 -4 c49 -3 64 -1 64 10 0 9 12 12 42 10 l42 -3 20 -92 c12 -50 24
-95 28 -98 4 -4 34 47 67 114 34 67 65 121 70 121 5 0 23 -35 41 -77 17 -43
42 -100 55 -128 l23 -50 1 50 c1 84 -10 155 -25 155 -13 0 -21 50 -10 61 2 2
31 3 63 1 39 -2 62 -9 71 -20z m-9848 -1 c5 -11 10 -48 10 -83 0 -35 3 -80 6
-100 12 -70 24 -27 24 83 l0 110 58 -7 c31 -3 58 -10 60 -15 2 -4 26 1 54 12
28 11 53 18 55 15 2 -2 6 -37 9 -78 2 -40 7 -110 10 -155 l6 -83 71 0 c110 0
117 -4 117 -58 l0 -45 -142 7 c-78 3 -143 8 -145 10 -2 2 -6 40 -10 85 -3 45
-10 84 -15 87 -4 3 -8 -5 -8 -17 0 -12 -19 -41 -45 -67 -44 -44 -46 -44 -100
-40 -36 3 -66 13 -86 27 l-30 22 -53 -26 c-29 -14 -69 -28 -88 -31 l-35 -6
-28 111 c-15 62 -32 111 -39 111 -6 0 -19 20 -29 45 -16 45 -16 46 6 54 57 21
134 33 178 28 39 -5 49 -3 49 8 0 12 15 15 65 15 53 0 66 -3 75 -19z"/>
<path d="M6572 6940 c-12 -19 -22 -40 -22 -47 0 -16 40 -53 57 -53 21 0 28 30
13 54 -7 11 -16 35 -20 51 l-6 30 -22 -35z"/>
<path d="M6144 6938 c-24 -11 -44 -48 -44 -79 0 -26 9 -20 48 35 34 46 32 60
-4 44z"/>
<path d="M6291 6853 c-23 -30 -41 -57 -38 -60 3 -3 14 5 24 18 10 12 28 33 41
47 13 13 22 30 20 36 -2 7 -23 -12 -47 -41z"/>
<path d="M5262 6863 c-13 -24 -15 -62 -4 -79 35 -52 132 -25 132 38 0 16 -2
16 -28 1 -36 -21 -58 -12 -75 29 -13 32 -14 33 -25 11z"/>
<path d="M5886 6834 l-39 -33 32 -18 c17 -10 31 -21 31 -25 0 -5 6 -8 14 -8
10 0 12 13 9 53 -3 28 -5 55 -6 59 -1 3 -19 -9 -41 -28z"/>
<path d="M6962 6853 c-12 -10 -24 -31 -28 -48 l-7 -30 44 39 c24 21 48 43 54
47 18 17 -43 9 -63 -8z"/>
<path d="M7235 6847 c-58 -42 -175 -138 -175 -144 0 -7 49 24 76 48 11 11 23
19 27 19 4 0 23 -35 44 -77 21 -43 39 -80 40 -82 5 -8 103 74 103 86 0 18 -71
173 -79 173 -3 -1 -20 -11 -36 -23z"/>
<path d="M4833 6965 c-18 -8 -33 -17 -33 -20 0 -13 31 -65 39 -65 7 0 41 76
41 93 0 10 -10 8 -47 -8z"/>
<path d="M6330 6370 c0 -5 5 -10 10 -10 6 0 10 5 10 10 0 6 -4 10 -10 10 -5 0
-10 -4 -10 -10z"/>
<path d="M6391 4668 c1 -29 4 -43 6 -30 3 15 11 22 28 22 12 0 25 7 29 15 10
26 -5 45 -35 45 -28 0 -29 -1 -28 -52z m54 22 c0 -8 -10 -16 -22 -18 -18 -3
-23 2 -23 18 0 16 5 21 23 18 12 -2 22 -10 22 -18z"/>
<path d="M6553 4670 c-1 -30 1 -47 4 -37 2 9 7 17 10 17 3 0 12 -8 20 -17 13
-16 13 -16 3 5 -9 18 -8 27 1 40 11 14 11 15 -1 5 -21 -19 -28 -16 -33 15 -2
15 -4 2 -4 -28z"/>
<path d="M6988 4700 c-5 -17 3 -80 11 -80 7 0 6 79 -2 86 -3 3 -7 0 -9 -6z"/>
<path d="M6481 4672 c-7 -14 -7 -24 3 -37 19 -27 48 -12 44 22 -4 33 -32 42
-47 15z m36 -8 c8 -22 -15 -44 -26 -25 -10 16 -4 41 10 41 5 0 12 -7 16 -16z"/>
<path d="M6626 4681 c-3 -5 3 -7 14 -4 11 3 20 1 20 -5 0 -6 -12 -13 -27 -15
-26 -4 -25 -4 5 -6 27 -1 33 2 30 16 -4 20 -33 29 -42 14z"/>
<path d="M6691 4651 c1 -35 2 -35 8 -7 9 42 29 44 34 4 l5 -33 -2 35 c-1 29
-5 35 -23 36 -20 1 -23 -3 -22 -35z"/>
<path d="M6757 4683 c6 -4 13 -22 16 -38 4 -27 5 -27 3 4 0 21 -7 36 -16 38
-10 3 -11 2 -3 -4z"/>
<path d="M6804 4676 c-10 -26 0 -51 21 -51 16 0 20 7 20 30 0 33 -30 49 -41
21z m36 -21 c0 -16 -6 -25 -15 -25 -9 0 -15 9 -15 25 0 16 6 25 15 25 9 0 15
-9 15 -25z"/>
<path d="M6882 4653 c1 -37 1 -37 5 -5 3 18 10 32 18 32 8 0 16 -14 18 -32 l5
-33 -2 35 c-1 28 -5 36 -23 38 -21 3 -23 -1 -21 -35z"/>
<path d="M7021 4686 c-1 -5 4 -25 11 -43 10 -29 10 -36 -2 -43 -11 -7 -11 -10
-2 -10 7 0 17 12 22 26 13 32 13 54 1 35 -6 -10 -11 -6 -19 15 -6 16 -11 25
-11 20z"/>
<path d="M7091 4636 c1 -28 3 -43 6 -33 2 9 10 17 18 17 7 0 18 7 26 16 17 20
0 49 -30 50 -19 1 -21 -4 -20 -50z m42 31 c3 -8 1 -20 -4 -28 -11 -19 -34 3
-26 25 8 20 23 21 30 3z"/>
<path d="M7176 4681 c-3 -5 3 -7 14 -4 11 3 20 1 20 -5 0 -6 -12 -13 -27 -15
-26 -4 -25 -4 5 -6 27 -1 33 2 30 16 -4 20 -33 29 -42 14z"/>
<path d="M7350 4682 c0 -5 9 -17 20 -27 20 -18 21 -18 42 3 24 24 18 43 -7 22
-12 -10 -19 -10 -27 -2 -14 14 -28 16 -28 4z"/>
<path d="M6627 4628 c2 -5 10 -8 18 -8 8 0 16 3 18 8 3 4 -5 7 -18 7 -13 0
-21 -3 -18 -7z"/>
<path d="M7177 4628 c2 -5 10 -8 18 -8 8 0 16 3 18 8 3 4 -5 7 -18 7 -13 0
-21 -3 -18 -7z"/>
<path d="M7981 4689 c-14 -41 -15 -39 14 -39 13 0 29 -8 35 -17 11 -17 11 -17
6 0 -3 10 -6 21 -6 23 0 2 -11 4 -24 4 -20 0 -23 4 -19 21 6 21 6 21 21 3 14
-18 14 -18 8 -1 -3 10 -6 23 -6 28 0 21 -19 7 -29 -22z"/>
<path d="M8388 4700 c-5 -17 3 -80 11 -80 7 0 6 79 -2 86 -3 3 -7 0 -9 -6z"/>
<path d="M8730 4688 c0 -8 9 -23 20 -33 20 -18 21 -18 42 3 24 24 18 43 -7 22
-13 -11 -19 -10 -35 5 -16 15 -20 15 -20 3z"/>
<path d="M8058 4672 c-3 -10 -1 -26 3 -37 6 -16 8 -13 8 13 1 41 23 39 32 -4
l7 -29 1 33 c0 17 5 32 10 32 6 0 12 -15 14 -32 l4 -33 1 36 c2 36 1 37 -37
37 -29 1 -40 -4 -43 -16z"/>
<path d="M8170 4675 c-17 -21 -2 -50 26 -50 14 0 19 7 19 30 0 34 -24 45 -45
20z m37 -11 c8 -22 -15 -44 -26 -25 -10 16 -4 41 10 41 5 0 12 -7 16 -16z"/>
<path d="M8243 4658 c1 -26 7 -34 25 -36 20 -3 22 1 20 35 -1 37 -1 37 -5 6
-5 -42 -30 -43 -37 -3 -6 30 -6 30 -3 -2z"/>
<path d="M8311 4653 c1 -36 2 -37 8 -8 3 17 13 30 21 30 8 0 18 -13 22 -30 6
-29 6 -29 5 5 -2 30 -6 35 -29 38 -26 3 -28 1 -27 -35z"/>
<path d="M4053 4713 c9 -2 23 -2 30 0 6 3 -1 5 -18 5 -16 0 -22 -2 -12 -5z"/>
<path d="M4641 4704 c0 -11 3 -14 6 -6 3 7 2 16 -1 19 -3 4 -6 -2 -5 -13z"/>
<path d="M4201 4694 c0 -11 3 -14 6 -6 3 7 2 16 -1 19 -3 4 -6 -2 -5 -13z"/>
<path d="M4280 4686 c0 -2 9 -6 20 -9 11 -3 18 -1 14 4 -5 9 -34 13 -34 5z"/>
<path d="M4372 4676 c7 -8 15 -12 17 -11 5 6 -10 25 -20 25 -5 0 -4 -6 3 -14z"/>
<path d="M4811 4674 c0 -11 3 -14 6 -6 3 7 2 16 -1 19 -3 4 -6 -2 -5 -13z"/>
<path d="M4040 4669 c0 -5 11 -9 25 -9 14 0 25 2 25 4 0 2 -11 6 -25 8 -14 3
-25 1 -25 -3z"/>
<path d="M4206 4662 c-3 -5 1 -9 9 -9 8 0 12 4 9 9 -3 4 -7 8 -9 8 -2 0 -6 -4
-9 -8z"/>
<path d="M4755 4660 c-16 -7 -17 -9 -3 -9 9 -1 20 4 23 9 7 11 7 11 -20 0z"/>
<path d="M4278 4653 c6 -2 18 -2 25 0 6 3 1 5 -13 5 -14 0 -19 -2 -12 -5z"/>
<path d="M4933 4653 c9 -2 23 -2 30 0 6 3 -1 5 -18 5 -16 0 -22 -2 -12 -5z"/>
<path d="M4341 4634 c0 -11 3 -14 6 -6 3 7 2 16 -1 19 -3 4 -6 -2 -5 -13z"/>
<path d="M4295 4630 c-16 -7 -17 -9 -3 -9 9 -1 20 4 23 9 7 11 7 11 -20 0z"/>
<path d="M4945 4630 c-16 -7 -17 -9 -3 -9 9 -1 20 4 23 9 7 11 7 11 -20 0z"/>
<path d="M5867 4665 c-3 -6 -2 -17 2 -24 9 -14 41 -4 41 14 0 17 -37 26 -43
10z"/>
<path d="M5675 4670 c-3 -5 1 -10 10 -10 9 0 13 5 10 10 -3 6 -8 10 -10 10 -2
0 -7 -4 -10 -10z"/>
<path d="M5675 4640 c3 -5 12 -7 20 -3 21 7 19 13 -6 13 -11 0 -18 -4 -14 -10z"/>
<path d="M10104 3432 c-24 -19 -44 -53 -44 -74 1 -13 79 70 80 85 0 12 -14 8
-36 -11z"/>
<path d="M10109 3379 c-34 -37 -69 -142 -69 -210 0 -39 4 -50 22 -60 28 -15
137 -4 158 16 11 11 16 44 18 123 4 98 2 109 -18 135 -30 38 -73 37 -111 -4z
m97 -34 c9 -48 -15 -109 -43 -113 -17 -3 -22 3 -28 36 -14 85 55 160 71 77z
m-129 -117 c-3 -7 -5 -2 -5 12 0 14 2 19 5 13 2 -7 2 -19 0 -25z m3 -70 c0
-16 -4 -28 -10 -28 -5 0 -10 19 -10 43 0 31 3 38 10 27 5 -8 10 -27 10 -42z"/>
<path d="M9680 3146 c0 -8 5 -18 10 -21 6 -3 10 3 10 14 0 12 -4 21 -10 21 -5
0 -10 -6 -10 -14z"/>
<path d="M9834 3106 c-10 -8 -16 -17 -13 -20 10 -10 39 5 39 20 0 17 -2 17
-26 0z"/>
<path d="M10502 1720 c0 -14 2 -19 5 -12 2 6 2 18 0 25 -3 6 -5 1 -5 -13z"/>
<path d="M2513 2996 c-104 -53 -138 -84 -129 -119 11 -46 141 -113 176 -92 41
25 120 204 107 239 -11 27 -61 18 -154 -28z"/>
<path d="M2312 2777 c-30 -32 -28 -47 12 -93 34 -39 34 -39 55 -20 25 23 26
49 3 96 -21 43 -41 48 -70 17z"/>
<path d="M2150 2782 c0 -5 14 -26 30 -47 17 -21 40 -54 51 -72 27 -43 48 -30
25 15 -29 57 -106 132 -106 104z"/>
<path d="M2786 2758 c-17 -41 -21 -98 -7 -98 11 0 35 105 28 123 -3 6 -12 -5
-21 -25z"/>
<path d="M2851 2739 c-37 -40 -54 -240 -28 -339 11 -40 15 -45 44 -48 43 -4
117 29 139 62 40 62 -13 270 -83 325 -33 26 -47 26 -72 0z m79 -39 c62 -88 84
-300 30 -300 -3 0 -6 42 -6 93 0 100 -20 175 -57 215 -17 18 -18 22 -4 22 8 0
25 -13 37 -30z m-45 -115 c0 -73 -12 -104 -34 -91 -12 8 -15 114 -5 165 6 30
8 31 23 16 12 -12 16 -35 16 -90z"/>
<path d="M2643 2718 c-33 -37 -73 -106 -80 -138 -5 -28 -2 -31 43 -52 27 -12
67 -22 89 -22 37 -1 40 1 43 29 5 37 -16 141 -34 177 -18 34 -34 35 -61 6z"/>
<path d="M1993 2701 c-68 -43 -125 -172 -127 -290 0 -65 2 -75 23 -92 62 -50
322 -72 364 -30 19 19 13 147 -11 213 -58 161 -169 249 -249 199z m32 -53
c-46 -83 -54 -221 -19 -307 8 -19 13 -36 10 -38 -2 -2 -28 4 -57 14 l-54 18 1
85 c1 61 7 100 22 140 26 66 76 130 102 130 17 0 17 -3 -5 -42z m105 -44 c17
-51 9 -160 -14 -182 -16 -16 -18 -16 -37 7 -15 18 -19 39 -19 91 0 82 12 120
39 120 13 0 23 -11 31 -36z"/>
<path d="M2995 2311 c-3 -16 -14 -36 -23 -44 -27 -23 -134 -74 -219 -104 -75
-26 -85 -27 -273 -27 -207 1 -414 22 -505 52 -38 13 -56 26 -75 56 -22 34 -25
36 -28 18 -5 -32 20 -75 51 -90 86 -42 426 -79 632 -69 133 6 212 26 330 84
102 50 135 82 135 132 0 31 -17 25 -25 -8z"/>
<path d="M2733 2225 c-8 -22 6 -33 17 -15 13 20 12 30 0 30 -6 0 -13 -7 -17
-15z"/>
<path d="M2545 2211 c-3 -6 3 -15 14 -20 24 -14 31 -14 31 -1 0 14 -38 32 -45
21z"/>
<path d="M1003 1978 c-12 -13 -29 -41 -38 -62 -20 -48 -9 -68 68 -120 79 -52
97 -49 135 22 34 64 53 125 43 139 -13 21 -54 34 -119 40 -61 5 -69 3 -89 -19z"/>
<path d="M1575 1913 c-47 -25 -116 -83 -127 -109 -9 -19 -6 -33 15 -76 36 -73
113 -168 136 -168 33 0 61 114 61 246 0 119 -18 143 -85 107z"/>
<path d="M2804 1813 c-38 -40 -64 -97 -64 -137 0 -26 7 -40 31 -60 17 -14 37
-26 44 -26 7 0 20 -3 28 -6 31 -12 47 24 46 104 -1 135 -32 182 -85 125z"/>
<path d="M8130 2070 c0 -5 5 -10 10 -10 14 0 12 -27 -2 -33 -8 -3 -6 -6 5 -6
23 -1 33 25 17 44 -14 17 -30 20 -30 5z"/>
<path d="M7955 1850 c-4 -6 -1 -10 4 -10 15 0 14 -37 -1 -43 -7 -2 -10 -7 -7
-10 11 -13 47 23 42 42 -6 22 -29 35 -38 21z"/>
<path d="M8167 1819 c4 -15 0 -27 -12 -35 -18 -13 -18 -14 3 -14 24 0 47 34
38 56 -9 24 -35 17 -29 -7z"/>
<path d="M7794 1612 c18 -30 266 -70 266 -43 0 7 -21 11 -57 11 -56 0 -158 19
-197 35 -14 6 -17 5 -12 -3z"/>
<path d="M5394 2495 c-43 -22 -124 -87 -124 -100 0 -3 7 -5 15 -5 9 0 39 -25
67 -55 28 -31 55 -52 58 -48 17 18 50 233 37 233 -2 0 -25 -11 -53 -25z"/>
<path d="M4466 2275 c4 -8 1 -22 -6 -30 -7 -9 -15 -46 -18 -84 -4 -67 -4 -68
26 -89 63 -46 182 -89 182 -67 0 2 -10 30 -22 62 -27 74 -74 160 -106 196 -28
29 -65 38 -56 12z m51 -34 c9 -14 8 -28 -3 -62 -12 -32 -13 -53 -6 -81 11 -43
10 -44 -23 -22 -21 13 -25 24 -25 63 0 58 17 121 33 121 7 0 17 -8 24 -19z"/>
<path d="M5203 2267 c-52 -20 -115 -70 -160 -128 -41 -53 -79 -136 -68 -147 5
-5 242 39 295 54 21 5 25 119 7 173 -10 28 -11 43 -4 50 15 15 -28 13 -70 -2z
m57 -88 c15 -104 13 -113 -36 -123 l-31 -7 1 53 c1 29 -3 70 -7 90 -7 34 -5
38 20 52 15 8 32 11 36 7 4 -5 12 -37 17 -72z"/>
<path d="M5018 2256 c-21 -15 -43 -66 -52 -119 -9 -47 8 -43 18 4 3 17 17 53
31 80 13 27 23 49 22 49 -1 0 -10 -7 -19 -14z"/>
<path d="M4631 2255 c-1 -5 10 -39 24 -75 19 -52 24 -59 24 -35 0 27 -48 135
-48 110z"/>
<path d="M4716 2227 c-16 -12 -17 -18 -7 -49 6 -19 21 -45 33 -58 l21 -23 17
21 c18 22 34 97 25 113 -9 14 -68 11 -89 -4z"/>
<path d="M4692 1910 c14 -22 24 -19 15 5 -4 8 -11 15 -17 15 -6 0 -6 -7 2 -20z"/>
<path d="M4800 1895 c-16 -19 0 -19 26 0 16 12 16 14 3 15 -9 0 -22 -7 -29
-15z"/>
<path d="M4126 2332 c-8 -13 9 -58 24 -67 15 -9 60 14 60 30 0 26 -71 57 -84
37z"/>
<path d="M4270 2257 c-27 -9 -41 -23 -59 -61 -24 -48 -24 -49 -6 -82 22 -40
51 -50 99 -34 31 10 36 16 41 53 4 23 5 62 3 87 -3 51 -18 58 -78 37z"/>
<path d="M4706 1653 c-3 -10 -6 -38 -7 -63 -4 -72 31 -120 86 -120 28 0 37 6
50 31 26 49 16 78 -43 126 -57 47 -78 53 -86 26z"/>
<path d="M4684 1456 c-3 -8 -4 -29 -2 -48 2 -27 8 -34 30 -36 18 -2 31 4 42
20 23 32 20 45 -14 63 -36 19 -49 19 -56 1z"/>
<path d="M7748 2476 c-45 -16 -121 -60 -137 -80 -11 -13 -2 -20 59 -51 40 -20
78 -34 85 -31 17 6 60 139 52 160 -8 19 -11 19 -59 2z"/>
<path d="M6685 2440 c-8 -12 4 -57 27 -102 l18 -38 55 36 c30 20 55 40 55 45
0 9 -118 69 -136 69 -7 0 -15 -4 -19 -10z"/>
<path d="M7441 2304 c-12 -15 -25 -43 -30 -63 -22 -83 -24 -94 -14 -88 6 4 14
22 17 42 11 57 36 107 57 112 22 6 26 23 5 23 -8 0 -24 -12 -35 -26z"/>
<path d="M7573 2289 c46 -30 53 -49 19 -49 -32 -1 -121 -64 -160 -114 -22 -29
-30 -52 -13 -42 4 3 16 -3 26 -14 10 -11 35 -25 55 -31 73 -22 126 32 137 137
3 30 11 54 16 54 6 0 1 9 -11 20 -12 12 -22 24 -22 28 0 10 -59 42 -78 42 -8
0 6 -14 31 -31z m47 -98 c0 -75 -42 -141 -89 -141 -26 0 -91 33 -91 47 0 3 7
14 16 24 15 17 18 17 40 2 22 -14 26 -14 49 1 19 12 25 25 25 51 0 22 6 38 18
44 28 17 32 13 32 -28z m-90 -19 c0 -13 -12 -22 -22 -16 -10 6 -1 24 13 24 5
0 9 -4 9 -8z"/>
<path d="M6800 2269 c-43 -26 -45 -28 -38 -35 4 -3 30 8 60 25 34 20 46 31 33
31 -11 0 -36 -10 -55 -21z"/>
<path d="M6716 2203 c7 -4 17 -34 23 -65 14 -65 53 -108 100 -108 28 0 92 36
98 56 11 35 -109 112 -189 121 -24 2 -38 1 -32 -4z m75 -23 c5 0 9 -13 9 -30
0 -27 29 -70 48 -70 4 0 18 7 30 16 33 23 48 7 21 -22 -29 -31 -78 -32 -107
-1 -39 41 -58 125 -26 113 9 -3 20 -6 25 -6z m75 -47 c-8 -8 -36 5 -36 17 0 7
6 7 21 0 11 -7 18 -14 15 -17z"/>
<path d="M7804 2015 c-8 -20 -54 -33 -164 -45 -52 -6 -189 -29 -304 -51 l-209
-41 -131 38 c-86 24 -158 39 -211 41 -105 5 -121 9 -145 35 -16 18 -20 19 -20
5 0 -9 12 -24 26 -34 36 -25 61 -48 65 -62 3 -7 16 -14 30 -15 13 -2 78 -38
143 -80 65 -43 134 -83 155 -89 20 -6 93 -11 162 -11 l126 -1 96 48 c54 26
126 70 162 97 36 27 67 44 71 39 8 -13 31 7 50 43 9 17 23 28 35 28 40 0 89
36 89 66 0 11 -21 2 -26 -11z m-120 -90 c-17 -25 -19 -26 -31 -9 -19 26 -16
32 15 36 36 5 36 4 16 -27z m-936 -5 c-7 -11 -16 -20 -20 -20 -4 0 -12 9 -18
20 -10 18 -8 20 20 20 28 0 29 -2 18 -20z m242 -25 c138 -38 143 -38 325 -5
94 17 180 33 193 35 33 8 27 -11 -15 -50 -41 -37 -48 -41 -58 -25 -11 17 -25
11 -25 -10 0 -24 -27 -37 -43 -21 -17 17 -27 13 -27 -9 0 -27 -64 -43 -165
-42 -95 1 -135 11 -149 38 -6 10 -12 21 -13 23 -2 2 -9 -2 -17 -8 -18 -15 -36
-6 -36 18 0 27 -11 33 -25 14 -12 -16 -16 -14 -49 19 -65 65 -56 67 104 23z
m-44 -82 c-5 -12 -10 -13 -18 -5 -8 8 -8 15 3 28 15 18 25 4 15 -23z m491 -9
c-12 -12 -25 7 -19 28 l5 22 10 -22 c6 -12 7 -25 4 -28z m-63 -25 c-11 -18
-24 -8 -24 19 1 26 1 26 15 8 8 -10 12 -23 9 -27z m-358 6 c1 -8 -4 -15 -12
-15 -14 0 -19 21 -7 33 8 9 16 1 19 -18z"/>
<path d="M7030 1951 c0 -13 29 -35 37 -28 7 8 -15 37 -28 37 -5 0 -9 -4 -9 -9z"/>
<path d="M7175 1939 c-4 -6 -5 -12 -3 -14 7 -7 48 7 48 16 0 13 -37 11 -45 -2z"/>
<path d="M8715 2230 c4 -12 1 -27 -5 -35 -10 -12 -9 -15 3 -15 24 0 41 38 26
56 -17 21 -31 17 -24 -6z"/>
<path d="M8512 2041 c10 -17 9 -23 -6 -40 -17 -18 -17 -21 -3 -21 24 0 40 35
27 60 -6 11 -15 20 -20 20 -6 0 -5 -8 2 -19z"/>
<path d="M8700 2015 c0 -8 5 -15 10 -15 18 0 11 -29 -12 -50 l-23 -22 24 4
c31 4 46 28 38 60 -8 29 -37 47 -37 23z"/>
<path d="M6572 1848 c-7 -7 -12 -22 -12 -35 0 -17 6 -23 22 -23 21 0 21 0 3
14 -17 12 -17 16 -6 30 16 19 10 31 -7 14z"/>
<path d="M6700 1694 c32 -15 223 -34 210 -22 -3 3 -48 11 -100 17 -52 6 -106
13 -120 16 -18 4 -15 1 10 -11z"/>
<path d="M5210 1633 c-30 -39 -23 -59 20 -55 44 5 50 9 50 31 0 17 -29 51 -43
51 -3 0 -15 -12 -27 -27z"/>
<path d="M2521 782 c4 -133 17 -166 68 -177 40 -9 79 11 108 54 19 29 23 47
23 117 0 62 -4 87 -16 98 -8 9 -18 16 -22 16 -4 0 -8 -46 -10 -102 -2 -56 -7
-107 -12 -114 -6 -6 -8 -13 -5 -15 2 -3 -11 -6 -29 -7 -18 -1 -38 4 -45 11 -6
8 -13 50 -17 93 -8 121 -13 144 -31 144 -13 0 -15 -16 -12 -118z"/>
<path d="M1565 866 c-22 -7 -39 -16 -37 -19 1 -4 2 -11 2 -17 0 -5 6 -10 14
-10 9 0 23 -36 41 -110 18 -71 32 -110 40 -110 24 0 70 21 93 42 28 27 28 57
1 92 -29 37 -45 33 -17 -5 21 -28 21 -32 8 -57 -10 -17 -27 -29 -50 -33 -19
-4 -36 -6 -38 -4 -2 1 -4 26 -5 54 -1 28 -5 51 -8 51 -4 0 -9 21 -13 47 -7 53
1 63 51 63 20 0 36 -7 42 -17 10 -16 10 -16 11 3 0 44 -51 56 -135 30z"/>
<path d="M2049 873 c-10 -2 -19 -14 -23 -26 -7 -27 3 -37 15 -14 12 21 58 22
114 2 40 -14 70 -6 50 14 -9 8 -120 33 -134 30 -3 -1 -13 -3 -22 -6z"/>
<path d="M2855 871 c-36 -9 -76 -30 -57 -31 7 0 11 -4 8 -9 -3 -5 0 -11 8 -14
8 -3 17 -16 20 -29 2 -13 4 -6 2 14 -2 35 0 38 30 44 44 8 72 -3 76 -29 4 -21
5 -20 18 7 13 25 12 30 -5 42 -20 15 -51 16 -100 5z"/>
<path d="M1800 693 c-39 -80 -70 -148 -70 -150 0 -1 4 -3 10 -3 5 0 28 36 50
80 27 54 46 80 58 80 42 0 64 -15 84 -54 17 -32 23 -37 26 -22 4 17 -74 216
-84 216 -2 0 -36 -66 -74 -147z m90 92 c5 -14 13 -37 16 -50 6 -23 3 -25 -30
-25 -41 0 -44 10 -22 65 18 42 23 43 36 10z"/>
<path d="M2305 739 c-26 -50 -44 -93 -41 -96 3 -3 -4 -23 -15 -45 -11 -22 -19
-44 -17 -49 2 -6 21 26 43 70 30 62 44 81 60 81 52 0 63 -11 105 -106 24 -52
47 -94 51 -94 12 0 12 2 -12 62 -49 127 -112 268 -120 268 -4 0 -28 -41 -54
-91z m78 24 l14 -48 -30 -3 c-16 -2 -34 1 -39 6 -10 10 19 92 33 92 5 0 15
-21 22 -47z"/>
<path d="M2880 809 c0 -5 5 -7 10 -4 6 3 10 8 10 11 0 2 -4 4 -10 4 -5 0 -10
-5 -10 -11z"/>
<path d="M2042 780 c8 -14 39 -42 69 -63 59 -42 74 -60 65 -84 -6 -16 -40 -15
-141 2 -16 3 -24 2 -17 -1 6 -3 10 -10 7 -14 -7 -12 60 -30 108 -30 31 0 40 5
49 26 15 33 -10 83 -55 109 -18 10 -47 32 -66 49 -31 28 -33 28 -19 6z"/>
<path d="M2937 764 c-4 -4 -2 -13 3 -19 6 -7 17 -32 25 -56 l15 -44 -6 50 c-5
49 -23 82 -37 69z"/>
<path d="M2840 727 c0 -15 4 -27 8 -27 10 0 9 36 -1 46 -4 4 -7 -5 -7 -19z"/>
<path d="M1650 700 c0 -5 5 -10 11 -10 5 0 7 5 4 10 -3 6 -8 10 -11 10 -2 0
-4 -4 -4 -10z"/>
<path d="M2852 670 c0 -14 4 -36 8 -50 6 -20 8 -21 8 -5 0 11 -4 34 -8 50 -7
27 -8 27 -8 5z"/>
<path d="M1962 583 c2 -5 10 -25 18 -45 8 -21 20 -38 27 -38 14 0 5 30 -19 69
-12 19 -34 30 -26 14z"/>
<path d="M3957 883 c-20 -3 -35 -8 -32 -12 2 -5 -11 -6 -30 -4 -20 2 -35 -1
-35 -7 0 -5 5 -10 11 -10 5 0 7 -4 4 -10 -4 -6 7 -10 24 -10 28 0 31 -3 31
-34 0 -18 -3 -61 -6 -94 -6 -57 -9 -61 -35 -67 -19 -4 -26 -11 -22 -21 4 -10
25 -14 84 -14 72 0 79 2 79 20 0 17 -7 20 -48 20 l-47 0 9 99 9 99 34 7 c24 4
33 11 31 22 -4 19 -10 21 -61 16z"/>
<path d="M5612 854 c-7 -8 -8 -14 -2 -14 5 0 10 -8 11 -17 0 -14 3 -13 11 5
14 28 -1 47 -20 26z"/>
<path d="M5291 844 c0 -11 3 -14 6 -6 3 7 2 16 -1 19 -3 4 -6 -2 -5 -13z"/>
<path d="M5376 838 c-5 -16 -12 -28 -17 -28 -5 0 -9 -24 -9 -52 0 -72 -17
-102 -58 -106 -40 -4 -47 12 -57 121 -4 42 -12 77 -17 77 -5 0 -6 -5 -2 -12 4
-6 -1 -17 -11 -24 -15 -11 -16 -22 -11 -77 8 -73 35 -124 69 -132 35 -9 93 19
110 52 19 36 27 117 17 168 -7 39 -7 39 -14 13z"/>
<path d="M4134 828 c-5 -7 -3 -8 6 -3 9 5 11 2 6 -11 -3 -11 11 -68 32 -129
30 -90 41 -111 58 -113 18 -3 26 11 63 114 49 139 50 148 16 132 -25 -11 -45
-58 -45 -106 0 -13 -7 -37 -16 -55 l-17 -32 -13 30 c-7 17 -25 65 -41 108 -27
77 -35 87 -49 65z"/>
<path d="M5501 814 c0 -11 3 -14 6 -6 3 7 2 16 -1 19 -3 4 -6 -2 -5 -13z"/>
<path d="M4450 811 c0 -6 16 -36 35 -68 39 -65 41 -76 21 -124 -26 -64 -29
-79 -13 -73 16 6 25 23 78 154 45 111 48 125 19 110 -11 -6 -20 -21 -20 -33 0
-13 -7 -32 -15 -43 -15 -19 -15 -19 -33 2 -9 12 -25 36 -34 53 -16 29 -38 42
-38 22z"/>
<path d="M5286 813 c-9 -9 -7 -96 3 -111 6 -10 10 -8 14 10 15 55 4 122 -17
101z"/>
<path d="M4981 731 c-21 -44 -42 -90 -46 -103 -4 -12 -8 -25 -9 -28 -1 -3 -7
-16 -14 -30 -13 -24 -12 -24 3 -5 9 11 30 46 47 79 l29 58 42 -6 c23 -4 43
-10 45 -14 27 -70 81 -177 90 -180 11 -3 4 20 -32 103 -8 17 -28 67 -47 112
-18 46 -35 81 -37 78 -3 -2 1 -18 8 -34 17 -43 9 -59 -29 -53 -17 2 -33 7 -35
11 -3 4 4 26 14 49 33 73 11 45 -29 -37z"/>
<path d="M4729 766 c8 -10 35 -32 60 -49 25 -17 52 -38 59 -46 11 -14 13 -14
9 -1 -3 14 -81 79 -122 102 -18 10 -19 10 -6 -6z"/>
<path d="M5605 756 c10 -7 25 -31 32 -52 l13 -39 -5 40 c-4 37 -25 65 -49 65
-5 0 -1 -6 9 -14z"/>
<path d="M5517 725 c7 -49 13 -58 13 -19 0 16 -5 36 -10 44 -6 10 -7 2 -3 -25z"/>
<path d="M5531 644 c0 -11 3 -14 6 -6 3 7 2 16 -1 19 -3 4 -6 -2 -5 -13z"/>
<path d="M4687 634 c-14 -15 -6 -21 46 -33 70 -17 106 -12 126 19 15 24 15 24
-2 11 -17 -13 -89 -11 -142 4 -11 3 -24 3 -28 -1z"/>
<path d="M7078 883 c7 -3 16 -2 19 1 4 3 -2 6 -13 5 -11 0 -14 -3 -6 -6z"/>
<path d="M8598 874 c-3 -3 -20 -6 -37 -6 -17 -1 -28 -5 -24 -11 3 -5 -4 -6
-18 -3 -20 6 -21 5 -7 -4 12 -7 24 -8 37 -1 13 7 29 7 51 0 26 -10 31 -16 27
-35 -6 -31 -1 -30 16 4 18 35 12 51 -16 45 -18 -4 -19 -3 -7 6 13 9 13 11 -1
11 -9 0 -18 -3 -21 -6z"/>
<path d="M7007 858 c2 -5 -3 -8 -11 -8 -30 0 -37 -37 -31 -148 9 -153 7 -148
61 -156 26 -3 69 -6 96 -6 42 0 49 3 44 16 -3 9 -6 18 -6 20 0 2 -36 4 -80 4
l-80 0 0 64 0 64 38 6 c57 11 70 16 76 31 4 11 -2 13 -27 8 -18 -3 -33 -9 -35
-13 -1 -3 -16 -4 -32 -2 -28 4 -30 7 -30 47 0 43 11 56 50 60 8 1 21 3 28 4
29 3 8 16 -27 16 -22 0 -37 -3 -34 -7z"/>
<path d="M7231 863 c-1 -7 0 -15 2 -17 1 -2 -6 -13 -16 -24 -16 -17 -17 -31
-11 -113 4 -52 10 -98 14 -104 4 -5 10 -19 12 -30 2 -11 7 20 11 69 4 50 10
92 13 95 11 11 34 -33 64 -125 22 -65 37 -94 47 -94 13 0 15 21 10 171 -3 93
-8 173 -11 176 -4 4 -12 -8 -18 -25 -7 -18 -15 -32 -18 -32 -3 0 -4 -16 -2
-35 3 -29 1 -35 -14 -35 -13 1 -29 21 -51 68 -17 37 -32 61 -32 55z"/>
<path d="M7463 848 c2 -7 -2 -26 -8 -41 -15 -36 -8 -111 13 -156 22 -45 58
-57 105 -37 57 23 72 71 68 204 -1 36 -3 41 -15 30 -8 -7 -14 -15 -13 -18 0
-3 -2 -12 -6 -20 -3 -8 -7 -43 -10 -78 -4 -68 -13 -82 -59 -82 -36 0 -45 18
-53 123 -4 48 -12 87 -17 87 -5 0 -8 -6 -5 -12z"/>
<path d="M8375 837 c-11 -11 -14 -17 -7 -13 6 4 12 2 12 -3 0 -6 -4 -11 -10
-11 -6 0 -10 -28 -10 -62 -1 -71 -15 -98 -53 -98 -34 0 -57 34 -57 85 0 58
-11 115 -22 115 -5 0 -6 -5 -2 -12 4 -6 0 -17 -10 -23 -14 -11 -15 -21 -6 -85
12 -85 23 -108 56 -120 38 -15 82 -1 109 34 28 37 41 121 28 177 -8 36 -8 36
-28 16z"/>
<path d="M6692 817 c-1 -12 15 -73 35 -134 31 -95 41 -113 58 -113 17 0 27 20
64 125 24 69 42 128 39 130 -2 2 -15 -1 -28 -8 -26 -13 -37 -41 -39 -95 -1
-38 -28 -95 -41 -87 -4 3 -23 48 -40 100 -33 99 -45 119 -48 82z"/>
<path d="M8510 815 c5 -16 11 -39 13 -50 3 -13 5 -9 6 11 0 16 -6 39 -14 50
-14 18 -14 17 -5 -11z"/>
<path d="M7068 812 c-29 -2 -38 -8 -38 -21 0 -16 5 -17 43 -10 63 12 75 11 80
-8 3 -11 5 -7 6 10 0 15 -2 27 -6 28 -32 3 -53 4 -85 1z"/>
<path d="M7536 813 c-9 -9 -7 -96 3 -111 6 -10 10 -8 14 10 15 55 4 122 -17
101z"/>
<path d="M8297 813 c-9 -8 -9 -51 -1 -93 10 -46 24 -18 24 48 0 48 -7 62 -23
45z"/>
<path d="M7990 728 c-22 -45 -40 -89 -40 -97 0 -9 -9 -29 -20 -46 -11 -16 -20
-34 -20 -40 0 -17 18 9 55 83 34 67 39 72 68 72 18 0 38 -4 44 -8 7 -5 29 -46
49 -93 36 -84 50 -107 58 -98 5 4 -55 159 -93 239 l-21 45 6 -37 c6 -38 6 -38
-28 -38 -19 0 -37 3 -41 6 -3 3 3 26 13 50 32 74 12 49 -30 -38z"/>
<path d="M7750 755 c14 -15 38 -33 53 -41 15 -9 37 -24 48 -35 10 -10 19 -15
19 -11 0 12 -49 54 -100 86 l-45 29 25 -28z"/>
<path d="M8620 760 c0 -5 4 -11 9 -14 5 -3 14 -29 21 -57 7 -27 14 -48 17 -45
10 9 -19 114 -33 120 -7 3 -14 1 -14 -4z"/>
<path d="M7689 748 c-10 -44 -8 -48 29 -67 39 -20 102 -36 102 -27 0 3 -17 17
-37 30 -21 14 -50 35 -65 46 -16 12 -28 20 -29 18z"/>
<path d="M8532 720 c0 -14 2 -19 5 -12 2 6 2 18 0 25 -3 6 -5 1 -5 -13z"/>
<path d="M7072 690 c-18 -3 -33 -8 -32 -12 0 -5 0 -21 0 -38 l0 -30 66 0 67 0
-7 31 c-3 17 -6 37 -6 45 0 13 -27 15 -88 4z"/>
<path d="M8542 655 c0 -16 2 -22 5 -12 2 9 2 23 0 30 -3 6 -5 -1 -5 -18z"/>
<path d="M7720 630 c0 -6 -4 -8 -10 -5 -5 3 -10 2 -10 -3 0 -12 69 -32 112
-32 37 0 58 15 58 40 0 12 -2 13 -9 1 -9 -14 -86 -12 -123 4 -11 4 -18 3 -18
-5z"/>
<path d="M9578 725 c3 -166 4 -175 22 -175 17 0 20 7 20 43 0 23 3 66 7 95 6
52 6 53 37 50 26 -3 31 -8 37 -38 4 -19 12 -55 17 -80 l9 -45 12 30 c16 37 5
266 -13 277 -31 21 -38 9 -32 -52 l7 -60 -34 0 c-31 0 -35 4 -41 31 -3 17 -6
47 -6 65 0 29 -4 34 -22 34 l-23 0 3 -175z"/>
<path d="M9336 827 c-44 -44 -41 -144 6 -194 26 -27 74 -31 119 -7 34 17 37
51 4 46 -63 -8 -88 -5 -101 13 -20 27 -17 72 7 96 16 16 28 19 63 14 31 -5 45
-3 55 9 10 12 8 17 -18 30 -46 24 -107 21 -135 -7z"/>
<path d="M9846 732 c-35 -70 -57 -127 -55 -141 3 -19 10 -11 38 43 35 68 46
75 94 57 17 -7 33 -33 62 -100 21 -52 44 -91 51 -91 8 0 14 2 14 3 0 5 -140
341 -144 344 -1 1 -28 -50 -60 -115z m73 56 c4 -13 11 -35 15 -50 6 -26 4 -28
-23 -28 -16 0 -32 4 -36 9 -5 9 23 91 31 91 3 0 8 -10 13 -22z"/>
<path d="M9493 765 c-25 -16 -44 -21 -48 -15 -3 5 -17 10 -29 10 -24 0 -37
-23 -29 -47 7 -20 47 -15 61 8 13 20 14 20 50 -12 l37 -33 3 32 c2 18 2 43 0
57 l-3 25 -42 -25z"/>
<path d="M10860 817 c0 -46 3 -125 6 -175 6 -81 9 -92 25 -92 17 0 19 9 19 95
0 86 8 113 25 85 3 -5 21 -54 40 -107 21 -63 39 -99 49 -101 14 -3 16 17 16
176 0 178 0 180 -22 186 -13 3 -27 6 -32 6 -5 0 -6 -34 -4 -75 4 -59 2 -75 -9
-75 -7 0 -18 12 -23 26 -29 77 -61 134 -75 134 -12 0 -15 -16 -15 -83z"/>
<path d="M11428 877 c-61 -8 -68 -12 -68 -32 0 -13 5 -25 11 -27 6 -2 12 -28
15 -58 2 -30 6 -89 10 -131 l5 -76 46 -7 c25 -3 74 -6 109 -6 57 0 64 2 64 20
0 19 -7 20 -95 20 l-95 0 0 64 0 63 60 12 c43 9 60 17 60 28 0 11 -6 14 -22
10 -13 -4 -42 -9 -65 -13 l-43 -7 0 47 c0 50 -3 47 83 61 28 4 37 11 37 25 0
22 -7 23 -112 7z"/>
<path d="M10095 866 c-22 -6 -39 -15 -37 -19 1 -4 2 -11 2 -17 0 -5 6 -10 14
-10 14 0 16 -7 37 -142 6 -43 16 -78 21 -78 6 0 7 11 3 28 -4 15 -8 45 -10 67
-2 22 -5 47 -8 55 -3 8 -8 31 -11 51 -6 35 -5 37 27 43 19 4 42 4 51 0 20 -8
21 -47 1 -64 -13 -11 -12 -15 8 -30 14 -11 28 -40 36 -72 15 -57 36 -103 27
-58 -24 128 -28 139 -47 145 -18 6 -19 9 -6 23 30 35 39 62 26 78 -14 17 -78
17 -134 0z"/>
<path d="M11133 869 c-36 -10 -43 -32 -16 -47 12 -7 18 -35 26 -117 l10 -107
40 5 c80 11 124 92 106 194 -5 29 -18 55 -30 66 -23 19 -82 21 -136 6z m135
-49 c8 -15 11 -46 9 -79 -3 -44 -9 -59 -31 -78 -15 -13 -36 -23 -46 -23 -21 0
-26 19 -33 132 -5 73 -2 78 58 75 20 -2 34 -10 43 -27z"/>
<path d="M11201 793 c0 -15 4 -48 7 -72 6 -38 9 -42 20 -28 20 24 12 121 -10
125 -14 3 -18 -3 -17 -25z"/>
<path d="M11663 867 c-47 -11 -53 -24 -24 -49 13 -11 22 -41 31 -104 14 -99
35 -155 25 -64 -4 30 -9 64 -11 75 -2 11 -6 41 -10 66 -6 46 -6 47 24 54 49
10 88 -20 65 -51 -5 -5 2 1 15 14 57 60 3 88 -115 59z"/>
<path d="M10455 813 l-16 -38 -23 28 c-26 32 -75 38 -77 10 0 -10 -4 -60 -7
-111 l-7 -92 27 0 c25 0 27 4 33 55 8 59 17 68 36 33 11 -21 12 -21 25 -3 18
25 23 18 37 -54 10 -53 15 -61 32 -59 13 2 21 12 22 28 4 39 -41 233 -54 237
-7 3 -19 -13 -28 -34z"/>
<path d="M10643 727 c-42 -85 -58 -128 -53 -142 5 -15 13 -6 40 48 34 69 45
76 92 58 18 -7 35 -33 63 -100 24 -57 45 -91 54 -91 12 0 12 3 3 12 -7 7 -12
19 -12 28 0 12 -115 298 -123 307 -2 1 -30 -53 -64 -120z m76 61 c4 -13 11
-35 15 -50 6 -26 4 -28 -23 -28 -16 0 -32 4 -36 9 -5 9 23 91 31 91 3 0 8 -10
13 -22z"/>
<path d="M11511 819 c-63 -11 -66 -12 -57 -34 3 -10 13 -14 23 -11 10 2 37 8
61 11 l43 7 -3 -44 -3 -43 -57 -9 -58 -9 0 -38 0 -37 93 -4 c50 -2 93 -3 95
-2 2 1 -2 40 -9 88 -8 59 -16 86 -25 86 -8 0 -16 11 -20 25 -3 14 -11 24 -18
24 -6 -1 -35 -5 -65 -10z"/>
<path d="M10140 810 c0 -5 5 -10 10 -10 6 0 10 5 10 10 0 6 -4 10 -10 10 -5 0
-10 -4 -10 -10z"/>
<path d="M11710 809 c0 -5 5 -7 10 -4 6 3 10 8 10 11 0 2 -4 4 -10 4 -5 0 -10
-5 -10 -11z"/>
<path d="M11757 752 c12 -10 28 -43 39 -80 21 -79 29 -74 14 9 -13 72 -23 89
-54 89 l-21 0 22 -18z"/>
<path d="M10558 543 c7 -3 16 -2 19 1 4 3 -2 6 -13 5 -11 0 -14 -3 -6 -6z"/>
<path d="M1012 883 c-4 -45 -1 -162 4 -193 13 -74 55 -101 121 -79 49 16 72
70 73 171 0 74 -13 108 -41 108 -5 0 -9 -44 -8 -99 1 -115 -9 -141 -51 -141
-39 0 -50 23 -56 113 -7 107 -13 137 -28 137 -7 0 -13 -8 -14 -17z"/>
<path d="M786 867 c-44 -14 -58 -36 -28 -44 12 -3 22 -16 26 -36 4 -18 16 -67
27 -109 24 -88 30 -91 93 -55 58 33 65 50 40 94 -12 21 -27 39 -34 41 -7 3 -6
-5 5 -21 25 -38 16 -69 -27 -92 -20 -11 -40 -16 -45 -11 -4 4 -8 30 -8 57 0
27 -3 49 -7 49 -4 0 -10 21 -14 46 -5 34 -3 48 7 55 20 13 63 11 77 -3 16 -16
29 -1 16 20 -14 21 -74 25 -128 9z"/>
<path d="M1296 723 c4 -87 10 -162 15 -167 4 -5 53 -11 108 -14 98 -5 101 -4
101 17 0 20 -5 21 -94 21 l-94 0 -7 133 c-7 141 -11 167 -26 167 -5 0 -6 -64
-3 -157z"/>
<path d="M947 795 c-4 -8 -2 -17 3 -20 6 -4 10 3 10 14 0 25 -6 27 -13 6z"/>
<path d="M871 694 c0 -11 3 -14 6 -6 3 7 2 16 -1 19 -3 4 -6 -2 -5 -13z"/>
</g>
</svg>
