<?xml version="1.0" standalone="no"?>
<!DOCTYPE svg PUBLIC "-//W3C//DTD SVG 20010904//EN"
 "http://www.w3.org/TR/2001/REC-SVG-20010904/DTD/svg10.dtd">
<svg version="1.0" xmlns="http://www.w3.org/2000/svg"
 width="452.000000pt" height="480.000000pt" viewBox="0 0 452.000000 480.000000"
 preserveAspectRatio="xMidYMid meet">
<metadata>
Created by potrace 1.16, written by Peter Selinger 2001-2019
</metadata>
<g transform="translate(0.000000,480.000000) scale(0.100000,-0.100000)"
fill="#000000" stroke="none">
<path d="M4448 4718 l-3 -83 -185 -22 c-102 -12 -355 -43 -562 -69 -334 -42
-375 -49 -357 -62 12 -8 30 -11 45 -8 14 4 24 2 24 -4 0 -5 7 -10 16 -10 9 0
14 6 11 13 -3 9 4 12 25 11 40 -3 45 -10 23 -34 -12 -14 -15 -23 -8 -32 6 -7
11 -33 12 -58 1 -52 9 -80 21 -80 6 0 6 10 0 25 -7 17 -6 25 1 25 8 0 7 5 -1
15 -10 12 -9 16 5 21 9 4 12 10 7 13 -14 9 -17 31 -9 73 9 41 27 43 45 4 10
-22 13 -23 62 -14 28 5 61 7 73 5 21 -4 21 -5 -3 -13 -23 -8 -21 -9 20 -15 31
-4 49 -2 58 8 19 19 42 16 42 -5 0 -19 0 -19 -155 -24 -5 0 -17 1 -25 3 -12 3
-14 -6 -12 -48 1 -29 -1 -53 -5 -54 -33 -3 -58 -11 -64 -21 -18 -29 22 -38 48
-12 11 11 19 12 26 5 13 -13 30 -14 22 -2 -3 5 -1 12 4 15 5 4 12 -7 16 -24 4
-17 10 -28 14 -25 4 2 7 -16 7 -40 l-1 -44 -22 27 c-19 23 -24 25 -32 12 -8
-12 -13 -12 -23 -2 -15 15 -48 16 -48 1 0 -6 9 -9 20 -6 11 3 20 1 20 -4 0 -5
-9 -9 -20 -9 -12 0 -25 -10 -32 -25 -6 -14 -15 -25 -20 -25 -14 0 -9 -38 7
-44 8 -3 15 -12 15 -21 0 -9 9 -15 22 -15 32 0 12 -14 -23 -16 -29 -2 -38 9
-19 21 6 4 8 11 4 16 -3 5 -10 7 -15 4 -8 -6 -14 62 -10 108 1 9 -2 17 -7 17
-11 0 -21 -43 -28 -117 -4 -44 -3 -53 11 -53 9 0 13 -5 10 -10 -4 -6 -11 -7
-17 -4 -5 4 -2 -6 7 -20 20 -31 40 -29 39 3 0 11 5 21 13 21 7 0 13 -11 13
-27 0 -14 8 -35 17 -45 21 -24 26 -50 10 -60 -8 -5 -5 -8 8 -8 17 0 17 -2 -5
-17 -14 -10 -28 -17 -32 -16 -3 1 -9 -4 -12 -12 -7 -19 -1 -19 30 2 14 9 46
16 72 17 l47 1 -4 38 c-2 20 -8 37 -13 37 -6 0 -7 11 -4 26 5 18 3 24 -5 18
-9 -5 -10 0 -5 20 3 14 2 26 -3 26 -5 0 -7 9 -4 21 4 13 9 17 15 11 6 -6 21
-6 36 -1 15 5 49 14 76 21 55 15 65 28 43 61 -12 19 -12 26 -2 40 14 19 37 15
68 -11 9 -8 20 -12 23 -9 8 7 44 -36 44 -52 0 -6 4 -11 9 -11 5 0 17 -7 25
-16 15 -14 17 -14 22 0 9 23 24 20 24 -5 0 -28 24 -19 28 11 2 12 -2 27 -10
31 -10 7 -9 9 4 9 25 0 72 -20 64 -27 -3 -3 4 -11 17 -17 12 -6 23 -21 25 -33
2 -12 10 -27 18 -33 17 -15 18 -52 2 -68 -17 -17 -25 -15 -31 8 -3 11 -11 20
-17 20 -12 0 -8 -48 7 -87 5 -13 3 -14 -18 -3 l-24 13 23 -25 c12 -13 22 -30
22 -37 0 -7 4 -10 9 -7 4 3 8 -13 8 -35 0 -46 22 -80 25 -39 0 14 0 35 -1 48
-1 14 4 22 14 22 9 0 15 9 15 24 0 14 5 28 10 31 6 3 10 19 10 36 0 33 15 39
23 10 2 -11 -4 -34 -15 -51 -19 -31 -17 -41 12 -70 3 -3 12 -14 20 -24 14 -18
13 -19 -2 -14 -11 5 -18 0 -21 -13 -3 -10 -1 -19 4 -19 5 0 9 5 9 11 0 6 6 9
14 6 8 -3 17 -1 20 6 3 9 5 9 5 0 1 -7 12 -13 26 -13 19 0 23 4 18 18 -3 9
-13 22 -21 29 -13 11 -13 15 2 38 20 30 11 49 -29 59 -29 7 -32 24 -10 52 14
18 16 18 28 2 10 -13 17 -14 25 -6 9 9 16 6 31 -11 16 -18 23 -20 40 -12 34
19 41 13 41 -34 0 -32 -5 -47 -15 -52 -14 -5 -14 -8 0 -29 8 -13 15 -32 15
-44 0 -19 -18 -24 -77 -23 -6 0 -9 -5 -6 -13 6 -15 -48 -15 -59 1 -4 5 -16 1
-29 -10 -16 -14 -23 -16 -26 -7 -3 6 -9 12 -14 12 -5 0 -4 -9 3 -20 7 -11 19
-20 26 -20 9 0 12 -6 8 -16 -3 -9 -6 -20 -6 -25 0 -5 -3 -8 -7 -8 -27 4 -43
-3 -43 -20 0 -10 -9 -21 -19 -24 -18 -4 -18 -9 -9 -46 6 -22 15 -41 21 -41 6
0 2 -7 -9 -15 -18 -13 -16 -14 28 -15 30 0 52 6 63 17 13 12 19 13 25 4 5 -9
27 -12 69 -9 53 3 61 1 61 -14 0 -10 -7 -18 -15 -18 -8 0 -19 -9 -25 -20 -9
-17 -8 -20 9 -20 11 0 22 6 24 13 3 6 5 -1 5 -18 0 -16 -2 -23 -5 -15 -4 8
-12 -7 -19 -35 -16 -62 -17 -85 -3 -85 6 0 9 9 6 20 -3 11 -1 20 4 20 10 0 11
-6 14 -142 l3 -96 -30 -4 c-18 -3 -36 1 -44 10 -17 17 -16 17 -37 -24 -8 -16
-32 -39 -51 -49 -20 -11 -36 -27 -36 -36 0 -9 -10 -20 -22 -23 l-23 -7 21 -9
c24 -10 36 -48 38 -127 0 -28 3 -51 6 -51 18 1 23 -4 11 -11 -12 -8 -8 -16 21
-45 44 -44 74 -46 90 -8 12 27 12 27 16 -15 2 -28 8 -43 17 -43 17 0 28 -65
24 -136 -2 -27 -2 -70 -1 -96 2 -59 21 -56 51 8 21 44 21 51 21 1229 l0 1185
-35 0 -34 0 -3 -82z"/>
<path d="M2070 4458 c-7 -22 -9 -56 -6 -74 l7 -32 -210 0 c-172 0 -214 -3
-237 -16 l-29 -16 45 5 45 5 -52 -21 c-29 -12 -53 -28 -53 -35 0 -22 -51 -49
-95 -50 -45 -2 -106 -25 -150 -58 -16 -13 -47 -29 -68 -37 -22 -7 -45 -25 -53
-39 -7 -14 -13 -21 -14 -15 0 5 -16 -12 -35 -40 -20 -28 -33 -56 -30 -64 3 -9
3 -12 -1 -9 -3 4 -13 1 -20 -7 -17 -17 -19 -49 -2 -39 7 4 8 3 4 -5 -5 -8 -12
-9 -19 -2 -8 6 -17 -1 -29 -25 -20 -39 -15 -44 13 -11 l20 22 -10 -22 c-6 -12
-16 -25 -21 -28 -6 -3 -10 -17 -10 -30 0 -13 -4 -26 -9 -29 -11 -7 -22 -76
-14 -89 3 -5 10 -3 15 4 8 11 9 10 4 -3 -3 -9 -8 -62 -12 -116 -6 -86 -5 -100
10 -105 9 -4 16 -15 16 -26 0 -12 24 -45 53 -76 30 -30 59 -72 66 -92 7 -21
15 -43 17 -50 3 -6 -5 -13 -18 -16 -23 -4 -23 -4 -1 -6 15 -1 28 -13 39 -37
11 -23 20 -31 24 -23 5 8 10 4 15 -11 4 -12 3 -25 -3 -29 -17 -11 -37 -193
-24 -229 7 -20 8 -43 2 -61 -7 -25 -6 -30 8 -29 36 3 47 -3 59 -28 17 -37 -8
-73 -51 -75 -29 -2 -29 -2 -4 -6 15 -2 45 5 67 17 36 18 40 24 35 47 -5 19 -2
30 14 42 12 9 30 41 41 71 16 46 24 56 46 58 15 2 32 -1 38 -7 6 -6 20 -11 30
-11 13 0 17 -5 13 -15 -9 -25 0 -17 28 25 30 46 32 60 10 60 -9 0 -14 6 -11
13 2 6 12 11 21 11 21 -2 14 23 -25 87 -25 40 -36 48 -83 61 -53 16 -101 14
-112 -3 -5 -9 -54 -13 -54 -4 0 12 56 200 82 275 36 106 64 154 117 203 62 57
161 121 227 146 33 13 86 34 118 48 76 33 199 63 256 63 75 0 188 -40 239 -83
27 -24 83 -47 111 -47 15 0 39 -9 53 -20 14 -11 32 -20 40 -20 8 0 18 -7 21
-16 3 -8 2 -12 -4 -9 -6 3 -10 1 -10 -4 0 -6 5 -11 11 -11 6 0 9 -7 6 -15 -4
-8 -2 -17 3 -20 6 -4 10 -16 11 -28 0 -12 9 -35 19 -52 24 -37 70 -129 70
-139 0 -4 11 -17 25 -30 14 -13 25 -27 25 -32 1 -5 19 -25 42 -44 22 -19 49
-42 58 -52 10 -9 27 -19 37 -22 11 -4 25 -16 30 -29 35 -73 46 -105 47 -138 0
-21 4 -35 8 -33 5 3 9 0 9 -5 2 -18 5 -24 22 -65 9 -21 17 -50 17 -65 0 -15 6
-33 13 -40 9 -10 9 -15 1 -18 -8 -3 -9 -16 -3 -41 5 -22 4 -38 -1 -40 -6 -2
-10 -17 -10 -32 0 -18 -8 -34 -20 -43 -13 -9 -18 -20 -14 -31 4 -10 0 -18 -10
-22 -9 -3 -16 -13 -16 -21 0 -8 -4 -12 -9 -8 -5 3 -12 -3 -14 -12 -4 -17 -5
-17 -6 0 0 10 -5 16 -10 12 -5 -3 -7 -21 -4 -40 4 -24 2 -35 -6 -35 -7 0 -9 5
-6 10 7 12 -15 13 -30 2 -5 -4 -10 -14 -10 -22 0 -10 -8 -14 -24 -12 -15 2
-21 0 -17 -7 4 -6 1 -12 -6 -13 -7 0 -17 -2 -23 -3 -5 -2 -14 -3 -20 -4 -5 -1
-1 -7 9 -13 15 -8 21 -8 24 0 7 21 18 13 18 -13 0 -14 -4 -25 -8 -25 -4 0 -8
5 -8 10 0 6 -7 10 -15 10 -14 0 -14 -3 0 -24 10 -15 12 -27 6 -30 -5 -4 -12 2
-15 11 -3 10 -3 0 -1 -22 3 -28 2 -35 -5 -25 -8 13 -10 12 -10 -3 0 -11 -9
-21 -20 -24 -12 -3 -20 -12 -18 -22 1 -9 -7 -26 -20 -39 -12 -12 -22 -27 -22
-34 0 -6 6 -3 14 8 8 10 18 15 22 11 13 -13 14 -40 2 -55 -9 -10 -9 -15 0 -21
9 -6 10 -14 2 -32 l-11 -24 5 25 c4 21 3 23 -7 9 -15 -20 -55 -15 -74 9 -14
16 -14 16 -9 -1 3 -10 6 -21 6 -23 0 -2 7 -4 15 -4 8 0 15 -5 15 -11 0 -11
-15 -4 -42 19 -10 9 -18 10 -18 4 0 -6 -7 -18 -16 -26 -8 -9 -11 -16 -6 -16
11 0 35 -60 27 -68 -3 -3 -5 0 -5 7 0 9 -9 12 -25 9 -20 -4 -23 -2 -15 12 9
17 9 18 -41 23 -14 2 -30 6 -36 10 -7 4 -10 -6 -10 -28 1 -19 5 -35 9 -35 4 0
8 -4 8 -9 0 -16 -51 -19 -65 -4 -8 8 -20 11 -25 8 -6 -4 -18 -1 -26 6 -19 16
-30 4 -14 -16 29 -35 -18 -25 -55 11 -12 13 -19 14 -28 5 -8 -8 -8 -11 1 -11
10 0 10 -5 2 -20 -6 -11 -16 -17 -22 -14 -8 5 -9 1 -5 -10 5 -11 -2 -26 -20
-44 -25 -25 -26 -25 -21 -4 4 15 2 22 -8 22 -8 0 -14 5 -14 10 0 6 6 9 12 8 7
-2 14 7 16 20 2 12 8 22 14 22 13 0 1 69 -16 90 -7 8 -20 32 -30 53 -15 34
-27 41 -63 40 -7 -1 -10 3 -7 8 3 5 -3 9 -13 9 -10 0 -27 6 -38 14 -11 7 -33
12 -48 10 -17 -2 -30 3 -33 11 -3 8 -11 12 -19 9 -7 -3 -15 2 -18 10 -4 9 -13
13 -22 10 -10 -4 -18 2 -24 17 -5 13 -10 19 -10 12 -1 -7 -10 -17 -20 -23 -17
-8 -19 -7 -17 15 2 13 -1 22 -5 19 -13 -8 -11 10 3 24 11 11 1 15 -28 11 -7
-1 -24 22 -24 33 0 4 25 12 57 19 44 10 60 19 72 41 9 15 22 28 29 28 20 0 14
32 -18 88 -31 53 -58 71 -45 30 4 -13 9 -35 12 -50 l5 -27 -53 5 c-30 3 -63 9
-74 14 -42 17 -122 39 -167 45 -46 6 -48 5 -93 -40 -30 -29 -45 -52 -41 -61 4
-12 1 -14 -14 -9 -32 10 -28 -58 5 -91 26 -26 33 -40 13 -28 -7 5 -8 3 -4 -5
5 -7 14 -10 22 -7 12 5 12 2 3 -15 -6 -12 -20 -24 -30 -26 -10 -3 -19 -9 -19
-14 0 -5 -6 -9 -14 -9 -8 0 -16 -7 -20 -15 -3 -8 0 -15 7 -15 8 0 7 -4 -3 -10
-12 -7 -10 -11 10 -18 33 -12 45 -7 69 34 11 19 25 34 31 34 6 0 8 6 4 13 -4
7 -3 8 2 4 5 -5 9 -15 9 -24 0 -19 37 -34 56 -22 10 6 11 11 2 20 -13 13 -6
42 8 33 10 -6 11 11 3 44 -5 16 -10 20 -19 12 -15 -12 -41 13 -30 30 10 17 -7
11 -20 -6 -11 -16 -12 -16 -18 -1 -9 25 27 41 56 25 24 -13 29 -15 52 -17 17
-1 18 -48 1 -70 -8 -11 -8 -13 2 -7 6 4 12 2 12 -3 0 -6 7 -11 16 -11 8 0 13
-4 9 -9 -3 -5 4 -12 15 -16 11 -3 20 -11 20 -17 0 -6 9 -8 20 -5 11 3 18 1 15
-3 -8 -13 18 -18 39 -8 14 8 17 7 11 -3 -6 -9 -2 -11 13 -7 16 5 22 2 23 -10
0 -14 2 -13 8 2 7 18 8 18 14 -5 11 -38 9 -42 -20 -35 -62 15 -112 22 -108 15
10 -16 -8 -41 -26 -36 -11 3 -19 1 -19 -5 0 -6 -7 -7 -15 -4 -9 3 -18 -1 -22
-9 -4 -11 -9 -13 -18 -5 -6 5 -15 6 -19 2 -4 -4 -7 -2 -6 3 7 33 -4 35 -21 3
-12 -23 -24 -35 -33 -32 -25 9 -86 -23 -86 -45 0 -22 -20 -30 -20 -8 -1 6 -7
-1 -14 -18 -7 -16 -11 -33 -9 -37 2 -5 -2 -8 -10 -8 -8 0 -22 -15 -31 -34 -9
-19 -20 -36 -24 -39 -4 -2 -2 -2 5 -1 14 3 23 -18 23 -54 0 -21 2 -24 10 -12
5 8 7 23 4 34 -4 13 -2 17 7 14 16 -5 60 47 79 91 16 39 69 64 179 86 113 23
170 16 208 -22 16 -17 34 -23 68 -23 33 0 50 -5 62 -20 18 -20 50 -29 38 -10
-3 5 -1 10 4 10 6 0 11 -5 11 -12 0 -9 3 -9 11 -1 13 13 42 6 33 -9 -3 -5 0
-9 7 -7 29 3 39 -2 54 -31 14 -28 13 -34 -7 -31 -5 0 -8 -4 -8 -10 0 -6 7 -9
15 -5 10 3 15 -1 15 -12 0 -23 -19 -42 -41 -42 -12 0 -17 -6 -14 -19 3 -17 -1
-19 -25 -16 -22 3 -31 -1 -35 -16 -4 -10 -9 -18 -13 -18 -21 3 -31 -4 -37 -28
-3 -15 -9 -23 -13 -17 -4 5 -15 10 -24 12 -20 3 -25 -24 -5 -31 6 -3 2 -6 -10
-6 -17 -1 -23 -7 -23 -25 0 -27 -15 -42 -25 -26 -4 6 -15 8 -25 5 -12 -4 -22
1 -29 12 -6 10 -11 12 -11 5 0 -6 -6 -11 -12 -10 -7 2 -12 -3 -11 -9 5 -22
-41 -44 -77 -36 -31 6 -32 7 -12 14 26 10 29 29 5 28 -39 -1 -53 -16 -43 -46
1 -5 2 -11 1 -15 0 -5 6 -8 15 -8 9 0 14 -5 12 -11 -2 -6 -6 -9 -8 -8 -3 1
-15 -3 -27 -10 -19 -10 -22 -9 -17 4 4 8 1 15 -5 15 -7 0 -16 -10 -20 -22 -8
-19 -9 -17 -8 14 1 21 6 33 11 28 9 -9 36 -2 36 10 0 4 -12 15 -26 25 -15 9
-24 13 -20 7 3 -5 -4 -13 -17 -17 -13 -4 -17 -8 -9 -12 16 -6 16 -33 0 -33 -9
0 -8 -4 2 -10 10 -6 3 -7 -24 -3 -24 4 -37 2 -33 -3 3 -6 2 -16 -4 -24 -6 -11
-9 -8 -9 13 0 28 -13 36 -26 15 -4 -6 -2 -14 4 -16 7 -2 12 -8 12 -14 0 -6 -9
-3 -19 6 -19 17 -19 17 -17 -8 2 -14 -1 -23 -5 -20 -5 3 -9 12 -9 20 0 8 -6
14 -12 15 -7 0 -3 5 10 11 22 11 30 28 12 28 -5 0 -7 6 -4 14 6 15 -33 29 -42
15 -3 -5 -10 -7 -15 -3 -6 3 -17 -2 -25 -12 -14 -18 -14 -18 -5 3 16 33 14 56
-5 49 -8 -3 -13 -2 -10 3 3 5 -1 14 -9 21 -8 7 -15 19 -15 26 0 8 -4 14 -8 14
-13 0 -32 91 -28 138 2 23 -2 49 -8 58 -9 11 -11 -20 -10 -133 1 -125 6 -163
28 -243 33 -123 57 -194 68 -201 15 -10 38 -61 32 -70 -3 -5 -1 -8 4 -7 5 2
23 -9 40 -24 17 -15 50 -32 73 -38 24 -7 52 -18 63 -26 11 -8 31 -14 43 -14
13 0 23 -5 23 -11 0 -6 7 -9 15 -5 11 4 15 -1 15 -17 0 -17 2 -19 9 -8 7 12
14 10 37 -8 21 -17 29 -19 37 -9 6 9 7 8 3 -4 -3 -12 0 -18 9 -18 18 0 20 -16
3 -26 -7 -4 -8 -3 -4 4 4 7 2 12 -4 12 -7 0 -10 -6 -8 -12 3 -7 11 -13 18 -13
7 0 15 -10 17 -23 3 -23 3 -23 -22 -5 -23 17 -30 32 -26 62 2 7 -2 10 -7 7 -6
-3 -13 0 -16 6 -4 7 -4 2 0 -12 3 -14 6 -43 6 -65 0 -29 2 -33 5 -12 5 30 23
28 23 -3 0 -20 46 -57 57 -46 3 3 2 21 -4 40 -6 21 -7 39 -1 47 7 11 9 11 7
-1 -3 -31 1 -50 12 -50 5 0 8 4 5 9 -4 5 0 12 6 14 10 4 10 6 1 6 -7 1 -13 6
-13 12 0 8 5 8 15 -1 8 -7 13 -16 10 -20 -3 -5 -1 -11 5 -15 5 -3 10 -14 10
-24 0 -10 7 -24 15 -31 8 -7 15 -24 15 -39 0 -50 12 -68 66 -102 29 -19 53
-40 51 -48 -1 -8 5 -16 13 -18 13 -4 13 -3 0 6 -11 8 -12 11 -2 11 21 0 5 17
-53 56 -30 20 -55 41 -55 47 0 7 4 7 12 -1 20 -20 32 -13 14 7 -10 10 -13 21
-9 24 10 7 38 -9 38 -20 0 -19 45 -64 56 -57 7 4 10 2 7 -6 -4 -13 40 -65 48
-57 2 2 -5 12 -16 22 -11 10 -20 25 -20 33 0 9 15 2 44 -21 24 -20 47 -33 51
-29 5 4 5 2 2 -4 -4 -7 0 -17 8 -24 10 -9 15 -9 15 -1 0 6 9 2 20 -9 26 -26
25 -33 -2 -19 l-23 12 20 -20 c11 -11 22 -19 24 -17 7 6 61 -26 61 -36 0 -6
-8 -10 -17 -11 -12 -1 -10 -4 7 -9 24 -8 24 -8 3 -9 -13 -1 -23 -5 -23 -11 0
-5 7 -7 15 -4 8 4 22 0 31 -7 9 -7 36 -14 61 -14 31 -2 51 -9 66 -24 21 -21
21 -23 4 -35 -9 -7 -17 -18 -17 -23 0 -6 -20 -16 -45 -22 -25 -6 -45 -16 -45
-21 0 -10 35 -14 75 -10 17 2 17 -1 -8 -25 -31 -32 -33 -40 -11 -49 8 -3 12
-2 9 4 -3 6 3 10 14 10 12 0 21 7 21 15 0 21 13 19 27 -4 10 -15 9 -20 -2 -24
-16 -7 -8 -47 10 -47 17 0 47 -35 38 -44 -5 -4 0 -13 10 -21 16 -12 16 -13 -3
-18 -12 -3 -20 -13 -19 -24 1 -17 2 -17 6 0 5 19 40 19 36 0 -1 -6 9 -13 24
-16 19 -3 27 0 30 14 3 11 14 19 23 19 10 0 22 9 25 20 3 11 10 20 15 20 13 0
74 -34 78 -43 2 -4 14 -2 26 6 12 8 51 16 88 19 55 3 67 1 71 -12 5 -21 -29
-66 -36 -48 -3 7 -6 3 -6 -10 -2 -44 -49 -100 -130 -155 l-53 -37 911 0 911 0
0 510 c0 477 -1 511 -17 517 -10 4 -21 11 -25 17 -5 7 -8 6 -9 -4 0 -8 -5 -4
-9 10 -5 16 -8 -10 -9 -76 l-1 -101 -117 0 c-186 1 -246 -3 -276 -14 -24 -10
-32 -8 -66 15 -32 23 -48 27 -92 25 -66 -4 -125 15 -164 51 -44 40 -68 50
-123 50 -64 0 -115 24 -173 82 -30 29 -65 52 -97 62 -28 10 -53 24 -56 32 -9
24 -6 322 4 379 26 148 41 188 95 249 19 21 35 44 35 51 0 18 61 147 77 163 7
7 13 17 13 22 0 5 11 34 25 64 14 30 25 64 25 75 0 12 5 21 10 21 6 0 10 6 10
13 0 18 40 141 49 147 3 3 7 14 8 25 2 21 26 116 38 152 4 14 13 20 25 18 13
-3 17 1 13 11 -3 8 0 14 7 14 6 0 8 5 5 10 -4 6 -11 8 -16 5 -13 -9 -11 4 4
19 7 7 19 10 27 8 11 -4 9 2 -5 17 l-19 22 27 -6 c17 -5 27 -3 27 4 0 6 -6 11
-14 11 -8 0 -18 5 -22 12 -5 8 -2 9 11 5 14 -6 16 -3 12 12 -5 19 16 36 32 26
5 -2 6 6 4 20 -4 21 -2 23 18 18 19 -4 21 -3 9 6 -11 8 -12 11 -2 11 7 0 10 5
7 10 -3 6 0 10 7 10 9 0 9 3 -2 10 -9 6 -10 10 -3 10 7 0 10 10 7 25 -3 18 0
25 11 25 11 0 13 4 8 13 -4 6 -6 20 -4 31 4 26 -19 77 -32 69 -6 -4 -7 -1 -2
7 6 10 11 9 21 -4 10 -14 17 -15 31 -8 17 10 17 11 1 17 -10 4 -18 11 -18 17
0 5 4 7 9 3 20 -12 20 14 0 39 -12 15 -19 30 -15 33 3 3 -2 12 -12 20 -16 13
-16 14 0 9 12 -4 15 -1 11 11 -5 12 -3 14 8 8 11 -7 11 -5 -1 11 -8 10 -19 22
-25 26 -6 4 -1 8 10 8 20 1 20 1 1 15 -18 14 -18 15 -2 15 9 0 15 4 11 10 -3
5 -13 7 -23 4 -13 -5 -14 -4 -3 4 13 9 7 51 -9 62 -4 3 -10 27 -12 54 -3 26
-11 52 -19 57 -11 6 -11 9 2 14 21 8 22 45 1 45 -9 0 -24 5 -32 10 -11 7 -5 8
20 3 l35 -6 -25 21 c-23 20 -24 21 -5 22 15 0 17 2 6 9 -11 7 -9 10 8 16 13 4
20 9 17 12 -3 3 -18 -2 -32 -12 -26 -17 -28 -17 -40 -1 -7 11 -14 13 -17 6 -3
-6 -4 -5 -3 2 2 7 8 13 13 13 6 0 15 4 20 9 4 5 -3 6 -18 3 -16 -4 -33 -1 -45
9 -10 8 -13 12 -5 8 9 -5 12 -3 7 5 -4 6 -11 9 -16 6 -5 -3 -11 -1 -14 4 -8
12 13 19 49 15 22 -2 26 -1 15 6 -12 8 -13 10 -1 10 8 0 12 3 9 6 -4 3 -15 1
-26 -5 -15 -8 -21 -7 -25 2 -4 10 8 14 41 16 26 1 49 5 52 8 3 3 -24 3 -59 0
-38 -3 -67 -10 -72 -18 -7 -11 -9 -9 -9 6 0 15 -2 17 -12 6 -11 -10 -15 -3
-24 36 -8 36 -15 48 -28 47 -9 -1 -15 3 -13 10 3 6 10 10 17 8 11 -3 11 0 1
12 -7 8 -9 21 -5 27 5 8 3 9 -5 5 -7 -5 -10 -15 -6 -23 4 -12 3 -13 -8 -5 -8
7 -17 8 -21 4 -5 -4 -7 0 -6 8 4 29 0 51 -9 45 -5 -3 -13 5 -17 17 -3 12 -13
28 -20 36 -12 11 -14 10 -14 -10 0 -20 -3 -18 -27 15 -15 22 -29 34 -31 28 -2
-6 -8 -11 -13 -11 -17 0 -78 45 -83 60 -3 11 -4 11 -5 -2 0 -10 -5 -18 -11
-18 -16 0 -51 40 -45 50 4 6 2 10 -4 10 -5 0 -13 9 -16 21 -4 11 -9 18 -12 16
-2 -3 1 -16 8 -29 9 -17 5 -15 -18 9 -16 17 -66 50 -111 71 -44 22 -100 58
-124 81 -84 82 -133 107 -243 124 -55 9 -125 21 -156 28 -55 11 -115 6 -105
-9 2 -4 -25 -7 -62 -5 -50 2 -62 0 -47 -7 23 -11 -13 -7 -100 12 -51 11 -105
56 -105 88 -1 12 -3 12 -14 -3 -11 -14 -16 -15 -22 -5 -11 17 -12 58 -2 58 4
0 2 11 -4 25 -16 35 -26 31 -38 -17z m1397 -1589 c44 -16 83 -59 114 -124 29
-60 39 -135 18 -135 -7 0 -9 -12 -7 -30 3 -17 1 -33 -3 -36 -5 -3 -6 -17 -3
-32 4 -18 -5 -50 -26 -97 -62 -139 -71 -152 -111 -171 -22 -9 -39 -21 -39 -26
0 -5 -4 -7 -9 -3 -6 3 -14 -3 -20 -12 -6 -10 -11 -15 -11 -11 0 4 -21 -2 -46
-12 -80 -35 -133 -24 -172 36 -14 22 -21 44 -18 62 2 15 5 37 5 50 1 14 7 22
19 22 15 1 15 2 -2 15 -11 8 -16 18 -13 22 4 4 13 1 19 -5 17 -17 43 -15 88 8
23 12 59 20 88 20 34 0 54 5 64 18 20 22 39 91 30 108 -11 19 -83 74 -97 74
-7 0 -18 6 -24 13 -9 11 -1 13 45 9 l55 -5 -3 29 c-2 20 2 29 14 32 13 2 25
-14 48 -65 46 -100 36 -151 -47 -246 -34 -38 -36 -57 -7 -57 22 0 51 36 85
106 38 79 58 222 39 289 -13 48 -53 109 -63 98 -4 -3 -7 -2 -7 4 0 20 -48 23
-106 8 -32 -8 -59 -13 -62 -11 -2 2 6 14 17 25 12 12 18 21 14 22 -5 0 1 4 12
9 28 12 89 12 122 -1z"/>
<path d="M660 4182 c-24 -2 -39 -6 -33 -10 6 -4 14 -19 18 -34 5 -21 3 -27
-15 -33 -27 -9 -30 -5 -33 34 -2 30 -3 31 -50 31 -27 0 -67 -4 -90 -10 -23 -5
-64 -12 -92 -16 -39 -5 -46 -8 -30 -15 16 -6 14 -8 -15 -10 -31 -2 -32 -2 -7
-6 22 -4 27 -9 27 -33 0 -29 1 -29 63 -32 l62 -3 -30 -15 c-35 -18 -58 -34
-99 -74 -24 -23 -42 -30 -81 -33 -56 -4 -155 -33 -155 -45 0 -4 -7 -8 -15 -8
-8 0 -15 -5 -15 -11 0 -5 -4 -7 -10 -4 -5 3 -10 0 -11 -7 -1 -7 -5 -2 -9 12
l-8 25 -1 -27 c-1 -16 4 -28 9 -28 6 0 10 -15 10 -34 0 -35 13 -55 25 -36 3 5
1 10 -5 10 -20 0 50 60 78 66 15 4 36 13 48 21 18 11 23 11 36 -4 10 -12 12
-26 7 -43 -4 -14 -7 -19 -8 -12 -1 15 -41 16 -41 1 0 -5 -4 -8 -9 -5 -5 3 -26
-1 -47 -8 -22 -8 -33 -15 -26 -15 6 -1 12 -6 12 -13 0 -6 -2 -9 -5 -6 -3 3
-20 -8 -38 -25 l-32 -30 -6 34 c-5 29 -7 26 -8 -19 -1 -33 3 -51 9 -47 6 3 10
-4 10 -18 0 -19 7 -26 31 -31 41 -8 96 19 79 39 -7 8 -10 20 -7 27 4 8 6 7 6
-4 1 -22 24 -23 57 -2 15 11 23 23 19 32 -4 12 -3 13 10 2 8 -7 15 -18 15 -25
0 -7 7 -18 15 -25 15 -13 20 -3 17 40 -1 20 17 50 29 50 7 0 10 -19 7 -50 -3
-52 0 -58 20 -38 7 7 12 10 13 7 0 -2 1 -21 3 -42 4 -50 20 -67 43 -44 13 13
14 21 6 40 -9 19 -8 26 6 35 13 9 11 11 -14 11 -21 1 -26 4 -18 12 6 6 21 9
34 7 22 -3 24 -8 24 -55 0 -29 3 -54 5 -54 3 -1 16 1 28 6 21 6 23 11 18 40
-4 19 -2 36 4 40 5 3 10 -3 10 -14 0 -10 3 -28 7 -38 6 -16 8 -15 13 7 4 15
13 24 23 24 12 -1 17 6 17 27 0 22 -4 27 -17 23 -14 -5 -13 -2 3 13 12 10 24
25 27 33 3 8 6 0 6 -17 1 -18 5 -33 10 -33 4 0 6 -11 3 -25 -2 -15 0 -25 7
-25 6 0 11 11 11 24 0 28 14 42 53 51 17 5 27 14 27 26 0 12 5 16 15 13 8 -4
15 -1 15 4 0 6 16 19 35 28 19 9 35 20 35 25 0 5 7 9 15 9 8 0 15 4 15 9 0 10
-73 25 -101 21 -29 -5 -48 0 -64 17 -16 16 -14 17 26 30 24 7 59 13 77 13 24
0 31 4 26 13 -6 10 -4 10 7 0 7 -7 18 -13 23 -13 6 0 4 5 -4 10 -12 8 -11 10
7 10 35 0 53 11 53 31 0 12 -7 19 -17 18 -11 0 -13 -3 -5 -6 17 -7 15 -23 -3
-23 -8 0 -15 4 -15 9 0 5 -28 7 -62 4 l-63 -5 25 21 c14 11 36 21 50 21 14 0
36 7 49 14 l23 13 -31 6 c-31 6 -44 27 -17 27 7 0 16 9 19 20 3 12 14 20 26
20 32 0 25 17 -10 24 -47 9 -49 8 -49 -20 0 -22 -4 -25 -27 -22 -39 4 -41 32
-4 48 36 14 49 40 21 40 -11 0 -20 4 -20 9 0 9 -19 9 -110 3z"/>
<path d="M130 4119 c-13 -6 -34 -8 -47 -4 -12 3 -25 0 -28 -5 -4 -6 -11 -8
-16 -5 -5 4 -8 -32 -7 -87 1 -51 3 -76 5 -55 4 35 6 37 41 37 20 0 64 8 97 18
45 14 60 23 61 38 1 10 2 24 3 31 1 6 9 14 19 16 9 3 4 5 -13 6 -23 1 -27 3
-15 11 20 13 -66 12 -100 -1z"/>
<path d="M3858 4081 c-4 -13 -147 -61 -163 -55 -21 8 -25 -9 -12 -58 10 -38
15 -44 31 -39 17 7 17 9 3 23 -15 15 -13 58 2 58 17 0 31 -27 31 -58 0 -34 1
-34 35 -28 22 4 35 3 35 -4 0 -9 -29 -15 -53 -11 -8 1 -1 -48 14 -95 7 -23 15
-30 32 -28 12 1 28 3 35 3 6 1 12 6 12 11 0 6 -11 8 -27 4 -16 -4 -24 -3 -20
2 5 5 14 9 20 9 8 0 11 13 9 34 -2 22 0 31 7 26 6 -3 11 2 11 12 0 15 2 16 10
3 9 -13 10 -13 10 1 0 8 -5 20 -10 25 -7 7 -8 19 -1 37 7 17 7 27 0 29 -16 5
-18 62 -2 80 9 9 10 18 5 22 -6 3 -12 2 -14 -3z"/>
<path d="M378 3558 c-21 -6 -38 -14 -38 -19 0 -5 -9 -9 -20 -9 -16 0 -48 -36
-38 -44 2 -2 12 -8 22 -13 19 -10 19 -11 -2 -17 -21 -7 -31 -35 -31 -94 0 -29
3 -31 25 -26 17 5 24 2 24 -9 0 -8 -5 -17 -11 -19 -9 -3 -9 -9 0 -25 14 -27
14 -70 1 -78 -17 -11 -11 -25 15 -35 19 -7 34 -5 59 7 30 14 33 18 20 30 -15
16 -19 33 -6 33 13 0 34 81 23 94 -10 12 -5 51 9 71 4 6 10 20 12 32 7 25 -7
33 -58 33 -19 0 -34 5 -34 10 0 6 13 10 29 10 16 0 34 7 41 15 7 9 20 13 29
10 14 -4 14 -4 1 7 -8 7 -15 19 -15 27 0 19 -12 21 -57 9z"/>
<path d="M2065 3360 c-16 -4 -47 -8 -68 -9 -20 0 -45 -5 -55 -10 -9 -5 -29
-14 -43 -20 -14 -7 -42 -28 -63 -47 -20 -19 -41 -34 -47 -34 -5 0 -9 -18 -9
-39 0 -22 -4 -42 -8 -45 -5 -3 -9 -56 -10 -118 l0 -113 38 -30 c21 -16 43 -40
49 -52 6 -13 16 -23 23 -23 7 0 25 -6 40 -14 28 -15 72 -11 62 5 -3 5 1 9 10
9 8 0 16 6 19 13 2 8 22 11 58 10 32 -1 49 1 40 6 -9 6 -10 10 -2 16 7 4 17 2
24 -3 7 -5 40 -12 74 -16 68 -8 124 1 101 15 -10 7 -9 9 5 9 10 0 15 5 12 10
-3 6 1 13 10 16 13 6 14 8 3 15 -9 6 -3 10 19 15 18 4 30 10 28 15 -9 14 11
19 94 21 83 2 104 10 76 25 -12 7 -13 16 -5 42 5 19 7 38 4 42 -3 5 1 12 9 15
8 3 17 13 20 23 3 14 -1 17 -18 13 -24 -4 -48 19 -26 26 9 3 9 7 0 18 -9 11
-7 16 12 22 15 6 18 11 11 16 -7 4 -12 19 -12 34 0 33 -52 72 -96 72 -17 0
-35 5 -41 11 -10 10 -81 21 -155 23 -20 1 -34 4 -32 8 3 4 -15 7 -39 6 -24 0
-52 2 -63 4 -10 3 -32 2 -49 -2z m119 -241 c22 -6 55 -27 73 -46 32 -33 33
-36 16 -49 -16 -12 -15 -14 17 -15 31 -2 32 -2 7 -6 -16 -3 -25 -9 -21 -15 4
-6 -1 -8 -15 -3 -12 3 -21 2 -21 -3 0 -6 -8 -9 -17 -7 -10 1 -29 -4 -41 -12
-13 -8 -26 -12 -30 -9 -3 3 1 6 8 6 7 0 11 3 8 6 -10 9 -69 -26 -63 -36 9 -15
25 -12 25 5 0 8 5 15 10 15 6 0 10 -7 10 -15 0 -8 -4 -15 -10 -15 -5 0 -10 -7
-10 -15 0 -8 5 -15 12 -15 6 0 8 -3 5 -7 -4 -3 -16 2 -27 12 -11 10 -20 13
-20 7 0 -7 -9 -12 -19 -12 -11 0 -21 -4 -23 -10 -2 -5 -24 -3 -56 6 -44 13
-51 18 -41 30 6 8 17 14 24 14 7 0 18 6 24 14 9 11 8 15 -4 20 -9 3 -14 10
-10 15 3 6 12 8 20 5 36 -14 95 56 95 114 0 36 10 39 74 21z"/>
<path d="M4338 3350 c-13 -11 -19 -19 -14 -20 5 0 2 -8 -5 -17 -8 -9 -9 -14
-4 -11 6 4 16 4 22 0 13 -8 -7 -77 -27 -96 -10 -8 -10 -6 -1 11 10 19 9 22 -5
16 -13 -5 -15 -2 -10 15 8 24 -5 35 -29 26 -12 -5 -16 -16 -13 -38 4 -33 4
-32 -52 -38 -11 -1 -20 -6 -20 -10 0 -4 -7 -8 -15 -8 -15 0 -35 -30 -35 -52 1
-7 7 -1 15 14 16 29 57 43 114 39 50 -3 69 -17 82 -61 11 -36 29 -55 29 -30 0
6 5 10 11 10 5 0 7 -6 4 -12 -4 -7 0 -6 7 2 8 8 20 21 28 28 12 11 12 13 1 10
-7 -2 -16 3 -18 10 -3 6 2 12 11 12 9 0 16 7 16 16 0 8 -4 13 -9 9 -5 -3 -12
-1 -16 5 -4 7 -17 3 -35 -10 l-28 -20 5 22 c4 19 3 20 -7 8 -10 -13 -11 -13
-7 0 2 8 14 15 28 15 37 0 48 44 21 89 -12 20 -17 36 -13 36 15 0 19 25 5 37
-10 10 -17 8 -36 -7z"/>
<path d="M1694 1971 c-2 -3 -15 -6 -27 -8 -12 -2 -35 -10 -52 -18 -16 -7 -43
-17 -59 -20 -27 -6 -28 -8 -23 -46 3 -24 1 -39 -6 -39 -6 0 -7 -3 -4 -6 4 -4
14 -1 23 7 16 13 17 11 11 -19 -4 -18 -3 -31 1 -28 4 2 14 -9 21 -26 15 -33 5
-48 -30 -48 -9 0 -20 -7 -23 -16 -5 -13 -3 -14 6 -6 20 16 100 19 135 5 47
-19 62 -16 33 7 l-25 20 25 1 c14 1 28 1 32 1 3 -1 12 6 20 15 11 14 11 16 -2
11 -13 -5 -16 4 -18 49 -1 38 1 52 10 47 7 -4 8 -3 4 5 -4 6 -2 19 5 27 9 11
9 18 1 26 -7 7 -12 24 -12 39 0 22 -4 27 -20 26 -12 -1 -23 -3 -26 -6z"/>
<path d="M1708 921 c-26 -17 -55 -37 -65 -46 -63 -57 -79 -66 -107 -60 -22 4
-36 -1 -53 -17 -13 -12 -23 -26 -23 -32 0 -6 -40 -31 -88 -56 -48 -25 -89 -48
-92 -52 -3 -3 -19 -10 -35 -14 -17 -4 -50 -18 -74 -31 -24 -12 -52 -23 -62
-23 -10 0 -21 -5 -24 -10 -4 -7 3 -9 22 -5 19 5 12 -2 -24 -21 -28 -15 -49
-33 -46 -38 3 -6 0 -5 -8 2 -7 6 -37 12 -67 12 -29 0 -51 4 -48 8 3 5 -9 7
-27 5 -27 -3 -29 -2 -12 6 16 8 13 10 -18 8 -21 0 -41 -5 -43 -9 -3 -4 -27 -8
-53 -8 -70 0 -319 -36 -441 -64 -58 -13 -147 -32 -197 -41 l-93 -18 -1 -166
c0 -91 -3 -160 -6 -153 -10 26 -23 -1 -23 -49 l0 -49 904 0 c853 0 905 1 909
17 4 17 5 17 6 1 1 -21 31 -24 31 -4 0 8 -7 21 -15 29 -8 8 -11 17 -8 21 3 3
1 11 -5 18 -14 18 -25 131 -11 122 7 -4 7 1 0 15 -7 12 -13 42 -14 66 -1 30
-7 45 -15 45 -10 0 -12 8 -7 31 5 23 4 29 -4 24 -8 -5 -10 1 -5 21 5 20 4 25
-6 19 -9 -5 -10 -2 -5 15 5 15 2 25 -6 31 -20 12 -31 11 -23 -3 4 -6 8 -38 8
-70 1 -41 6 -62 16 -68 13 -8 13 -10 -1 -10 -19 0 -42 24 -32 33 3 4 1 7 -5 7
-7 0 -12 9 -12 20 0 12 -7 35 -16 52 -25 48 -31 203 -10 266 22 65 72 168 85
177 13 7 15 75 3 75 -4 0 -29 -13 -54 -29z"/>
</g>
</svg>
